<svg width="29" height="29" viewBox="0 0 29 29" fill="none" xmlns="http://www.w3.org/2000/svg">
<g clip-path="url(#clip0)">
<path d="M27.3992 5.12495e-08H1.59943C0.715973 0.000442556 -0.000221201 0.717079 5.12495e-08 1.60076V27.4006C0.000442556 28.284 0.717079 29.0002 1.60076 29H27.3992C28.2831 29.0002 28.9998 28.2838 29 27.3999C29 27.3997 29 27.3995 29 27.3992V1.59943C28.9996 0.715973 28.2829 -0.000221201 27.3992 5.12495e-08Z" fill="#4267B2"/>
<path d="M20.0225 29V17.7852H23.8032L24.3696 13.3955H20.0225V10.5998C20.0225 9.33177 20.3745 8.46778 22.1927 8.46778H24.4971V4.55228C24.0962 4.49895 22.7206 4.3797 21.1201 4.3797C17.7783 4.3797 15.4912 6.41876 15.4912 10.165V13.3955H11.7246V17.7852H15.4912V29H20.0225Z" fill="white"/>
</g>
<defs>
<clipPath id="clip0">
<rect width="29" height="29" fill="white"/>
</clipPath>
</defs>
</svg>
