<svg width="48" height="48" viewBox="0 0 48 48" fill="none" xmlns="http://www.w3.org/2000/svg">
<circle cx="24" cy="24" r="24" fill="#1E1E27"/>
<path d="M28.5 15H19.5C17.0147 15 15 17.0147 15 19.5V28.5C15 30.9853 17.0147 33 19.5 33H28.5C30.9853 33 33 30.9853 33 28.5V19.5C33 17.0147 30.9853 15 28.5 15Z" stroke="white" stroke-width="2" stroke-linecap="round" stroke-linejoin="round"/>
<path d="M27.5995 23.4323C27.7106 24.1813 27.5827 24.9463 27.2339 25.6184C26.8852 26.2905 26.3334 26.8356 25.657 27.176C24.9806 27.5164 24.2141 27.6349 23.4665 27.5146C22.719 27.3943 22.0283 27.0414 21.4929 26.5059C20.9575 25.9705 20.6045 25.2799 20.4842 24.5323C20.3639 23.7847 20.4824 23.0182 20.8228 22.3418C21.1633 21.6655 21.7083 21.1137 22.3804 20.7649C23.0525 20.4162 23.8175 20.2882 24.5665 20.3993C25.3306 20.5126 26.0379 20.8686 26.5841 21.4148C27.1302 21.9609 27.4862 22.6683 27.5995 23.4323Z" stroke="white" stroke-width="2" stroke-linecap="round" stroke-linejoin="round"/>
<path d="M28.9502 19.0503H28.9584" stroke="white" stroke-width="2" stroke-linecap="round" stroke-linejoin="round"/>
</svg>
