<svg width="564" height="450" viewBox="0 0 564 450" fill="none" xmlns="http://www.w3.org/2000/svg">
<path fill-rule="evenodd" clip-rule="evenodd" d="M127.519 146.152L125.637 151.797L135.985 156.03L136.769 151.169L127.519 146.152Z" fill="white"/>
<path fill-rule="evenodd" clip-rule="evenodd" d="M33.8614 400.328L26.0514 412.351L34.5797 425.718L45.1776 406.496L33.8614 400.328Z" fill="white" stroke="#372898" stroke-width="0.627137" stroke-linecap="round"/>
<path fill-rule="evenodd" clip-rule="evenodd" d="M143.554 431.667V439.192L156.097 440.447L158.292 429.158" fill="white"/>
<path d="M143.554 431.667V439.192L156.097 440.447L158.292 429.158" stroke="#372898" stroke-width="0.627137" stroke-linecap="round"/>
<path fill-rule="evenodd" clip-rule="evenodd" d="M114.993 240.364L116.315 268.347L114.499 310.581L31.5533 396.705L29.1849 405.787L40.3165 418.33L47.8422 413.94L133.165 331.794C137.009 328.093 139.623 323.3 140.652 318.064L154.209 249.087L114.993 240.364Z" fill="white" stroke="#372898" stroke-width="0.627136" stroke-linecap="round"/>
<mask id="mask0" mask-type="alpha" maskUnits="userSpaceOnUse" x="28" y="239" width="127" height="180">
<path fill-rule="evenodd" clip-rule="evenodd" d="M114.993 240.364L116.315 268.347L114.499 310.581L31.5533 396.705L29.1849 405.787L40.3165 418.33L47.8422 413.94L133.165 331.794C137.009 328.093 139.623 323.3 140.652 318.064L154.209 249.087L114.993 240.364Z" fill="white" stroke="white" stroke-width="0.627136" stroke-linecap="round"/>
</mask>
<g mask="url(#mask0)">
<path fill-rule="evenodd" clip-rule="evenodd" d="M116.263 206.708L115.708 280.997L144.892 310.149L159.828 283.127L116.263 206.708Z" fill="#372898"/>
</g>
<path fill-rule="evenodd" clip-rule="evenodd" d="M136.398 150.316L134.962 157.868L135.578 157.985L137.014 150.433L136.398 150.316ZM124.259 156.968L128.43 144.351L127.834 144.154L123.664 156.771L124.259 156.968Z" fill="white"/>
<path d="M134.962 157.868L134.903 158.176L134.595 158.118L134.654 157.809L134.962 157.868ZM136.398 150.316L136.09 150.258L136.149 149.95L136.457 150.008L136.398 150.316ZM135.578 157.985L135.886 158.044L135.828 158.352L135.52 158.293L135.578 157.985ZM137.014 150.433L137.073 150.125L137.381 150.184L137.322 150.492L137.014 150.433ZM128.43 144.351L128.528 144.053L128.826 144.151L128.727 144.449L128.43 144.351ZM124.259 156.968L124.557 157.066L124.459 157.364L124.161 157.266L124.259 156.968ZM127.834 144.154L127.536 144.055L127.635 143.758L127.933 143.856L127.834 144.154ZM123.664 156.771L123.565 157.069L123.268 156.97L123.366 156.673L123.664 156.771ZM134.654 157.809L136.09 150.258L136.706 150.375L135.27 157.927L134.654 157.809ZM135.52 158.293L134.903 158.176L135.021 157.56L135.637 157.677L135.52 158.293ZM137.322 150.492L135.886 158.044L135.27 157.927L136.706 150.375L137.322 150.492ZM136.457 150.008L137.073 150.125L136.956 150.741L136.34 150.624L136.457 150.008ZM128.727 144.449L124.557 157.066L123.961 156.87L128.132 144.252L128.727 144.449ZM127.933 143.856L128.528 144.053L128.331 144.648L127.736 144.451L127.933 143.856ZM123.366 156.673L127.536 144.055L128.132 144.252L123.961 156.87L123.366 156.673ZM124.161 157.266L123.565 157.069L123.762 156.473L124.358 156.67L124.161 157.266Z" fill="#372898"/>
<path fill-rule="evenodd" clip-rule="evenodd" d="M127.423 145.991L126.811 141.012C126.492 135.838 130.77 132.597 135.761 133.252C141.177 133.962 142.687 137.799 143.978 143.169C145.269 148.539 144.333 150.927 138.963 151.209C137.253 151.298 134.434 150.343 134.434 150.343" fill="white"/>
<path d="M127.423 145.991L126.811 141.012C126.492 135.838 130.77 132.597 135.761 133.252C141.177 133.962 142.687 137.799 143.978 143.169C145.269 148.539 144.333 150.927 138.963 151.209C137.253 151.298 134.434 150.343 134.434 150.343" stroke="#372898" stroke-width="0.627137" stroke-linecap="round"/>
<path fill-rule="evenodd" clip-rule="evenodd" d="M133.609 141.114C133.034 140.764 132.359 140.577 131.648 140.614C129.657 140.719 128.167 142.519 128.276 144.594C128.353 146.055 129.199 147.291 130.387 147.864L130.659 147.299C129.683 146.828 128.967 145.799 128.902 144.561C128.81 142.793 130.074 141.325 131.681 141.241C132.26 141.21 132.81 141.362 133.283 141.65L133.609 141.114ZM127.522 146.114L126.91 141.134C126.591 135.961 130.869 132.72 135.859 133.374C141.276 134.085 142.786 137.921 144.077 143.292C145.368 148.662 144.432 151.05 139.062 151.332C137.352 151.421 134.532 150.466 134.532 150.466" fill="white"/>
<path d="M133.609 141.114L133.772 140.847L134.04 141.01L133.877 141.277L133.609 141.114ZM130.387 147.864L130.669 148L130.533 148.282L130.25 148.146L130.387 147.864ZM130.659 147.299L130.795 147.017L131.078 147.153L130.942 147.435L130.659 147.299ZM133.283 141.65L133.551 141.813L133.387 142.081L133.12 141.918L133.283 141.65ZM127.833 146.076C127.854 146.248 127.732 146.404 127.56 146.425C127.388 146.446 127.232 146.324 127.21 146.152L127.833 146.076ZM126.91 141.134L126.599 141.173L126.598 141.163L126.597 141.154L126.91 141.134ZM135.859 133.374L135.9 133.064L135.859 133.374ZM134.432 150.763C134.268 150.707 134.18 150.529 134.235 150.365C134.291 150.201 134.469 150.113 134.633 150.169L134.432 150.763ZM131.631 140.301C132.409 140.261 133.146 140.465 133.772 140.847L133.446 141.382C132.922 141.063 132.31 140.894 131.664 140.928L131.631 140.301ZM127.963 144.61C127.846 142.383 129.448 140.416 131.631 140.301L131.664 140.928C129.866 141.022 128.489 142.655 128.589 144.577L127.963 144.61ZM130.25 148.146C128.957 147.522 128.045 146.183 127.963 144.61L128.589 144.577C128.66 145.927 129.441 147.06 130.523 147.581L130.25 148.146ZM130.942 147.435L130.669 148L130.104 147.728L130.377 147.163L130.942 147.435ZM129.216 144.545C129.275 145.672 129.925 146.597 130.795 147.017L130.523 147.581C129.441 147.06 128.66 145.927 128.589 144.577L129.216 144.545ZM131.697 141.554C130.282 141.628 129.131 142.93 129.216 144.545L128.589 144.577C128.489 142.655 129.866 141.022 131.664 140.928L131.697 141.554ZM133.12 141.918C132.698 141.661 132.21 141.527 131.697 141.554L131.664 140.928C132.31 140.894 132.922 141.063 133.446 141.382L133.12 141.918ZM133.877 141.277L133.551 141.813L133.015 141.487L133.341 140.951L133.877 141.277ZM127.21 146.152L126.599 141.173L127.221 141.096L127.833 146.076L127.21 146.152ZM126.597 141.154C126.432 138.47 127.461 136.269 129.193 134.828C130.921 133.391 133.328 132.726 135.9 133.064L135.819 133.685C133.4 133.368 131.173 133.997 129.594 135.31C128.02 136.619 127.07 138.625 127.223 141.115L126.597 141.154ZM135.9 133.064C138.69 133.429 140.502 134.61 141.771 136.405C143.025 138.178 143.736 140.533 144.382 143.218L143.772 143.365C143.126 140.679 142.437 138.432 141.259 136.767C140.097 135.123 138.445 134.03 135.819 133.685L135.9 133.064ZM144.382 143.218C145.027 145.902 145.15 147.955 144.34 149.375C143.512 150.826 141.787 151.503 139.078 151.645L139.045 151.018C141.706 150.879 143.135 150.221 143.795 149.064C144.472 147.878 144.418 146.051 143.772 143.365L144.382 143.218ZM139.078 151.645C138.173 151.692 137.002 151.465 136.08 151.237C135.615 151.121 135.204 151.003 134.909 150.914C134.761 150.869 134.643 150.832 134.561 150.805C134.52 150.792 134.488 150.782 134.466 150.774C134.455 150.771 134.447 150.768 134.441 150.766C134.438 150.765 134.436 150.764 134.434 150.764C134.434 150.764 134.433 150.763 134.433 150.763C134.432 150.763 134.432 150.763 134.432 150.763C134.432 150.763 134.432 150.763 134.432 150.763C134.432 150.763 134.432 150.763 134.532 150.466C134.633 150.169 134.633 150.169 134.633 150.169C134.633 150.169 134.633 150.169 134.633 150.169C134.633 150.169 134.633 150.169 134.633 150.169C134.634 150.169 134.634 150.169 134.635 150.17C134.636 150.17 134.638 150.171 134.64 150.171C134.645 150.173 134.653 150.176 134.663 150.179C134.683 150.186 134.714 150.196 134.753 150.208C134.832 150.234 134.947 150.27 135.091 150.314C135.378 150.401 135.778 150.516 136.231 150.628C137.147 150.855 138.24 151.061 139.045 151.018L139.078 151.645Z" fill="#372898"/>
<path fill-rule="evenodd" clip-rule="evenodd" d="M133.955 142.076L133.774 138.805L142.06 136.825C142.06 136.825 141.008 135.601 140.442 135.117C137.325 132.452 135.24 132.864 134.223 133.065C134.168 133.076 134.115 133.087 134.066 133.096C131.734 133.532 130.209 134.397 130.209 134.397C130.209 134.397 130.055 134.744 127.997 136.387C125.938 138.029 127.167 145.461 127.167 145.461L128.877 145.236L129.114 145.263C129.016 144.993 128.955 144.704 128.94 144.402C128.853 142.759 130.115 141.357 131.758 141.271C132.603 141.227 133.384 141.539 133.955 142.076Z" fill="#372898"/>
<path fill-rule="evenodd" clip-rule="evenodd" d="M134.166 149.813L135.122 156.696L135.624 156.688L136.693 150.867L134.166 149.813Z" fill="#372898"/>
<path fill-rule="evenodd" clip-rule="evenodd" d="M113.77 216.548L114.291 236.661C114.333 238.267 114.848 239.824 115.771 241.138L135.406 269.071L158.762 304.307L142.388 421.961L143.481 431.656H158.689L163.077 422.856L186.129 310.416C187.195 305.214 186.645 299.81 184.551 294.929L150.928 216.548H113.77Z" fill="white" stroke="#372898" stroke-width="0.627137" stroke-linecap="round"/>
<path fill-rule="evenodd" clip-rule="evenodd" d="M212.549 240.877L219.602 244.343C220.459 244.764 220.806 245.806 220.372 246.657C219.983 247.422 219.086 247.781 218.276 247.495L210.852 244.874L209.499 249.288C208.775 251.649 206.011 252.685 203.914 251.38L190.564 243.076L188.698 241.739L186.745 232.389L193.803 233.093C193.864 233.099 193.925 233.115 193.982 233.138L212.549 240.877Z" fill="white" stroke="#372898" stroke-width="0.627137" stroke-linecap="round"/>
<path fill-rule="evenodd" clip-rule="evenodd" d="M112.644 167.95C114.302 160.055 122.475 155.373 130.123 157.936L139.592 161.108C140.065 161.267 140.435 161.641 140.587 162.117L163.235 232.854L144.421 232.854L99.176 232.084L112.644 167.95Z" fill="#5554C3"/>
<mask id="mask1" mask-type="alpha" maskUnits="userSpaceOnUse" x="99" y="157" width="65" height="76">
<path fill-rule="evenodd" clip-rule="evenodd" d="M112.644 167.95C114.302 160.055 122.475 155.373 130.123 157.936L139.592 161.108C140.065 161.267 140.435 161.641 140.587 162.117L163.235 232.854L144.421 232.854L99.176 232.084L112.644 167.95Z" fill="white"/>
</mask>
<g mask="url(#mask1)">
<path fill-rule="evenodd" clip-rule="evenodd" d="M133.76 172.492L148.386 203.671L190.947 226.426L181.383 248.689C160.883 239.329 147.024 236.327 139.131 235.435C134.694 234.933 130.53 231.681 129.82 227.273C127.212 211.09 121.441 175.531 120.59 172.492" fill="#372898"/>
<path fill-rule="evenodd" clip-rule="evenodd" d="M126.145 146.834L123.515 160.486L111.209 157.574C111.209 157.574 114.385 151.612 113.008 147.753L126.145 146.834Z" fill="#372898"/>
</g>
<path fill-rule="evenodd" clip-rule="evenodd" d="M142.957 436.057L141.045 446.603V449.854H150.967H159.072H174.444C174.444 449.854 177.668 448.997 177.938 447.593C178.208 446.188 178.846 443.669 167.317 441.516C164.876 441.06 164.163 439.85 161.689 438.277C160.586 437.576 156.494 436.057 156.494 436.057C156.494 436.057 155.094 437.895 150.355 438.277C145.617 438.658 142.957 436.057 142.957 436.057Z" fill="#372898"/>
<path fill-rule="evenodd" clip-rule="evenodd" d="M47.7445 433.067C47.8277 433.933 47.133 434.648 46.2625 434.654L28.0314 434.789L14.6041 416.942L26.1237 410.331L34.5156 425.382C35.807 426.28 44.6696 426.994 45.9609 427.891C47.1363 428.708 47.5789 431.34 47.7445 433.067Z" fill="#372898"/>
<path fill-rule="evenodd" clip-rule="evenodd" d="M140.345 160.733L155.167 203.671L197.728 226.426L188.164 248.689C166.151 238.637 150.983 231.261 142.86 227.224C138.373 224.995 135.065 220.991 133.633 216.19C129.607 202.691 121.49 175.451 120.663 172.496L138.777 159.479" fill="#5554C3"/>
<path fill-rule="evenodd" clip-rule="evenodd" d="M325.35 300.114H341.656V321.893C341.656 322.508 341.15 323.005 340.523 323.005H326.483C325.856 323.005 325.35 322.508 325.35 321.893V300.114Z" fill="white" stroke="#372898" stroke-width="0.627137" stroke-linecap="round"/>
<path fill-rule="evenodd" clip-rule="evenodd" d="M303.087 267.817H282.078V368.545C282.078 370.583 283.081 372.235 284.305 372.235H303.087V267.817Z" fill="#5554C3"/>
<path fill-rule="evenodd" clip-rule="evenodd" d="M300.892 267.817H372.385V373.176C372.385 373.176 348.826 372.686 336.652 372.686C324.478 372.686 300.892 373.176 300.892 373.176V267.817Z" fill="#CAD9FF"/>
<mask id="mask2" mask-type="alpha" maskUnits="userSpaceOnUse" x="300" y="267" width="73" height="107">
<path fill-rule="evenodd" clip-rule="evenodd" d="M300.892 267.817H372.385V373.176C372.385 373.176 348.826 372.686 336.652 372.686C324.478 372.686 300.892 373.176 300.892 373.176V267.817Z" fill="white"/>
</mask>
<g mask="url(#mask2)">
<path d="M285.213 301.422C285.213 301.422 321.385 279.623 321.385 265.172C321.385 250.721 303.421 250.721 303.421 265.172C303.421 279.623 298.565 325.67 313.86 328.365C329.154 331.059 336.639 308.245 336.639 308.245" stroke="white" stroke-width="0.627137"/>
<path d="M387.437 315.169C387.437 315.169 351.004 337.535 351.004 351.988C351.004 366.441 368.899 366.441 368.899 351.988C368.899 337.535 373.735 291.481 358.501 288.787C343.266 286.092 336.012 309.854 336.012 309.854" stroke="white" stroke-width="0.627137"/>
</g>
<path fill-rule="evenodd" clip-rule="evenodd" d="M282.391 208.866H345.419L345.135 267.817H282.391V208.866Z" fill="white" stroke="#372898" stroke-width="0.627137" stroke-linecap="round"/>
<path fill-rule="evenodd" clip-rule="evenodd" d="M282.391 208.866H261.382L261.726 267.817H282.391V208.866Z" fill="white" stroke="#372898" stroke-width="0.627137" stroke-linecap="round"/>
<path fill-rule="evenodd" clip-rule="evenodd" d="M313.121 208.866H329.427V230.645C329.427 231.259 328.921 231.756 328.294 231.756H314.254C313.627 231.756 313.121 231.259 313.121 230.645V208.866Z" fill="white" stroke="#372898" stroke-width="0.627137" stroke-linecap="round"/>
<path fill-rule="evenodd" clip-rule="evenodd" d="M374.767 17.5894L380.098 28.4075L371.473 30.2689L368.464 18.877L374.767 17.5894Z" fill="white"/>
<path fill-rule="evenodd" clip-rule="evenodd" d="M381.72 29.4449C375.512 29.2306 371.195 35.5517 373.652 41.2561L387.13 72.5392L378.366 74.7442C377.673 74.9185 377.126 75.4492 376.931 76.1362C375.282 81.9365 380.223 87.4826 386.175 86.511L399.693 84.3041C403.85 83.6254 406.386 79.3573 404.994 75.3816L389.004 29.6964L381.72 29.4449Z" fill="white" stroke="#372898" stroke-width="0.627137" stroke-linecap="round"/>
<path fill-rule="evenodd" clip-rule="evenodd" d="M294.872 196.315L275.305 202.116L285.557 188.014L295.635 92.1768C296.533 83.6454 305.706 78.665 313.349 82.5595L363.277 107.999L316.257 112.413L294.872 196.315Z" fill="white" stroke="#372898" stroke-width="0.627137"/>
<rect x="309.672" y="80.2723" width="48.6031" height="4.70352" fill="white" stroke="#372898" stroke-width="0.627137" stroke-linecap="round"/>
<path fill-rule="evenodd" clip-rule="evenodd" d="M288.349 48.9155H336.168L344.948 84.9759H298.07L288.349 48.9155Z" fill="white" stroke="#372898" stroke-width="0.627137" stroke-linecap="round"/>
<path fill-rule="evenodd" clip-rule="evenodd" d="M291.406 51.2672H333.795L340.408 77.6069H298.854L291.406 51.2672Z" fill="#372898"/>
<path fill-rule="evenodd" clip-rule="evenodd" d="M296.815 80.2723H358.275V84.6623H297.904L296.815 80.2723Z" fill="white" stroke="#372898" stroke-width="0.627137" stroke-linecap="round"/>
<path fill-rule="evenodd" clip-rule="evenodd" d="M368.812 20.1066L370.996 28.2691L370.39 28.4312L368.206 20.2687L368.812 20.1066ZM381.668 27.5122L376.479 12.5529L377.072 12.3474L382.26 27.3067L381.668 27.5122Z" fill="white"/>
<path d="M370.996 28.2691L371.077 28.572L371.38 28.4909L371.299 28.188L370.996 28.2691ZM368.812 20.1066L369.114 20.0255L369.033 19.7226L368.73 19.8036L368.812 20.1066ZM370.39 28.4312L370.087 28.5123L370.168 28.8152L370.471 28.7341L370.39 28.4312ZM368.206 20.2687L368.125 19.9658L367.822 20.0469L367.903 20.3498L368.206 20.2687ZM376.479 12.5529L376.376 12.2566L376.08 12.3594L376.183 12.6556L376.479 12.5529ZM381.668 27.5122L381.371 27.615L381.474 27.9112L381.77 27.8085L381.668 27.5122ZM377.072 12.3474L377.368 12.2446L377.265 11.9484L376.969 12.0511L377.072 12.3474ZM382.26 27.3067L382.363 27.603L382.659 27.5002L382.556 27.204L382.26 27.3067ZM371.299 28.188L369.114 20.0255L368.509 20.1876L370.693 28.3501L371.299 28.188ZM370.471 28.7341L371.077 28.572L370.915 27.9662L370.309 28.1283L370.471 28.7341ZM367.903 20.3498L370.087 28.5123L370.693 28.3501L368.509 20.1876L367.903 20.3498ZM368.73 19.8036L368.125 19.9658L368.287 20.5716L368.893 20.4095L368.73 19.8036ZM376.183 12.6556L381.371 27.615L381.964 27.4095L376.775 12.4501L376.183 12.6556ZM376.969 12.0511L376.376 12.2566L376.582 12.8491L377.174 12.6436L376.969 12.0511ZM382.556 27.204L377.368 12.2446L376.775 12.4501L381.964 27.4095L382.556 27.204ZM381.77 27.8085L382.363 27.603L382.157 27.0105L381.565 27.216L381.77 27.8085Z" fill="#372898"/>
<path fill-rule="evenodd" clip-rule="evenodd" d="M325.98 79.7856C325.251 79.9234 324.528 79.5196 324.264 78.8263C324.118 78.4433 324.21 78.0102 324.499 77.7201L325.844 76.3721C326.534 75.6801 327.387 75.1747 328.316 74.8716C329.304 74.5496 330.637 74.0908 331.746 73.6232C334.692 72.3824 337.857 71.6228 341.031 71.9958L351.796 73.2606L358.028 74.1989L354.633 78.8351L347.228 79.608C344.45 79.8979 341.643 79.6973 338.935 79.0153L337.892 78.7527C337.892 78.7527 335.802 78.1056 334.137 78.3245C332.893 78.4881 328.247 79.3572 325.98 79.7856Z" fill="white" stroke="#372898" stroke-width="0.627137"/>
<path fill-rule="evenodd" clip-rule="evenodd" d="M326.939 101.167C326.317 101.255 325.743 100.822 325.656 100.2C325.568 99.5791 326.001 99.0046 326.623 98.9173C327.244 98.83 327.818 99.2629 327.906 99.8842C327.993 100.505 327.56 101.08 326.939 101.167Z" fill="white"/>
<path fill-rule="evenodd" clip-rule="evenodd" d="M323.189 101.694C322.567 101.782 321.993 101.349 321.906 100.727C321.818 100.106 322.251 99.5316 322.873 99.4443C323.494 99.357 324.068 99.7899 324.156 100.411C324.243 101.032 323.81 101.607 323.189 101.694Z" fill="white"/>
<path fill-rule="evenodd" clip-rule="evenodd" d="M319.439 102.221C318.818 102.309 318.243 101.876 318.156 101.254C318.069 100.633 318.502 100.059 319.123 99.9713C319.744 99.884 320.319 100.317 320.406 100.938C320.493 101.559 320.06 102.134 319.439 102.221Z" fill="white"/>
<path fill-rule="evenodd" clip-rule="evenodd" d="M370.822 21.7959L371.164 28.6847L370.791 28.1049L369.093 22.3275L370.822 21.7959Z" fill="#372898"/>
<path fill-rule="evenodd" clip-rule="evenodd" d="M340.745 191.306C340.745 191.306 344.975 194.948 340.745 198.205C337.984 200.331 333.307 203.772 324.627 206.044C324.443 206.092 320.864 204.006 320.864 204.006L328.046 191.306L286.675 102.315C282.915 94.2279 288.798 84.9661 297.716 84.9305L357.364 84.693C357.364 84.693 370.09 78.6853 380.364 77.6071C390.637 76.5288 388.36 80.2724 388.36 80.2724L387.623 103.222C387.422 109.481 382.289 114.451 376.027 114.451L317.981 114.451L340.745 191.306Z" fill="white" stroke="#372898" stroke-width="0.627137"/>
<path fill-rule="evenodd" clip-rule="evenodd" d="M298.257 85.1634L322.733 85.2096L357.473 85.0603L380.52 77.6914L389.789 80.3031L392.664 101.354C393.619 108.349 388.157 114.569 381.097 114.525L323.342 114.168L298.257 85.1634Z" fill="#89B922"/>
<path fill-rule="evenodd" clip-rule="evenodd" d="M389.788 36.2258C389.788 30.8899 384.923 26.8777 379.685 27.894C379.418 27.9457 379.147 27.9718 378.876 27.9717L364.704 27.9697L379.232 69.9224L376.187 77.9553L389.788 84.4141L389.788 36.2258Z" fill="#89B922"/>
<path fill-rule="evenodd" clip-rule="evenodd" d="M363.769 27.2284C361.281 27.068 359.202 29.0974 359.302 31.5883L361.025 74.3156L352.157 73.2459C351.383 73.1525 350.618 73.4794 350.15 74.1033C346.404 79.097 348.765 86.2941 354.741 88.099L369.957 92.6949C375.272 94.3003 380.577 90.1638 380.315 84.6176L378.304 42.0162C377.931 34.1052 371.672 27.738 363.769 27.2284Z" fill="white" stroke="#372898" stroke-width="0.627137" stroke-linecap="round"/>
<path fill-rule="evenodd" clip-rule="evenodd" d="M404.997 114.451L345.105 114.482L345.449 209.18L404.997 114.451Z" fill="white" stroke="#372898" stroke-width="0.627137" stroke-linecap="round"/>
<path fill-rule="evenodd" clip-rule="evenodd" d="M265.71 204.244C263.878 204.897 263.151 207.1 264.234 208.714L285.688 208.759C286.369 208.76 287.022 208.484 287.496 207.994L292.814 202.496L292.14 208.599L298.843 208.482L297.599 193.037C297.521 192.075 296.709 191.338 295.743 191.355C295.743 191.355 285.288 197.63 279.655 200.226C274.022 202.823 276.844 200.275 276.844 200.275L265.71 204.244Z" fill="#372898"/>
<path fill-rule="evenodd" clip-rule="evenodd" d="M312.289 204.25C310.461 204.901 309.729 207.095 310.799 208.714L332.283 208.759C332.965 208.76 333.617 208.484 334.091 207.994L339.409 202.496L338.735 208.599L345.438 208.482L344.194 193.037C344.116 192.075 343.304 191.338 342.338 191.355C342.338 191.355 331.883 197.63 326.25 200.226C320.617 202.823 323.44 200.275 323.44 200.275L312.289 204.25Z" fill="#372898"/>
<path fill-rule="evenodd" clip-rule="evenodd" d="M377.231 14.2316L376.103 9.34312C374.633 4.37239 369.505 2.78989 365.039 5.11196C360.193 7.63211 360.015 10.763 360.639 16.2509C361.262 21.7388 363.1 24.2739 368.242 22.7017C369.88 22.2011 372.132 20.7189 372.132 20.7189" fill="white"/>
<path d="M377.231 14.2316L376.103 9.34312C374.633 4.37239 369.505 2.78989 365.039 5.11196C360.193 7.63211 360.015 10.763 360.639 16.2509C361.262 21.7388 363.1 24.2739 368.242 22.7017C369.88 22.2011 372.132 20.7189 372.132 20.7189" stroke="#372898" stroke-width="0.627136" stroke-linecap="round"/>
<path fill-rule="evenodd" clip-rule="evenodd" d="M369.876 11.6154C370.297 11.0892 370.867 10.6832 371.548 10.4748C373.455 9.89196 375.47 11.0744 376.077 13.0611C376.505 14.4602 376.133 15.9112 375.213 16.8557L374.763 16.4181C375.52 15.6418 375.84 14.4303 375.478 13.2444C374.96 11.5511 373.27 10.6042 371.731 11.0746C371.177 11.2441 370.712 11.5744 370.366 12.007L369.876 11.6154ZM377.306 14.2316L376.178 9.34312C374.708 4.37239 369.58 2.78989 365.114 5.11196C360.267 7.63211 360.09 10.763 360.713 16.2509C361.337 21.7388 363.175 24.2739 368.317 22.7017C369.955 22.2011 372.207 20.7189 372.207 20.7189" fill="white"/>
<path d="M369.876 11.6154L369.631 11.4195L369.435 11.6644L369.68 11.8602L369.876 11.6154ZM375.213 16.8557L374.994 17.0803L375.218 17.2991L375.437 17.0745L375.213 16.8557ZM374.763 16.4181L374.539 16.1992L374.32 16.4238L374.545 16.6427L374.763 16.4181ZM370.366 12.007L370.17 12.2519L370.415 12.4478L370.611 12.2029L370.366 12.007ZM377.001 14.3022C377.04 14.4709 377.208 14.5761 377.377 14.5372C377.546 14.4982 377.651 14.3298 377.612 14.1611L377.001 14.3022ZM376.178 9.34312L376.483 9.27259L376.481 9.26334L376.479 9.25423L376.178 9.34312ZM365.114 5.11196L364.97 4.83375L365.114 5.11196ZM372.379 20.9808C372.524 20.8856 372.564 20.6912 372.469 20.5465C372.374 20.4019 372.179 20.3618 372.034 20.457L372.379 20.9808ZM371.456 10.175C370.711 10.4027 370.089 10.8466 369.631 11.4195L370.121 11.8112C370.504 11.3318 371.022 10.9637 371.64 10.7747L371.456 10.175ZM376.377 12.9694C375.725 10.8365 373.547 9.53572 371.456 10.175L371.64 10.7747C373.362 10.2482 375.215 11.3123 375.777 13.1528L376.377 12.9694ZM375.437 17.0745C376.439 16.0459 376.837 14.4751 376.377 12.9694L375.777 13.1528C376.173 14.4453 375.826 15.7765 374.988 16.6369L375.437 17.0745ZM374.545 16.6427L374.994 17.0803L375.431 16.6311L374.982 16.1935L374.545 16.6427ZM375.178 13.3361C375.508 14.4154 375.213 15.5071 374.539 16.1992L374.988 16.6369C375.826 15.7765 376.173 14.4453 375.777 13.1528L375.178 13.3361ZM371.823 11.3745C373.178 10.9601 374.705 11.7901 375.178 13.3361L375.777 13.1528C375.215 11.3122 373.362 10.2482 371.64 10.7747L371.823 11.3745ZM370.611 12.2029C370.919 11.817 371.332 11.5246 371.823 11.3745L371.64 10.7747C371.022 10.9637 370.504 11.3318 370.121 11.8112L370.611 12.2029ZM369.68 11.8602L370.17 12.2519L370.562 11.7622L370.072 11.3705L369.68 11.8602ZM377.612 14.1611L376.483 9.27259L375.872 9.41366L377.001 14.3022L377.612 14.1611ZM376.479 9.25423C375.716 6.67559 373.996 4.959 371.876 4.19762C369.761 3.43819 367.271 3.63697 364.97 4.83375L365.259 5.39017C367.423 4.26488 369.731 4.09387 371.664 4.78786C373.591 5.47989 375.17 7.03992 375.877 9.43202L376.479 9.25423ZM364.97 4.83375C362.495 6.12026 361.168 7.58905 360.564 9.47274C359.969 11.3287 360.091 13.5471 360.402 16.2863L361.025 16.2155C360.713 13.4669 360.612 11.3758 361.161 9.66433C361.701 7.98055 362.886 6.62381 365.259 5.39017L364.97 4.83375ZM360.402 16.2863C360.714 19.0365 361.337 21.1446 362.605 22.351C363.904 23.5879 365.79 23.8022 368.409 23.0016L368.226 22.4019C365.702 23.1735 364.098 22.9062 363.037 21.8967C361.944 20.8566 361.336 18.9532 361.025 16.2155L360.402 16.2863ZM368.409 23.0016C369.262 22.7408 370.259 22.2308 371.03 21.7957C371.419 21.5765 371.755 21.3733 371.995 21.2248C372.114 21.1505 372.21 21.0899 372.276 21.0476C372.309 21.0265 372.335 21.0099 372.352 20.9986C372.361 20.993 372.367 20.9886 372.372 20.9856C372.374 20.9841 372.376 20.983 372.377 20.9822C372.378 20.9818 372.378 20.9815 372.379 20.9812C372.379 20.9811 372.379 20.981 372.379 20.981C372.379 20.9809 372.379 20.9809 372.379 20.9809C372.379 20.9809 372.379 20.9808 372.207 20.7189C372.034 20.457 372.035 20.457 372.035 20.457C372.034 20.457 372.034 20.457 372.034 20.457C372.034 20.457 372.034 20.4571 372.034 20.4571C372.034 20.4573 372.034 20.4575 372.033 20.4578C372.032 20.4585 372.031 20.4594 372.029 20.4608C372.025 20.4634 372.019 20.4674 372.01 20.4728C371.994 20.4834 371.97 20.4992 371.938 20.5196C371.874 20.5603 371.781 20.6193 371.664 20.6918C371.43 20.8369 371.101 21.0355 370.722 21.2495C369.958 21.6806 369.01 22.162 368.226 22.4019L368.409 23.0016Z" fill="#372898"/>
<path fill-rule="evenodd" clip-rule="evenodd" d="M371.771 10.4799C372.255 10.3697 373.287 10.7735 373.287 10.7735C373.287 10.7735 375.807 12.2094 376.171 13.8645C376.011 14.3389 375.817 14.8991 375.629 15.402C375.592 15.4582 375.555 15.5136 375.52 15.5679C375.328 15.8693 375.181 16.1774 375.089 16.3905C375.078 16.3876 375.067 16.3846 375.055 16.3814C374.966 16.357 374.859 16.3279 374.768 16.3697C374.336 16.5665 373.605 17.8023 373.554 18.0944C372.729 22.7979 379.669 32.9889 384.843 34.5567C387.823 35.4599 388.762 27.9718 381.864 17.4672C381.116 16.3294 378.668 14.3815 377.365 13.3873L375.991 8.9941C375.634 7.85348 375.033 6.79525 374.116 6.02835C373.023 5.11313 371.443 4.01509 370.118 3.96803C368.454 3.90895 365.061 3.93585 363.336 3.95488C362.662 3.96233 362.026 4.2584 361.582 4.76672C359.768 6.84856 360.742 10.0971 363.436 10.7065C366.108 11.3113 368.917 11.8164 369.926 11.5494C370.045 11.518 370.227 11.382 370.45 11.2157C370.814 10.9435 371.287 10.59 371.771 10.4799Z" fill="#372898"/>
<path fill-rule="evenodd" clip-rule="evenodd" d="M361.097 72.59V77.2935V72.59Z" fill="white"/>
<path d="M361.097 72.59V77.2935" stroke="#372898" stroke-width="0.627137" stroke-linecap="round"/>
<path fill-rule="evenodd" clip-rule="evenodd" d="M404.996 114.451H305.702H404.996Z" fill="white"/>
<path d="M404.996 114.451H305.702" stroke="#372898" stroke-width="0.627137" stroke-linecap="round"/>
<path fill-rule="evenodd" clip-rule="evenodd" d="M353.885 418.33H338.477L330.367 426.169H345.775L353.885 418.33Z" fill="white" stroke="#372898" stroke-width="0.627137" stroke-linecap="round"/>
<path fill-rule="evenodd" clip-rule="evenodd" d="M325.037 436.517C325.037 443.963 331.073 450 338.52 450C345.967 450 352.003 443.963 352.003 436.517C352.003 429.07 345.967 423.033 338.52 423.033C331.073 423.033 325.037 429.07 325.037 436.517Z" fill="#5554C3"/>
<path fill-rule="evenodd" clip-rule="evenodd" d="M330.681 436.36C330.681 440.603 334.12 444.042 338.363 444.042C342.606 444.042 346.046 440.603 346.046 436.36C346.046 432.117 342.606 428.677 338.363 428.677C334.12 428.677 330.681 432.117 330.681 436.36Z" fill="white" stroke="#372898" stroke-width="0.627137" stroke-linecap="round"/>
<path fill-rule="evenodd" clip-rule="evenodd" d="M334.757 436.203C334.757 438.281 336.442 439.966 338.52 439.966C340.598 439.966 342.283 438.281 342.283 436.203C342.283 434.125 340.598 432.44 338.52 432.44C336.442 432.44 334.757 434.125 334.757 436.203Z" fill="white" stroke="#372898" stroke-width="0.627137" stroke-linecap="round"/>
<path fill-rule="evenodd" clip-rule="evenodd" d="M276.747 418.643H262.162L254.17 427.737H268.755L276.747 418.643Z" fill="white" stroke="#372898" stroke-width="0.627137" stroke-linecap="round"/>
<path fill-rule="evenodd" clip-rule="evenodd" d="M248.212 436.517C248.212 443.963 254.249 450 261.696 450C269.142 450 275.179 443.963 275.179 436.517C275.179 429.07 269.142 423.033 261.696 423.033C254.249 423.033 248.212 429.07 248.212 436.517Z" fill="#5554C3"/>
<path fill-rule="evenodd" clip-rule="evenodd" d="M254.17 436.36C254.17 440.603 257.61 444.042 261.852 444.042C266.095 444.042 269.535 440.603 269.535 436.36C269.535 432.117 266.095 428.677 261.852 428.677C257.61 428.677 254.17 432.117 254.17 436.36Z" fill="white" stroke="#372898" stroke-width="0.627137" stroke-linecap="round"/>
<path fill-rule="evenodd" clip-rule="evenodd" d="M258.247 436.203C258.247 438.281 259.931 439.966 262.009 439.966C264.088 439.966 265.772 438.281 265.772 436.203C265.772 434.125 264.088 432.44 262.009 432.44C259.931 432.44 258.247 434.125 258.247 436.203Z" fill="white" stroke="#372898" stroke-width="0.627137" stroke-linecap="round"/>
<path fill-rule="evenodd" clip-rule="evenodd" d="M228.645 254.333L243.736 263.921L246.999 287.191H400.233C400.233 287.426 400.216 287.658 400.184 287.884L400.293 287.885L375.991 373.803L375.851 373.801C375.496 374.647 374.908 375.371 374.168 375.894L373.827 376.782H365.165L256.132 376.802V376.782H256.082L235.073 388.541L234.602 413.94H362.225V418.643H229.899L230.84 386.502L254.974 371.686L239.935 264.456L226.293 255.901L228.645 254.333ZM258.883 371.922L255.946 350.984L291.331 350.365L289.449 371.922H258.883ZM255.408 347.147L251.1 316.427L294.36 315.671L291.667 346.513L255.408 347.147ZM250.561 312.59L247.681 292.049H296.423L294.697 311.818L250.561 312.59ZM295.19 350.298L293.302 371.922H319.952L321.881 349.831L295.19 350.298ZM298.219 315.603L295.526 346.445L322.217 345.978L324.91 315.136L298.219 315.603ZM300.276 292.049L298.555 311.75L325.247 311.284L326.926 292.049H300.276ZM330.779 292.049H363.758L362.134 310.638L329.106 311.216L330.779 292.049ZM328.769 315.069L361.798 314.491L359.104 345.333L326.076 345.911L328.769 315.069ZM325.74 349.764L358.768 349.186L356.782 371.922H323.805L325.74 349.764ZM390.176 310.148L395.356 292.049H367.611L365.993 310.571L390.176 310.148ZM380.21 344.964L389.069 314.014L365.657 314.424L362.963 345.266L380.21 344.964ZM372.622 371.478L379.104 348.83L362.627 349.118L360.635 371.922H371.945L372.622 371.478Z" fill="white"/>
<path d="M243.736 263.921L243.904 263.656L244.026 263.734L244.046 263.877L243.736 263.921ZM228.645 254.333L228.471 254.073L228.64 253.959L228.813 254.069L228.645 254.333ZM246.999 287.191V287.504H246.727L246.689 287.234L246.999 287.191ZM400.233 287.191V286.877H400.546V287.191H400.233ZM400.184 287.884L400.18 288.198L399.823 288.194L399.873 287.84L400.184 287.884ZM400.293 287.885L400.296 287.572L400.706 287.576L400.595 287.971L400.293 287.885ZM375.991 373.803L376.293 373.888L376.228 374.119L375.988 374.116L375.991 373.803ZM375.851 373.801L375.562 373.68L375.644 373.486L375.855 373.488L375.851 373.801ZM374.168 375.894L373.876 375.781L373.91 375.692L373.987 375.638L374.168 375.894ZM373.827 376.782L374.119 376.894L374.042 377.095H373.827V376.782ZM365.165 376.782L365.165 376.468H365.165V376.782ZM256.132 376.802L256.132 377.116L255.818 377.116V376.802H256.132ZM256.132 376.782V376.468H256.446V376.782H256.132ZM256.082 376.782L255.929 376.508L256 376.468H256.082V376.782ZM235.073 388.541L234.759 388.535L234.763 388.355L234.92 388.267L235.073 388.541ZM234.602 413.94V414.253H234.283L234.289 413.934L234.602 413.94ZM362.225 413.94V413.626H362.538V413.94H362.225ZM362.225 418.643H362.538V418.957H362.225V418.643ZM229.899 418.643V418.957H229.576L229.585 418.634L229.899 418.643ZM230.84 386.502L230.526 386.493L230.531 386.324L230.676 386.235L230.84 386.502ZM254.974 371.686L255.284 371.642L255.313 371.846L255.138 371.953L254.974 371.686ZM239.935 264.456L240.101 264.19L240.225 264.268L240.245 264.412L239.935 264.456ZM226.293 255.901L226.126 256.167L225.715 255.909L226.119 255.64L226.293 255.901ZM258.883 371.922V372.235H258.61L258.572 371.965L258.883 371.922ZM255.946 350.984L255.636 351.028L255.587 350.677L255.941 350.671L255.946 350.984ZM291.331 350.365L291.325 350.052L291.674 350.046L291.643 350.393L291.331 350.365ZM289.449 371.922L289.761 371.949L289.736 372.235H289.449V371.922ZM255.408 347.147L255.414 347.461L255.136 347.465L255.098 347.191L255.408 347.147ZM251.1 316.427L250.789 316.471L250.74 316.12L251.094 316.114L251.1 316.427ZM294.36 315.671L294.355 315.357L294.703 315.351L294.673 315.698L294.36 315.671ZM291.667 346.513L291.98 346.54L291.955 346.821L291.673 346.826L291.667 346.513ZM250.561 312.59L250.567 312.903L250.29 312.908L250.251 312.633L250.561 312.59ZM247.681 292.049L247.37 292.092L247.32 291.735H247.681V292.049ZM296.423 292.049V291.735H296.765L296.735 292.076L296.423 292.049ZM294.697 311.818L295.009 311.845L294.984 312.127L294.702 312.131L294.697 311.818ZM293.302 371.922V372.235H292.96L292.989 371.894L293.302 371.922ZM295.19 350.298L294.877 350.271L294.902 349.989L295.184 349.984L295.19 350.298ZM319.952 371.922L320.264 371.949L320.239 372.235H319.952V371.922ZM321.881 349.831L321.875 349.518L322.224 349.511L322.193 349.858L321.881 349.831ZM295.526 346.445L295.532 346.759L295.183 346.765L295.214 346.418L295.526 346.445ZM298.219 315.603L297.907 315.576L297.931 315.295L298.213 315.29L298.219 315.603ZM322.217 345.978L322.53 346.006L322.505 346.287L322.223 346.292L322.217 345.978ZM324.91 315.136L324.905 314.823L325.253 314.817L325.223 315.164L324.91 315.136ZM298.555 311.75L298.561 312.064L298.213 312.07L298.243 311.723L298.555 311.75ZM300.276 292.049L299.963 292.022L299.988 291.735H300.276V292.049ZM325.247 311.284L325.559 311.311L325.535 311.592L325.252 311.597L325.247 311.284ZM326.926 292.049V291.735H327.269L327.239 292.076L326.926 292.049ZM363.758 292.049V291.735H364.1L364.07 292.076L363.758 292.049ZM330.779 292.049L330.467 292.022L330.492 291.735H330.779V292.049ZM362.134 310.638L362.447 310.666L362.422 310.947L362.14 310.952L362.134 310.638ZM329.106 311.216L329.111 311.53L328.763 311.536L328.793 311.189L329.106 311.216ZM361.798 314.491L361.792 314.178L362.14 314.171L362.11 314.518L361.798 314.491ZM328.769 315.069L328.457 315.041L328.481 314.76L328.764 314.755L328.769 315.069ZM359.104 345.333L359.417 345.36L359.392 345.642L359.11 345.647L359.104 345.333ZM326.076 345.911L326.082 346.224L325.733 346.231L325.764 345.884L326.076 345.911ZM358.768 349.186L358.762 348.872L359.111 348.866L359.08 349.213L358.768 349.186ZM325.74 349.764L325.427 349.736L325.452 349.455L325.734 349.45L325.74 349.764ZM356.782 371.922L357.095 371.949L357.07 372.235H356.782V371.922ZM323.805 371.922V372.235H323.463L323.493 371.894L323.805 371.922ZM395.356 292.049V291.735H395.772L395.657 292.135L395.356 292.049ZM390.176 310.148L390.477 310.234L390.413 310.457L390.181 310.461L390.176 310.148ZM367.611 292.049L367.298 292.022L367.323 291.735H367.611V292.049ZM365.993 310.571L365.999 310.884L365.65 310.891L365.681 310.544L365.993 310.571ZM389.069 314.014L389.064 313.701L389.487 313.693L389.37 314.1L389.069 314.014ZM380.21 344.964L380.512 345.05L380.448 345.273L380.216 345.278L380.21 344.964ZM365.657 314.424L365.344 314.396L365.369 314.115L365.651 314.11L365.657 314.424ZM362.963 345.266L362.969 345.579L362.621 345.585L362.651 345.238L362.963 345.266ZM379.104 348.83L379.098 348.517L379.522 348.509L379.405 348.916L379.104 348.83ZM372.622 371.478L372.923 371.564L372.891 371.676L372.794 371.74L372.622 371.478ZM362.627 349.118L362.314 349.091L362.339 348.81L362.621 348.805L362.627 349.118ZM360.635 371.922V372.235H360.293L360.323 371.894L360.635 371.922ZM371.945 371.922L372.117 372.184L372.039 372.235H371.945V371.922ZM243.567 264.185L228.476 254.598L228.813 254.069L243.904 263.656L243.567 264.185ZM246.689 287.234L243.425 263.964L244.046 263.877L247.31 287.147L246.689 287.234ZM400.233 287.504H246.999V286.877H400.233V287.504ZM399.873 287.84C399.904 287.628 399.919 287.411 399.919 287.191H400.546C400.546 287.441 400.529 287.687 400.494 287.928L399.873 287.84ZM400.289 288.199L400.18 288.198L400.187 287.57L400.296 287.572L400.289 288.199ZM375.69 373.718L399.991 287.8L400.595 287.971L376.293 373.888L375.69 373.718ZM375.855 373.488L375.995 373.489L375.988 374.116L375.848 374.115L375.855 373.488ZM373.987 375.638C374.68 375.149 375.23 374.471 375.562 373.68L376.14 373.923C375.762 374.823 375.137 375.594 374.349 376.15L373.987 375.638ZM373.534 376.669L373.876 375.781L374.461 376.006L374.119 376.894L373.534 376.669ZM365.165 376.468H373.827V377.095H365.165V376.468ZM256.132 376.489L365.165 376.468L365.165 377.095L256.132 377.116L256.132 376.489ZM256.446 376.782V376.802H255.818V376.782H256.446ZM256.082 376.468H256.132V377.095H256.082V376.468ZM234.92 388.267L255.929 376.508L256.235 377.055L235.226 388.814L234.92 388.267ZM234.289 413.934L234.759 388.535L235.386 388.546L234.916 413.945L234.289 413.934ZM362.225 414.253H234.602V413.626H362.225V414.253ZM361.911 418.643V413.94H362.538V418.643H361.911ZM229.899 418.33H362.225V418.957H229.899V418.33ZM231.153 386.512L230.212 418.652L229.585 418.634L230.526 386.493L231.153 386.512ZM255.138 371.953L231.004 386.77L230.676 386.235L254.81 371.419L255.138 371.953ZM240.245 264.412L255.284 371.642L254.663 371.729L239.624 264.499L240.245 264.412ZM226.459 255.636L240.101 264.19L239.768 264.721L226.126 256.167L226.459 255.636ZM228.819 254.594L226.467 256.162L226.119 255.64L228.471 254.073L228.819 254.594ZM258.572 371.965L255.636 351.028L256.257 350.941L259.193 371.878L258.572 371.965ZM255.941 350.671L291.325 350.052L291.336 350.679L255.952 351.298L255.941 350.671ZM291.643 350.393L289.761 371.949L289.136 371.894L291.019 350.338L291.643 350.393ZM289.449 372.235H258.883V371.608H289.449V372.235ZM255.098 347.191L250.789 316.471L251.41 316.384L255.719 347.103L255.098 347.191ZM251.094 316.114L294.355 315.357L294.366 315.984L251.105 316.741L251.094 316.114ZM294.673 315.698L291.98 346.54L291.355 346.486L294.048 315.643L294.673 315.698ZM291.673 346.826L255.414 347.461L255.403 346.833L291.662 346.199L291.673 346.826ZM250.251 312.633L247.37 292.092L247.991 292.005L250.872 312.546L250.251 312.633ZM247.681 291.735H296.423V292.362H247.681V291.735ZM296.735 292.076L295.009 311.845L294.384 311.791L296.11 292.022L296.735 292.076ZM294.702 312.131L250.567 312.903L250.556 312.276L294.691 311.504L294.702 312.131ZM292.989 371.894L294.877 350.271L295.502 350.325L293.614 371.949L292.989 371.894ZM319.952 372.235H293.302V371.608H319.952V372.235ZM322.193 349.858L320.264 371.949L319.64 371.894L321.569 349.804L322.193 349.858ZM295.184 349.984L321.875 349.518L321.886 350.145L295.195 350.611L295.184 349.984ZM295.214 346.418L297.907 315.576L298.531 315.63L295.838 346.473L295.214 346.418ZM322.223 346.292L295.532 346.759L295.521 346.132L322.212 345.665L322.223 346.292ZM325.223 315.164L322.53 346.006L321.905 345.951L324.598 315.109L325.223 315.164ZM298.213 315.29L324.905 314.823L324.916 315.45L298.224 315.917L298.213 315.29ZM298.243 311.723L299.963 292.022L300.588 292.076L298.868 311.778L298.243 311.723ZM325.252 311.597L298.561 312.064L298.55 311.437L325.241 310.97L325.252 311.597ZM327.239 292.076L325.559 311.311L324.934 311.256L326.614 292.022L327.239 292.076ZM300.276 291.735H326.926V292.362H300.276V291.735ZM363.758 292.362H330.779V291.735H363.758V292.362ZM361.822 310.611L363.445 292.022L364.07 292.076L362.447 310.666L361.822 310.611ZM329.1 310.903L362.129 310.325L362.14 310.952L329.111 311.53L329.1 310.903ZM331.092 292.076L329.418 311.243L328.793 311.189L330.467 292.022L331.092 292.076ZM361.803 314.805L328.775 315.382L328.764 314.755L361.792 314.178L361.803 314.805ZM358.792 345.306L361.485 314.464L362.11 314.518L359.417 345.36L358.792 345.306ZM326.071 345.597L359.099 345.02L359.11 345.647L326.082 346.224L326.071 345.597ZM329.082 315.096L326.388 345.938L325.764 345.884L328.457 315.041L329.082 315.096ZM358.773 349.499L325.745 350.077L325.734 349.45L358.762 348.872L358.773 349.499ZM356.47 371.894L358.456 349.159L359.08 349.213L357.095 371.949L356.47 371.894ZM323.805 371.608H356.782V372.235H323.805V371.608ZM326.052 349.791L324.117 371.949L323.493 371.894L325.427 349.736L326.052 349.791ZM395.657 292.135L390.477 310.234L389.874 310.062L395.054 291.963L395.657 292.135ZM367.611 291.735H395.356V292.362H367.611V291.735ZM365.681 310.544L367.298 292.022L367.923 292.076L366.305 310.598L365.681 310.544ZM390.181 310.461L365.999 310.884L365.988 310.257L390.17 309.834L390.181 310.461ZM389.37 314.1L380.512 345.05L379.909 344.878L388.768 313.928L389.37 314.1ZM365.651 314.11L389.064 313.701L389.074 314.328L365.662 314.737L365.651 314.11ZM362.651 345.238L365.344 314.396L365.969 314.451L363.276 345.293L362.651 345.238ZM380.216 345.278L362.969 345.579L362.958 344.952L380.205 344.651L380.216 345.278ZM379.405 348.916L372.923 371.564L372.32 371.391L378.802 348.744L379.405 348.916ZM362.621 348.805L379.098 348.517L379.109 349.144L362.632 349.432L362.621 348.805ZM360.323 371.894L362.314 349.091L362.939 349.146L360.948 371.949L360.323 371.894ZM371.945 372.235H360.635V371.608H371.945V372.235ZM372.794 371.74L372.117 372.184L371.773 371.659L372.45 371.216L372.794 371.74Z" fill="#372898"/>
<rect x="393.081" y="181.272" width="61.7729" height="61.7729" rx="15.3648" fill="white" stroke="#372898" stroke-width="0.627137" stroke-linecap="round"/>
<path fill-rule="evenodd" clip-rule="evenodd" d="M421.523 201.968C421.523 201.968 420.87 194.128 425.296 194.128C428.955 194.128 429.328 199.186 429.328 201.968" fill="white"/>
<path d="M421.523 201.968C421.523 201.968 420.87 194.128 425.296 194.128C428.955 194.128 429.328 199.186 429.328 201.968" stroke="#372898" stroke-width="0.627137" stroke-linecap="round"/>
<path fill-rule="evenodd" clip-rule="evenodd" d="M416.282 201.34H434.319L437.795 222.977H413.023L416.282 201.34Z" fill="white" stroke="#372898" stroke-width="0.627137" stroke-linecap="round"/>
<path fill-rule="evenodd" clip-rule="evenodd" d="M419.954 202.595C419.954 202.595 419.311 194.755 423.727 194.755C427.397 194.755 427.76 199.813 427.76 202.595" fill="white"/>
<path d="M419.954 202.595C419.954 202.595 419.311 194.755 423.727 194.755C427.397 194.755 427.76 199.813 427.76 202.595" stroke="#372898" stroke-width="0.627137" stroke-linecap="round"/>
<path fill-rule="evenodd" clip-rule="evenodd" d="M414.715 201.967H432.751L436.227 223.604H411.455L414.715 201.967Z" fill="white" stroke="#372898" stroke-width="0.627137" stroke-linecap="round"/>
<path fill-rule="evenodd" clip-rule="evenodd" d="M455.637 199.485L448.688 195.816C447.843 195.37 446.797 195.702 446.363 196.553C445.973 197.318 446.21 198.254 446.917 198.741L453.401 203.207L450.625 206.896C449.141 208.87 449.927 211.714 452.216 212.644L466.781 218.564L474.468 222.87L479.342 213.883L472.891 210.006L455.637 199.485Z" fill="white" stroke="#372898" stroke-width="0.627137" stroke-linecap="round"/>
<path fill-rule="evenodd" clip-rule="evenodd" d="M506.062 167.789L507.215 173.611L513.167 174.029L518.815 173.814L515.561 162.624L506.062 167.789Z" fill="white"/>
<path fill-rule="evenodd" clip-rule="evenodd" d="M140.345 160.733L139.263 159.143C138.225 157.616 136.809 156.385 135.152 155.571L120.142 148.189C119.091 147.672 117.943 147.297 116.786 147.48C115.396 147.701 113.692 148.407 113.692 150.542C113.692 154.148 123.255 160.733 123.255 160.733H140.345Z" fill="#5554C3"/>
<path fill-rule="evenodd" clip-rule="evenodd" d="M527.614 173.813C529.887 173.709 532.07 174.712 533.471 176.506L557.995 207.9C561.056 211.819 560.096 217.52 555.92 220.221L500.665 255.958L501.606 240.437L543.467 212.529L522.369 185.113C518.905 180.612 521.94 174.073 527.614 173.813Z" fill="white" stroke="#372898" stroke-width="0.627137" stroke-linecap="round"/>
<path fill-rule="evenodd" clip-rule="evenodd" d="M505.212 392.303C502.728 422.86 497.67 439.704 493.198 442.71C488.726 445.715 495.682 442.459 514.067 432.942L518.539 392.367C518.539 392.367 507.697 361.747 505.212 392.303Z" fill="white" stroke="#372898" stroke-width="0.627137"/>
<path fill-rule="evenodd" clip-rule="evenodd" d="M442.655 392.303C430.583 421.465 423.041 439.704 418.569 442.71C414.097 445.716 421.367 442.46 439.751 432.942L459.588 392.303H442.655Z" fill="white" stroke="#372898" stroke-width="0.627137"/>
<path fill-rule="evenodd" clip-rule="evenodd" d="M500.665 230.345C500.665 230.345 474.418 290.753 463.194 320.653C451.97 350.554 430.269 421.465 430.269 421.465H445.791C445.791 421.465 475.373 387.547 490.788 353.891C506.203 320.236 519.009 261.609 519.009 261.609L499.568 426.169H515.09C515.09 426.169 531.764 397.534 538.921 360.79C545.03 329.421 545.507 268.653 545.516 251.546C545.518 248.494 544.909 245.514 543.748 242.693L533.12 216.862L504.742 218.116L500.665 230.345Z" fill="#5554C3"/>
<mask id="mask3" mask-type="alpha" maskUnits="userSpaceOnUse" x="430" y="216" width="116" height="211">
<path fill-rule="evenodd" clip-rule="evenodd" d="M500.665 230.345C500.665 230.345 474.418 290.753 463.194 320.653C451.97 350.554 430.269 421.465 430.269 421.465H445.791C445.791 421.465 475.373 387.547 490.788 353.891C506.203 320.236 519.009 261.609 519.009 261.609L499.568 426.169H515.09C515.09 426.169 531.764 397.534 538.921 360.79C545.03 329.421 545.507 268.653 545.516 251.546C545.518 248.494 544.909 245.514 543.748 242.693L533.12 216.862L504.742 218.116L500.665 230.345Z" fill="white"/>
</mask>
<g mask="url(#mask3)">
<path fill-rule="evenodd" clip-rule="evenodd" d="M519.009 261.546L514.965 278.574L549.253 268.917L552.404 257.783L519.009 261.546Z" fill="#372898"/>
</g>
<path fill-rule="evenodd" clip-rule="evenodd" d="M530.07 184.372C528.664 175.98 519.803 171.089 511.953 174.374L504.837 175.597L504.898 181.586L502.459 217.318C502.413 217.992 502.258 218.655 502.001 219.28L491.885 243.829L545.505 240.38L535.757 217.289C535.567 216.839 535.43 216.368 535.35 215.886L530.07 184.372Z" fill="white" stroke="#372898" stroke-width="0.627137" stroke-linecap="round"/>
<path fill-rule="evenodd" clip-rule="evenodd" d="M506.455 166.982L508.029 175.471L507.412 175.585L505.838 167.096L506.455 166.982ZM518.71 173.526L515.305 162.644L515.903 162.457L519.308 173.339L518.71 173.526Z" fill="white"/>
<path d="M508.029 175.471L508.086 175.779L508.394 175.722L508.337 175.414L508.029 175.471ZM506.455 166.982L506.763 166.925L506.706 166.617L506.398 166.674L506.455 166.982ZM507.412 175.585L507.104 175.642L507.161 175.951L507.469 175.894L507.412 175.585ZM505.838 167.096L505.781 166.788L505.473 166.845L505.53 167.154L505.838 167.096ZM515.305 162.644L515.211 162.345L514.912 162.439L515.006 162.738L515.305 162.644ZM518.71 173.526L518.41 173.62L518.504 173.919L518.803 173.826L518.71 173.526ZM515.903 162.457L516.203 162.364L516.109 162.064L515.81 162.158L515.903 162.457ZM519.308 173.339L519.402 173.638L519.701 173.545L519.607 173.246L519.308 173.339ZM508.337 175.414L506.763 166.925L506.147 167.039L507.72 175.528L508.337 175.414ZM507.469 175.894L508.086 175.779L507.971 175.163L507.355 175.277L507.469 175.894ZM505.53 167.154L507.104 175.642L507.72 175.528L506.147 167.039L505.53 167.154ZM506.398 166.674L505.781 166.788L505.895 167.405L506.512 167.29L506.398 166.674ZM515.006 162.738L518.41 173.62L519.009 173.433L515.604 162.551L515.006 162.738ZM515.81 162.158L515.211 162.345L515.398 162.944L515.997 162.756L515.81 162.158ZM519.607 173.246L516.203 162.364L515.604 162.551L519.009 173.433L519.607 173.246ZM518.803 173.826L519.402 173.638L519.214 173.04L518.616 173.227L518.803 173.826Z" fill="#372898"/>
<path fill-rule="evenodd" clip-rule="evenodd" d="M515.525 162.342L515.962 157.344C516.1 152.162 511.712 149.072 506.747 149.901C501.359 150.8 500.223 153.723 499.12 159.135C498.017 164.546 498.982 167.525 504.358 167.619C506.07 167.649 508.67 166.936 508.67 166.936" fill="white"/>
<path d="M515.525 162.342L515.962 157.344C516.1 152.162 511.712 149.072 506.747 149.901C501.359 150.8 500.223 153.723 499.12 159.135C498.017 164.546 498.982 167.525 504.358 167.619C506.07 167.649 508.67 166.936 508.67 166.936" stroke="#372898" stroke-width="0.627136" stroke-linecap="round"/>
<path fill-rule="evenodd" clip-rule="evenodd" d="M509.295 157.709C509.858 157.339 510.525 157.129 511.238 157.141C513.231 157.176 514.782 158.923 514.746 161C514.721 162.463 513.918 163.728 512.751 164.342L512.459 163.787C513.418 163.282 514.097 162.229 514.119 160.989C514.15 159.219 512.836 157.796 511.227 157.768C510.647 157.758 510.103 157.928 509.64 158.233L509.295 157.709ZM515.553 162.493L515.991 157.495C516.129 152.314 511.741 149.224 506.776 150.052C501.388 150.951 500.252 153.874 499.149 159.286C498.046 164.698 499.01 167.677 504.387 167.771C506.099 167.801 508.699 167.087 508.699 167.087" fill="white"/>
<path d="M509.295 157.709L509.123 157.447L508.861 157.619L509.033 157.881L509.295 157.709ZM512.751 164.342L512.474 164.488L512.62 164.765L512.897 164.619L512.751 164.342ZM512.459 163.787L512.313 163.509L512.036 163.655L512.182 163.933L512.459 163.787ZM509.64 158.233L509.378 158.405L509.55 158.667L509.812 158.495L509.64 158.233ZM515.241 162.466C515.226 162.638 515.353 162.79 515.526 162.806C515.699 162.821 515.851 162.693 515.866 162.521L515.241 162.466ZM515.991 157.495L516.303 157.523L516.304 157.513L516.304 157.504L515.991 157.495ZM506.776 150.052L506.724 149.743L506.776 150.052ZM508.782 167.389C508.949 167.344 509.047 167.171 509.001 167.004C508.955 166.837 508.783 166.739 508.616 166.785L508.782 167.389ZM511.243 156.827C510.464 156.814 509.735 157.044 509.123 157.447L509.468 157.971C509.98 157.633 510.586 157.443 511.232 157.454L511.243 156.827ZM515.06 161.006C515.099 158.776 513.429 156.866 511.243 156.827L511.232 157.454C513.033 157.486 514.466 159.07 514.433 160.995L515.06 161.006ZM512.897 164.619C514.168 163.951 515.032 162.58 515.06 161.006L514.433 160.995C514.409 162.346 513.668 163.505 512.605 164.064L512.897 164.619ZM512.182 163.933L512.474 164.488L513.029 164.196L512.737 163.641L512.182 163.933ZM513.806 160.984C513.786 162.112 513.168 163.059 512.313 163.509L512.605 164.064C513.668 163.505 514.409 162.346 514.433 160.995L513.806 160.984ZM511.221 158.082C512.638 158.106 513.834 159.367 513.806 160.984L514.433 160.995C514.466 159.07 513.033 157.486 511.232 157.454L511.221 158.082ZM509.812 158.495C510.225 158.223 510.708 158.073 511.221 158.082L511.232 157.454C510.586 157.443 509.98 157.633 509.468 157.971L509.812 158.495ZM509.033 157.881L509.378 158.405L509.902 158.06L509.557 157.537L509.033 157.881ZM515.866 162.521L516.303 157.523L515.678 157.468L515.241 162.466L515.866 162.521ZM516.304 157.504C516.376 154.816 515.271 152.651 513.489 151.272C511.712 149.896 509.283 149.316 506.724 149.743L506.828 150.362C509.234 149.96 511.481 150.511 513.105 151.768C514.724 153.022 515.744 154.993 515.677 157.487L516.304 157.504ZM506.724 149.743C503.974 150.202 502.258 151.189 501.101 152.794C499.961 154.375 499.392 156.522 498.841 159.224L499.456 159.349C500.008 156.638 500.559 154.618 501.61 153.16C502.644 151.726 504.19 150.802 506.828 150.362L506.724 149.743ZM498.841 159.224C498.289 161.936 498.229 164.133 499.062 165.672C499.916 167.25 501.644 168.037 504.381 168.084L504.392 167.457C501.754 167.411 500.311 166.662 499.614 165.374C498.896 164.047 498.906 162.049 499.456 159.349L498.841 159.224ZM504.381 168.084C505.273 168.1 506.379 167.923 507.247 167.748C507.684 167.659 508.067 167.57 508.341 167.503C508.477 167.469 508.587 167.441 508.663 167.421C508.701 167.411 508.73 167.403 508.75 167.398C508.76 167.395 508.768 167.393 508.773 167.392C508.776 167.391 508.778 167.391 508.779 167.39C508.78 167.39 508.781 167.39 508.781 167.39C508.781 167.39 508.781 167.39 508.782 167.39C508.782 167.39 508.782 167.39 508.782 167.39C508.782 167.39 508.782 167.389 508.699 167.087C508.616 166.785 508.616 166.785 508.616 166.785C508.616 166.785 508.616 166.785 508.616 166.785C508.616 166.785 508.616 166.785 508.615 166.785C508.615 166.785 508.615 166.785 508.614 166.785C508.613 166.785 508.611 166.786 508.609 166.787C508.604 166.788 508.597 166.79 508.588 166.792C508.569 166.797 508.541 166.805 508.504 166.814C508.431 166.833 508.325 166.861 508.191 166.894C507.924 166.959 507.549 167.047 507.123 167.133C506.263 167.307 505.213 167.472 504.392 167.457L504.381 168.084Z" fill="#372898"/>
<path fill-rule="evenodd" clip-rule="evenodd" d="M508.61 167.072L507.588 174.346L507.268 173.736L506.431 167.792L508.61 167.072Z" fill="#372898"/>
<path fill-rule="evenodd" clip-rule="evenodd" d="M480.642 213.919L479.388 219.877L480.642 213.919Z" fill="white"/>
<path d="M480.642 213.919L479.388 219.877" stroke="#372898" stroke-width="0.627137" stroke-linecap="round"/>
<path fill-rule="evenodd" clip-rule="evenodd" d="M506.537 172.953C504.969 172.779 503.513 173.788 503.126 175.318L493.139 214.824L475.109 210.277L469.935 225.799L494.413 238.809C499.579 241.555 505.935 238.576 507.129 232.849L516.696 186.967C518.104 180.214 513.393 173.715 506.537 172.953Z" fill="white" stroke="#372898" stroke-width="0.627136" stroke-linecap="round"/>
<path fill-rule="evenodd" clip-rule="evenodd" d="M484.036 444.773C482.008 445.456 481.103 447.818 482.157 449.682L503.68 449.747C504.347 449.749 504.988 449.485 505.46 449.013L510.89 443.591L510.109 449.682H516.814L515.839 434.218C515.778 433.254 514.979 432.504 514.013 432.504C514.013 432.504 503.45 438.595 497.773 441.093C492.095 443.591 494.962 441.093 494.962 441.093L484.036 444.773Z" fill="#372898"/>
<path fill-rule="evenodd" clip-rule="evenodd" d="M409.407 444.773C407.379 445.456 406.474 447.818 407.527 449.682L429.051 449.747C429.718 449.749 430.358 449.485 430.831 449.013L436.261 443.591L435.48 449.682H442.185L441.21 434.218C441.149 433.254 440.35 432.504 439.384 432.504C439.384 432.504 428.821 438.595 423.143 441.093C417.466 443.591 420.333 441.093 420.333 441.093L409.407 444.773Z" fill="#372898"/>
<path fill-rule="evenodd" clip-rule="evenodd" d="M493.139 214.824L491.415 221.409L493.139 214.824Z" fill="white"/>
<path d="M493.139 214.824L491.415 221.409" stroke="#372898" stroke-width="0.627137" stroke-linecap="round"/>
<rect x="204.696" y="238.524" width="32.9247" height="8.15277" rx="4.07639" transform="rotate(27 204.696 238.524)" fill="#5554C3"/>
<path fill-rule="evenodd" clip-rule="evenodd" d="M512.916 136.869C518.042 143.754 510.848 150.165 510.848 150.165C510.848 150.165 510.343 149.704 509.231 149.693C508.804 149.689 508.069 149.749 507.325 149.825C508.01 149.81 508.704 149.886 509.389 150.057C509.946 150.196 510.498 150.328 511.013 150.443C513.835 151.07 513.888 152.196 513.888 152.196L514.854 153.634C515.723 154.926 516.187 156.448 516.187 158.006V159.095C516.187 159.804 516.094 160.51 515.911 161.196L515.559 162.515L514.148 162.458C514.148 162.458 514.799 161.855 514.462 160.733C514.125 159.611 512.799 157.962 512.799 157.962C512.799 157.962 511.942 157.259 511.448 157.215C510.652 157.142 509.363 157.662 509.363 157.662L501.292 153.051C502.401 151.416 504.089 150.356 505.948 149.978C505.345 150.05 504.913 150.107 504.913 150.107C504.913 150.107 500.786 147.789 499.75 142.158C498.715 136.528 507.789 129.983 512.916 136.869Z" fill="#372898"/>
</svg>
