<svg width="639" height="511" viewBox="0 0 639 511" fill="none" xmlns="http://www.w3.org/2000/svg">
<path fill-rule="evenodd" clip-rule="evenodd" d="M198.184 131.008C197.353 131.242 196.474 130.847 196.098 130.071C195.889 129.642 195.952 129.131 196.258 128.766L197.68 127.068C198.409 126.196 199.346 125.524 200.392 125.079C201.503 124.606 203 123.939 204.239 123.285C207.525 121.549 211.114 120.348 214.83 120.459L227.429 120.833L230.561 117.151L230.561 128.455L221.409 129.274C219.119 129.479 216.812 129.398 214.541 129.033L211.878 128.605C211.878 128.605 209.391 128.067 207.485 128.489C206.06 128.805 200.766 130.282 198.184 131.008Z" fill="white" stroke="#372898" stroke-width="0.729299"/>
<rect x="133.097" y="127.908" width="348.605" height="301.565" fill="white" stroke="#372898" stroke-width="0.729299" stroke-linecap="round"/>
<path fill-rule="evenodd" clip-rule="evenodd" d="M256.713 18.2457C253.367 20.1722 252.885 31.7377 252.885 31.7377H263.459L264.918 24.8094C264.918 24.8094 260.059 16.3192 256.713 18.2457Z" fill="white"/>
<rect x="327.82" y="135.566" width="153.882" height="293.908" fill="#CAD9FF"/>
<rect width="66.3662" height="66.3662" rx="33.1831" transform="matrix(-1 0 0 1 436.486 173.125)" fill="#372898"/>
<mask id="mask0" mask-type="alpha" maskUnits="userSpaceOnUse" x="370" y="173" width="67" height="67">
<rect width="66.3662" height="66.3662" rx="33.1831" transform="matrix(-1 0 0 1 436.486 173.125)" fill="white"/>
</mask>
<g mask="url(#mask0)">
<path d="M406.056 273.671C406.056 273.671 386.102 253.748 375.834 255.74C365.566 257.733 367.783 269.12 378.051 267.128C388.319 265.135 421.637 261.864 421.663 251.798C421.689 241.731 404.556 240.132 404.556 240.132" stroke="#5554C3" stroke-width="0.729299"/>
<path d="M403.54 206.85C403.54 206.85 383.589 186.956 373.317 188.951C363.045 190.946 365.258 202.321 375.53 200.326C385.802 198.331 419.132 195.049 419.163 184.993C419.194 174.937 401.409 173.606 401.409 173.606L399.461 172.261" stroke="#5554C3" stroke-width="0.729299"/>
<path d="M403.217 206.546C403.217 206.546 423.693 226.824 433.968 224.839C444.244 222.854 441.998 211.386 431.722 213.371C421.446 215.355 388.096 218.58 388.092 228.714C388.089 238.847 405.894 240.233 405.894 240.233" stroke="#5554C3" stroke-width="0.729299"/>
</g>
<rect opacity="0.01" width="66.3662" height="66.3662" rx="33.1831" transform="matrix(-1 0 0 1 436.486 173.125)" fill="#372898"/>
<mask id="mask1" mask-type="alpha" maskUnits="userSpaceOnUse" x="370" y="173" width="67" height="67">
<rect width="66.3662" height="66.3662" rx="33.1831" transform="matrix(-1 0 0 1 436.486 173.125)" fill="white"/>
</mask>
<g mask="url(#mask1)">
<path fill-rule="evenodd" clip-rule="evenodd" d="M370.119 235.845L383.909 279.715L383.616 288.096L431.957 288.555L431.511 280.1L432.573 219.373C432.639 215.548 429.592 212.392 425.766 212.325C425.715 212.324 425.663 212.324 425.611 212.324L409.559 212.404L382.372 213.71C379.172 213.864 376.406 215.993 375.439 219.047L370.119 235.845Z" fill="white" stroke="#372898" stroke-width="0.729299"/>
<path fill-rule="evenodd" clip-rule="evenodd" d="M424.833 235.227L439.402 280.149L415.883 289.63L424.817 289.813C424.817 289.813 464.806 291.112 458.911 273.221C452.95 255.129 444.659 222.157 444.659 222.157C442.509 216.251 436.896 212.321 430.611 212.321L415.918 212.321" fill="white"/>
<path d="M424.833 235.227L439.402 280.149L415.883 289.63L424.817 289.813C424.817 289.813 464.806 291.112 458.911 273.221C452.95 255.129 444.659 222.157 444.659 222.157C442.509 216.251 436.896 212.321 430.611 212.321L415.918 212.321" stroke="#372898" stroke-width="0.729299" stroke-linecap="round" stroke-linejoin="round"/>
<path fill-rule="evenodd" clip-rule="evenodd" d="M393.922 213.601C393.922 217.065 399.027 219.8 402.491 219.8C405.955 219.8 411.06 216.336 411.06 212.871" fill="white"/>
<path d="M393.922 213.601C393.922 217.065 399.027 219.8 402.491 219.8C405.955 219.8 411.06 216.336 411.06 212.871" stroke="#372898" stroke-width="0.729299" stroke-linecap="round" stroke-linejoin="round"/>
<path fill-rule="evenodd" clip-rule="evenodd" d="M409.232 211.413C409.409 215.242 404.827 217.612 402.167 217.612C399.507 217.612 395.745 215.789 395.745 212.142L395.827 205.761L407.313 203.026L409.232 211.413Z" fill="white" stroke="#372898" stroke-width="0.729299" stroke-linecap="round"/>
<path fill-rule="evenodd" clip-rule="evenodd" d="M395.659 208.678L396.652 210.684L407.328 203.026L395.619 205.78L395.659 208.678Z" fill="#372898"/>
<path fill-rule="evenodd" clip-rule="evenodd" d="M408.472 201.392C406.071 204.486 402.103 206.673 398.34 206.673C392.404 206.673 392.377 202.329 392.377 196.473C392.377 190.616 394.045 187.148 399.974 186.051C405.327 185.061 409.774 188.685 410.588 193.709C412.094 194.253 413.162 195.752 413.162 197.493C413.162 199.686 411.466 201.495 409.337 201.495C409.039 201.495 408.749 201.459 408.472 201.392ZM408.946 200.739C409.074 200.756 409.204 200.765 409.337 200.765C411.03 200.765 412.433 199.317 412.433 197.493C412.433 196.188 411.716 195.076 410.689 194.548C410.71 194.821 410.721 195.097 410.721 195.376C410.721 197.263 410.052 199.107 408.946 200.739Z" fill="white"/>
<path d="M408.472 201.392L408.557 201.038L408.328 200.983L408.184 201.169L408.472 201.392ZM399.974 186.051L400.041 186.41L399.974 186.051ZM410.588 193.709L410.228 193.767L410.262 193.979L410.464 194.052L410.588 193.709ZM408.946 200.739L408.644 200.535L408.314 201.023L408.898 201.101L408.946 200.739ZM410.689 194.548L410.855 194.224L410.274 193.925L410.325 194.577L410.689 194.548ZM398.34 207.037C402.232 207.037 406.301 204.784 408.76 201.616L408.184 201.169C405.841 204.187 401.974 206.308 398.34 206.308V207.037ZM392.013 196.473C392.013 197.933 392.014 199.318 392.111 200.565C392.207 201.812 392.4 202.947 392.796 203.908C393.194 204.876 393.801 205.67 394.718 206.216C395.629 206.758 396.814 207.037 398.34 207.037V206.308C396.898 206.308 395.854 206.044 395.091 205.589C394.333 205.138 393.82 204.48 393.47 203.63C393.117 202.772 392.932 201.724 392.838 200.509C392.744 199.295 392.742 197.94 392.742 196.473H392.013ZM399.908 185.693C396.88 186.253 394.878 187.432 393.649 189.275C392.431 191.101 392.013 193.521 392.013 196.473H392.742C392.742 193.568 393.158 191.325 394.256 189.679C395.343 188.05 397.14 186.946 400.041 186.41L399.908 185.693ZM410.948 193.651C410.105 188.445 405.482 184.661 399.908 185.693L400.041 186.41C405.173 185.46 409.444 188.925 410.228 193.767L410.948 193.651ZM410.464 194.052C411.821 194.542 412.798 195.901 412.798 197.493H413.527C413.527 195.603 412.367 193.964 410.712 193.366L410.464 194.052ZM412.798 197.493C412.798 199.502 411.248 201.13 409.337 201.13V201.859C411.685 201.859 413.527 199.869 413.527 197.493H412.798ZM409.337 201.13C409.068 201.13 408.807 201.098 408.557 201.038L408.386 201.747C408.692 201.82 409.01 201.859 409.337 201.859V201.13ZM408.898 201.101C409.042 201.12 409.188 201.13 409.337 201.13V200.401C409.221 200.401 409.106 200.393 408.994 200.378L408.898 201.101ZM409.337 201.13C411.248 201.13 412.798 199.502 412.798 197.493H412.068C412.068 199.133 410.812 200.401 409.337 200.401V201.13ZM412.798 197.493C412.798 196.053 412.006 194.815 410.855 194.224L410.522 194.873C411.427 195.337 412.068 196.323 412.068 197.493H412.798ZM411.086 195.376C411.086 195.087 411.074 194.802 411.052 194.52L410.325 194.577C410.346 194.84 410.356 195.106 410.356 195.376H411.086ZM409.248 200.944C410.386 199.264 411.086 197.35 411.086 195.376H410.356C410.356 197.176 409.718 198.95 408.644 200.535L409.248 200.944Z" fill="#372898"/>
<path fill-rule="evenodd" clip-rule="evenodd" d="M407.33 194.639L405.954 190.762L393.471 190.422C393.471 190.422 394.435 189.11 395.032 188.555C398.32 185.496 400.645 185.824 401.78 185.984C401.842 185.993 401.9 186.001 401.955 186.008C404.556 186.348 406.29 187.197 406.29 187.197C406.29 187.197 408.148 188.149 408.848 189.223C408.889 189.285 408.928 189.346 408.967 189.405C409.601 190.373 410.034 191.035 410.61 192.729C411.221 194.528 410.608 194.402 410.608 194.402C410.608 194.402 409.912 194.2 409.584 194.157C409.255 194.115 408.717 194.157 408.717 194.157C408.717 194.157 408.682 194.167 408.625 194.185C408.155 194.247 407.716 194.405 407.33 194.639Z" fill="white"/>
<path d="M405.954 190.762L406.298 190.64L406.214 190.404L405.964 190.397L405.954 190.762ZM407.33 194.639L406.987 194.761L407.137 195.183L407.52 194.951L407.33 194.639ZM393.471 190.422L393.177 190.206L392.765 190.768L393.461 190.787L393.471 190.422ZM395.032 188.555L395.28 188.822H395.28L395.032 188.555ZM401.78 185.984L401.831 185.623V185.623L401.78 185.984ZM401.955 186.008L402.002 185.647V185.647L401.955 186.008ZM406.29 187.197L406.456 186.872L406.45 186.869L406.29 187.197ZM408.848 189.223L408.543 189.422V189.422L408.848 189.223ZM408.967 189.405L409.272 189.205L409.272 189.205L408.967 189.405ZM410.61 192.729L410.955 192.612V192.612L410.61 192.729ZM410.608 194.402L410.507 194.752L410.521 194.756L410.535 194.759L410.608 194.402ZM409.584 194.157L409.63 193.796L409.584 194.157ZM408.717 194.157L408.688 193.794L408.652 193.796L408.617 193.806L408.717 194.157ZM408.625 194.185L408.672 194.547L408.706 194.543L408.738 194.532L408.625 194.185ZM405.61 190.884L406.987 194.761L407.674 194.517L406.298 190.64L405.61 190.884ZM393.461 190.787L405.944 191.126L405.964 190.397L393.481 190.058L393.461 190.787ZM394.783 188.288C394.462 188.586 394.057 189.073 393.742 189.47C393.582 189.671 393.441 189.855 393.34 189.988C393.29 190.055 393.249 190.109 393.221 190.147C393.207 190.166 393.196 190.181 393.189 190.191C393.185 190.196 393.182 190.2 393.18 190.202C393.179 190.203 393.179 190.205 393.178 190.205C393.178 190.206 393.178 190.206 393.178 190.206C393.178 190.206 393.177 190.206 393.177 190.206C393.177 190.206 393.177 190.206 393.177 190.206C393.177 190.206 393.177 190.206 393.471 190.422C393.765 190.638 393.765 190.638 393.765 190.638C393.765 190.638 393.765 190.638 393.765 190.638C393.765 190.638 393.765 190.638 393.765 190.638C393.765 190.638 393.766 190.638 393.766 190.637C393.766 190.637 393.767 190.636 393.768 190.635C393.769 190.632 393.772 190.629 393.775 190.624C393.782 190.615 393.793 190.601 393.806 190.582C393.833 190.546 393.873 190.494 393.922 190.429C394.02 190.298 394.158 190.119 394.313 189.923C394.629 189.525 395.004 189.079 395.28 188.822L394.783 188.288ZM401.831 185.623C401.254 185.542 400.331 185.411 399.126 185.708C397.921 186.006 396.464 186.724 394.783 188.288L395.28 188.822C396.887 187.327 398.237 186.679 399.301 186.416C400.364 186.154 401.171 186.266 401.729 186.345L401.831 185.623ZM402.002 185.647C401.95 185.64 401.893 185.632 401.831 185.623L401.729 186.345C401.791 186.354 401.851 186.362 401.908 186.37L402.002 185.647ZM406.29 187.197C406.45 186.869 406.45 186.869 406.45 186.869C406.45 186.869 406.45 186.869 406.45 186.869C406.449 186.869 406.449 186.869 406.449 186.869C406.449 186.868 406.448 186.868 406.447 186.868C406.446 186.867 406.445 186.867 406.443 186.866C406.438 186.864 406.433 186.861 406.425 186.857C406.41 186.85 406.389 186.84 406.361 186.827C406.305 186.802 406.224 186.766 406.119 186.722C405.908 186.634 405.602 186.514 405.214 186.384C404.437 186.123 403.331 185.82 402.002 185.647L401.908 186.37C403.18 186.536 404.241 186.827 404.982 187.075C405.352 187.2 405.642 187.313 405.837 187.395C405.935 187.436 406.01 187.469 406.059 187.491C406.084 187.503 406.102 187.511 406.114 187.517C406.12 187.519 406.124 187.521 406.126 187.523C406.128 187.523 406.129 187.524 406.129 187.524C406.129 187.524 406.129 187.524 406.129 187.524C406.129 187.524 406.129 187.524 406.129 187.524C406.129 187.524 406.129 187.524 406.129 187.524C406.129 187.524 406.129 187.524 406.29 187.197ZM409.154 189.023C408.761 188.422 408.068 187.881 407.51 187.505C407.225 187.313 406.963 187.155 406.772 187.046C406.677 186.991 406.599 186.948 406.544 186.919C406.517 186.904 406.495 186.893 406.48 186.885C406.473 186.881 406.467 186.878 406.463 186.876C406.461 186.875 406.459 186.874 406.458 186.873C406.457 186.873 406.457 186.873 406.457 186.872C406.456 186.872 406.456 186.872 406.456 186.872C406.456 186.872 406.456 186.872 406.456 186.872C406.456 186.872 406.456 186.872 406.29 187.197C406.123 187.521 406.123 187.521 406.123 187.521C406.123 187.521 406.123 187.521 406.123 187.521C406.123 187.521 406.123 187.521 406.123 187.521C406.123 187.521 406.123 187.521 406.124 187.521C406.124 187.522 406.125 187.522 406.127 187.523C406.13 187.525 406.135 187.527 406.141 187.53C406.154 187.537 406.173 187.547 406.198 187.561C406.247 187.587 406.32 187.627 406.41 187.679C406.589 187.781 406.835 187.929 407.102 188.109C407.648 188.478 408.235 188.95 408.543 189.422L409.154 189.023ZM409.272 189.205C409.234 189.146 409.194 189.085 409.154 189.023L408.543 189.422C408.583 189.484 408.623 189.545 408.662 189.605L409.272 189.205ZM410.955 192.612C410.365 190.877 409.915 190.187 409.272 189.205L408.662 189.605C409.287 190.559 409.702 191.192 410.265 192.847L410.955 192.612ZM410.608 194.402C410.535 194.759 410.535 194.759 410.536 194.759C410.536 194.759 410.536 194.76 410.537 194.76C410.537 194.76 410.538 194.76 410.539 194.76C410.54 194.76 410.541 194.76 410.543 194.761C410.546 194.761 410.549 194.762 410.552 194.762C410.559 194.763 410.566 194.764 410.575 194.765C410.591 194.767 410.612 194.769 410.635 194.769C410.681 194.768 410.743 194.762 410.812 194.739C410.964 194.687 411.101 194.568 411.177 194.375C411.247 194.199 411.262 193.978 411.23 193.707C411.197 193.432 411.113 193.076 410.955 192.612L410.265 192.847C410.413 193.282 410.481 193.586 410.505 193.793C410.53 194.004 410.506 194.088 410.5 194.106C410.499 194.106 410.521 194.068 410.577 194.048C410.598 194.041 410.617 194.039 410.632 194.039C410.64 194.039 410.648 194.04 410.656 194.041C410.66 194.041 410.664 194.042 410.668 194.042C410.671 194.043 410.673 194.043 410.675 194.044C410.676 194.044 410.677 194.044 410.679 194.044C410.679 194.044 410.68 194.044 410.68 194.045C410.681 194.045 410.681 194.045 410.681 194.045C410.682 194.045 410.682 194.045 410.608 194.402ZM409.537 194.519C409.675 194.537 409.91 194.592 410.127 194.648C410.232 194.676 410.328 194.702 410.397 194.721C410.431 194.731 410.459 194.739 410.478 194.744C410.487 194.747 410.495 194.749 410.5 194.75C410.502 194.751 410.504 194.751 410.505 194.752C410.506 194.752 410.506 194.752 410.506 194.752C410.507 194.752 410.507 194.752 410.507 194.752C410.507 194.752 410.507 194.752 410.507 194.752C410.507 194.752 410.507 194.752 410.507 194.752C410.507 194.752 410.507 194.752 410.608 194.402C410.71 194.052 410.71 194.052 410.71 194.052C410.71 194.052 410.71 194.052 410.71 194.052C410.71 194.052 410.71 194.052 410.71 194.052C410.71 194.052 410.71 194.052 410.71 194.052C410.709 194.052 410.709 194.051 410.708 194.051C410.706 194.051 410.704 194.05 410.702 194.049C410.696 194.048 410.688 194.046 410.678 194.043C410.658 194.037 410.628 194.029 410.592 194.019C410.521 193.998 410.421 193.971 410.311 193.943C410.098 193.887 409.82 193.82 409.63 193.796L409.537 194.519ZM408.717 194.157C408.745 194.521 408.745 194.521 408.745 194.521C408.745 194.521 408.745 194.521 408.745 194.521C408.745 194.521 408.745 194.521 408.745 194.521C408.745 194.521 408.745 194.521 408.745 194.521C408.746 194.521 408.746 194.521 408.746 194.521C408.747 194.521 408.748 194.52 408.75 194.52C408.754 194.52 408.759 194.52 408.766 194.519C408.78 194.518 408.801 194.517 408.828 194.515C408.881 194.512 408.955 194.508 409.038 194.506C409.211 194.5 409.403 194.501 409.537 194.519L409.63 193.796C409.436 193.77 409.195 193.771 409.016 193.777C408.924 193.78 408.843 193.784 408.784 193.787C408.755 193.789 408.731 193.79 408.715 193.792C408.707 193.792 408.7 193.793 408.696 193.793C408.693 193.793 408.692 193.793 408.69 193.793C408.69 193.793 408.689 193.794 408.689 193.794C408.689 193.794 408.688 193.794 408.688 193.794C408.688 193.794 408.688 193.794 408.688 193.794C408.688 193.794 408.688 193.794 408.688 193.794C408.688 193.794 408.688 193.794 408.717 194.157ZM408.738 194.532C408.763 194.524 408.784 194.518 408.798 194.513C408.804 194.511 408.81 194.51 408.813 194.509C408.814 194.509 408.815 194.508 408.816 194.508C408.816 194.508 408.816 194.508 408.817 194.508C408.817 194.508 408.817 194.508 408.816 194.508C408.816 194.508 408.816 194.508 408.816 194.508C408.816 194.508 408.816 194.508 408.816 194.508C408.816 194.508 408.816 194.508 408.816 194.508C408.816 194.508 408.816 194.508 408.816 194.508C408.816 194.508 408.816 194.508 408.717 194.157C408.617 193.806 408.617 193.806 408.617 193.806C408.617 193.806 408.617 193.806 408.617 193.806C408.617 193.806 408.617 193.806 408.617 193.806C408.617 193.806 408.617 193.806 408.617 193.806C408.617 193.806 408.617 193.806 408.617 193.806C408.617 193.807 408.616 193.807 408.616 193.807C408.616 193.807 408.615 193.807 408.614 193.807C408.613 193.808 408.611 193.808 408.608 193.809C408.603 193.811 408.596 193.813 408.587 193.815C408.569 193.821 408.543 193.829 408.512 193.839L408.738 194.532ZM408.578 193.824C408.057 193.892 407.57 194.067 407.141 194.327L407.52 194.951C407.863 194.743 408.253 194.602 408.672 194.547L408.578 193.824Z" fill="#372898"/>
<path fill-rule="evenodd" clip-rule="evenodd" d="M409.303 211.96C409.303 211.96 423.214 206.421 425.712 207.766C428.082 209.043 428.082 211.96 428.082 211.96" fill="white"/>
<path d="M409.303 211.96C409.303 211.96 423.214 206.421 425.712 207.766C428.082 209.043 428.082 211.96 428.082 211.96" stroke="#372898" stroke-width="0.729299" stroke-linecap="round"/>
</g>
<rect x="133.097" y="127.908" width="348.605" height="12.0334" fill="#89B922"/>
<path fill-rule="evenodd" clip-rule="evenodd" d="M147.473 135.47C148.379 135.486 149.127 134.764 149.142 133.858C149.158 132.952 148.436 132.205 147.53 132.189C146.624 132.173 145.877 132.895 145.861 133.801C145.845 134.707 146.567 135.454 147.473 135.47ZM152.942 135.566C153.848 135.581 154.595 134.86 154.611 133.954C154.627 133.048 153.905 132.3 152.999 132.284C152.093 132.269 151.346 132.99 151.33 133.896C151.314 134.802 152.036 135.55 152.942 135.566ZM160.08 134.049C160.064 134.955 159.317 135.677 158.411 135.661C157.505 135.645 156.783 134.898 156.799 133.992C156.815 133.086 157.562 132.364 158.468 132.38C159.374 132.396 160.096 133.143 160.08 134.049Z" fill="white"/>
<path fill-rule="evenodd" clip-rule="evenodd" d="M250.154 33.0295C257.373 32.7802 262.394 40.1311 259.536 46.7648L243.863 83.144L234.376 119.005C233.956 120.594 232.507 121.692 230.864 121.668C220.427 121.513 213.456 110.852 217.5 101.229L219.987 95.3124L241.683 33.322L250.154 33.0295Z" fill="white" stroke="#372898" stroke-width="0.729299" stroke-linecap="round"/>
<path fill-rule="evenodd" clip-rule="evenodd" d="M265.166 22.17L262.625 31.6622L263.33 31.8507L265.87 22.3585L265.166 22.17ZM250.216 30.782L256.249 13.3857L255.56 13.1468L249.527 30.543L250.216 30.782Z" fill="white"/>
<path d="M262.625 31.6622L262.531 32.0144L262.179 31.9202L262.273 31.5679L262.625 31.6622ZM265.166 22.17L264.814 22.0757L264.908 21.7234L265.26 21.8177L265.166 22.17ZM263.33 31.8507L263.682 31.945L263.588 32.2973L263.236 32.203L263.33 31.8507ZM265.87 22.3585L265.965 22.0063L266.317 22.1005L266.223 22.4528L265.87 22.3585ZM256.249 13.3857L256.369 13.0412L256.713 13.1607L256.594 13.5052L256.249 13.3857ZM250.216 30.782L250.56 30.9015L250.441 31.246L250.096 31.1265L250.216 30.782ZM255.56 13.1468L255.216 13.0273L255.335 12.6828L255.68 12.8022L255.56 13.1468ZM249.527 30.543L249.407 30.8875L249.063 30.7681L249.182 30.4235L249.527 30.543ZM262.273 31.5679L264.814 22.0757L265.518 22.2642L262.978 31.7565L262.273 31.5679ZM263.236 32.203L262.531 32.0144L262.72 31.3099L263.424 31.4985L263.236 32.203ZM266.223 22.4528L263.682 31.945L262.978 31.7565L265.518 22.2642L266.223 22.4528ZM265.26 21.8177L265.965 22.0063L265.776 22.7108L265.072 22.5222L265.26 21.8177ZM256.594 13.5052L250.56 30.9015L249.871 30.6625L255.905 13.2662L256.594 13.5052ZM255.68 12.8022L256.369 13.0412L256.13 13.7303L255.441 13.4913L255.68 12.8022ZM249.182 30.4235L255.216 13.0273L255.905 13.2662L249.871 30.6625L249.182 30.4235ZM250.096 31.1265L249.407 30.8875L249.646 30.1985L250.335 30.4375L250.096 31.1265Z" fill="#372898"/>
<path fill-rule="evenodd" clip-rule="evenodd" d="M313.86 116.436C314.582 116.537 315.25 116.034 315.352 115.311C315.453 114.589 314.95 113.921 314.227 113.819C313.505 113.718 312.837 114.221 312.735 114.944C312.634 115.666 313.137 116.334 313.86 116.436Z" fill="white"/>
<path fill-rule="evenodd" clip-rule="evenodd" d="M318.22 117.049C318.943 117.15 319.611 116.647 319.713 115.924C319.814 115.202 319.311 114.534 318.588 114.432C317.866 114.331 317.198 114.834 317.096 115.556C316.995 116.279 317.498 116.947 318.22 117.049Z" fill="white"/>
<path fill-rule="evenodd" clip-rule="evenodd" d="M322.581 117.661C323.304 117.763 323.972 117.26 324.073 116.537C324.175 115.815 323.671 115.146 322.949 115.045C322.226 114.943 321.558 115.447 321.457 116.169C321.355 116.892 321.859 117.56 322.581 117.661Z" fill="white"/>
<path fill-rule="evenodd" clip-rule="evenodd" d="M158.623 270.133H280.948H158.623Z" fill="white"/>
<path d="M158.623 270.133H280.948" stroke="#372898" stroke-width="0.729299" stroke-linecap="round"/>
<path fill-rule="evenodd" clip-rule="evenodd" d="M158.623 379.431H280.948H158.623Z" fill="white"/>
<path d="M158.623 379.431H280.948" stroke="#372898" stroke-width="0.729299" stroke-linecap="round"/>
<path fill-rule="evenodd" clip-rule="evenodd" d="M158.623 289.46H280.948H158.623Z" fill="white"/>
<path d="M158.623 289.46H280.948" stroke="#372898" stroke-width="0.729299" stroke-linecap="round"/>
<path fill-rule="evenodd" clip-rule="evenodd" d="M158.623 398.758H280.948H158.623Z" fill="white"/>
<path d="M158.623 398.758H280.948" stroke="#372898" stroke-width="0.729299" stroke-linecap="round"/>
<path fill-rule="evenodd" clip-rule="evenodd" d="M158.623 279.979H303.71H158.623Z" fill="white"/>
<path d="M158.623 279.979H303.709" stroke="#372898" stroke-width="0.729299" stroke-linecap="round"/>
<path fill-rule="evenodd" clip-rule="evenodd" d="M158.623 389.277H303.71H158.623Z" fill="white"/>
<path d="M158.623 389.277H303.709" stroke="#372898" stroke-width="0.729299" stroke-linecap="round"/>
<path fill-rule="evenodd" clip-rule="evenodd" d="M158.623 250.989H203.11H158.623Z" fill="white"/>
<path d="M158.623 250.989H203.11" stroke="#372898" stroke-width="0.729299" stroke-linecap="round"/>
<path fill-rule="evenodd" clip-rule="evenodd" d="M158.623 360.287H203.11H158.623Z" fill="white"/>
<path d="M158.623 360.287H203.11" stroke="#372898" stroke-width="0.729299" stroke-linecap="round"/>
<path fill-rule="evenodd" clip-rule="evenodd" d="M160.081 338.043V348.618H183.054V338.043" fill="white"/>
<path d="M160.081 338.043V348.618H183.054V338.043" stroke="#372898" stroke-width="0.729299" stroke-linecap="round"/>
<path fill-rule="evenodd" clip-rule="evenodd" d="M158.623 331.115V337.503L171.313 340.961L184.148 337.503V331.115H158.623Z" fill="white" stroke="#372898" stroke-width="0.729299" stroke-linecap="round"/>
<rect x="169.197" y="338.773" width="4.3758" height="3.6465" fill="white" stroke="#372898" stroke-width="0.729299" stroke-linecap="round"/>
<rect x="167.374" y="327.469" width="8.38694" height="3.6465" fill="white" stroke="#372898" stroke-width="0.729299" stroke-linecap="round"/>
<path fill-rule="evenodd" clip-rule="evenodd" d="M262.828 24.1345L262.431 32.1454L262.864 31.4712L264.839 24.7527L262.828 24.1345Z" fill="#372898"/>
<path fill-rule="evenodd" clip-rule="evenodd" d="M353.386 116.107L375.879 122.803L359.834 108.217L342.81 56.4966C339.588 46.7062 327.346 43.4885 319.726 50.429L278.699 87.7969C278.699 87.7969 258.491 86.0161 248.773 93.0782C239.056 100.14 248.247 103.477 248.247 103.477L260.156 117.218C265.907 123.855 276.365 123.315 281.403 116.122L320.269 60.6305L353.386 116.107Z" fill="white" stroke="#372898" stroke-width="0.729299"/>
<path fill-rule="evenodd" clip-rule="evenodd" d="M383.706 122.6C385.845 123.321 386.741 125.857 385.528 127.761L360.55 128.249C359.757 128.264 358.993 127.956 358.432 127.396L352.137 121.111L353.045 128.194H345.248L346.382 110.211C346.452 109.09 347.382 108.217 348.505 108.217C348.505 108.217 360.789 115.301 367.391 118.206C373.993 121.111 370.66 118.206 370.66 118.206L383.706 122.6Z" fill="#372898"/>
<rect x="158.623" y="163.012" width="153.882" height="26.6194" fill="white" stroke="#372898" stroke-width="0.729299" stroke-linecap="round"/>
<path fill-rule="evenodd" clip-rule="evenodd" d="M333.757 103.112L371.316 104.024L340.501 44.3714C336.082 35.8172 324.618 34.0344 317.81 40.8425L269.944 88.7084C269.944 88.7084 257.452 88.7945 251.326 93.2467C241.609 100.309 246.49 101.772 246.49 101.772L269.162 119.717C275.094 124.412 283.726 123.313 288.292 117.281L324.276 69.7466L333.757 103.112Z" fill="white" stroke="#372898" stroke-width="0.729299"/>
<mask id="mask2" mask-type="alpha" maskUnits="userSpaceOnUse" x="241" y="14" width="151" height="147">
<path fill-rule="evenodd" clip-rule="evenodd" d="M333.757 103.112L371.316 104.024L340.501 44.3714C336.082 35.8172 324.618 34.0344 317.81 40.8425L269.944 88.7084C269.944 88.7084 257.452 88.7945 251.326 93.2467C241.609 100.309 246.49 101.772 246.49 101.772L269.162 119.717C275.094 124.412 283.726 123.313 288.292 117.281L324.276 69.7466L333.757 103.112Z" fill="white" stroke="white" stroke-width="0.729299"/>
</mask>
<g mask="url(#mask2)">
</g>
<path fill-rule="evenodd" clip-rule="evenodd" d="M297.804 221.259C297.804 221.259 296.679 237.578 306.773 240.22C306.987 240.276 312.608 236.756 312.608 236.756L312.608 216.7L358.334 123.603C362.976 114.154 356.098 103.112 345.57 103.112L278.513 103.112C278.513 103.112 263.679 90.2913 251.732 89.0374C239.785 87.7836 242.433 92.137 242.433 92.137L247.117 112.516C248.525 118.643 253.979 122.985 260.266 122.985L327.558 122.985L297.804 221.259Z" fill="white" stroke="#372898" stroke-width="0.729299"/>
<path fill-rule="evenodd" clip-rule="evenodd" d="M322.818 215.06L361.395 119.752C365.179 110.403 358.298 100.195 348.212 100.195L278.148 100.195C278.148 100.195 263.774 90.4251 251.827 89.1712C239.88 87.9173 242.528 92.2707 242.528 92.2707L243.4 115.291C243.675 122.539 249.63 128.273 256.883 128.273L324.459 128.273L297.657 179.324L322.818 215.06Z" fill="white" stroke="#372898" stroke-width="0.729299" stroke-linecap="round"/>
<path fill-rule="evenodd" clip-rule="evenodd" d="M239.946 40.8426C240.366 34.5065 246.253 30.0098 252.487 31.2193C252.82 31.2839 253.158 31.3164 253.497 31.3163L269.942 31.314L253.048 80.101L256.589 89.4424L241.866 91.9903C241.866 91.9903 238.415 88.8878 238.219 77.5866C238.095 70.4213 239.154 52.7888 239.946 40.8426Z" fill="#5554C3"/>
<path fill-rule="evenodd" clip-rule="evenodd" d="M321.619 101.79C322.467 101.951 323.308 101.481 323.616 100.675C323.786 100.229 323.678 99.7258 323.342 99.3884L321.778 97.8208C320.975 97.0161 319.984 96.4283 318.903 96.0759C317.755 95.7014 316.205 95.1679 314.914 94.6241C311.489 93.1811 307.809 92.2978 304.117 92.7316L291.598 94.2024L284.352 95.2935L288.3 100.685L296.911 101.584C300.141 101.921 303.405 101.688 306.555 100.895L307.767 100.589C307.767 100.589 310.198 99.8367 312.134 100.091C313.581 100.282 318.984 101.292 321.619 101.79Z" fill="white" stroke="#372898" stroke-width="0.729299"/>
<path fill-rule="evenodd" clip-rule="evenodd" d="M271.019 30.4526C273.915 30.2659 276.333 32.633 276.208 35.5327L274.137 83.6034L298.958 91.2017C300.135 91.562 300.939 92.6484 300.939 93.8791C300.939 99.6794 296.63 104.577 290.877 105.315L263.236 108.861C256.939 109.669 251.439 104.594 251.738 98.2523L254.127 47.6374C254.561 38.4441 261.834 31.0448 271.019 30.4526Z" fill="white" stroke="#372898" stroke-width="0.729299" stroke-linecap="round"/>
<path fill-rule="evenodd" clip-rule="evenodd" d="M319.029 246.538C320.171 248.485 319.183 250.987 317.018 251.629L297.847 235.609C297.239 235.101 296.864 234.367 296.808 233.577L296.18 224.703L292.219 230.644L286.335 225.529L298.988 212.701C299.777 211.901 301.051 211.853 301.899 212.589C301.899 212.589 306.523 225.994 309.599 232.518C312.676 239.042 312.066 234.663 312.066 234.663L319.029 246.538Z" fill="#372898"/>
<path fill-rule="evenodd" clip-rule="evenodd" d="M255.287 15.3379L256.6 9.65303C258.308 3.87255 264.272 2.03225 269.465 4.73259C275.102 7.66328 275.308 11.3042 274.583 17.6861C273.858 24.068 271.721 27.0161 265.741 25.1878C263.836 24.6056 261.217 22.882 261.217 22.882" fill="white"/>
<path d="M255.287 15.3379L256.6 9.65303C258.308 3.87255 264.272 2.03225 269.465 4.73259C275.102 7.66328 275.308 11.3042 274.583 17.6861C273.858 24.068 271.721 27.0161 265.741 25.1878C263.836 24.6056 261.217 22.882 261.217 22.882" stroke="#372898" stroke-width="0.729299" stroke-linecap="round"/>
<path fill-rule="evenodd" clip-rule="evenodd" d="M257.983 18.1351C257.008 17.1345 256.606 15.5864 257.065 14.0834C257.719 11.9436 259.874 10.7055 261.877 11.3179C262.596 11.5377 263.197 11.9658 263.643 12.5233" fill="white"/>
<path d="M257.983 18.1351C257.008 17.1345 256.606 15.5864 257.065 14.0834C257.719 11.9436 259.874 10.7055 261.877 11.3179C262.596 11.5377 263.197 11.9658 263.643 12.5233" stroke="#372898" stroke-width="0.729299" stroke-linecap="round"/>
<path fill-rule="evenodd" clip-rule="evenodd" d="M259.961 11.3165C259.961 11.3165 261.161 10.8469 261.724 10.975C262.631 11.1815 263.505 12.1225 263.87 12.2188C266.345 12.8733 272.314 6.11535 272.314 6.11535C272.314 6.11535 266.307 3.30798 263.647 3.4024C262.106 3.45712 260.269 4.73404 258.997 5.79835C257.931 6.69019 257.232 7.9208 256.817 9.24723L254.675 16.0939C254.675 16.0939 256.292 17.9754 256.634 18.1891C256.975 18.4027 257.995 18.1707 257.995 18.1707C257.995 18.1707 257.765 17.5188 257.364 16.8919C257.009 16.3362 256.488 15.6897 256.579 15.0665C256.871 13.0771 259.961 11.3165 259.961 11.3165Z" fill="#372898"/>
<path fill-rule="evenodd" clip-rule="evenodd" d="M274.137 83.2031V88.6728V83.2031Z" fill="white"/>
<path d="M274.137 83.2031V88.6728" stroke="#372898" stroke-width="0.729299" stroke-linecap="round"/>
<path fill-rule="evenodd" clip-rule="evenodd" d="M257.91 18.1488C257.91 18.1488 258.457 21.9776 257.181 26.5357C255.905 31.0938 252.987 32.9171 249.523 35.2873C246.059 37.6575 241.589 38.4346 239.86 37.2929C238.131 36.1512 237.125 32.9171 239.86 28.9059C242.595 24.8948 245.746 28.6799 249.523 24.1655C252.389 20.7409 257.91 7.3916 257.91 7.3916C257.91 7.3916 256.087 12.2536 256.087 14.3199C256.087 16.3863 257.91 18.1488 257.91 18.1488Z" fill="#372898"/>
<path fill-rule="evenodd" clip-rule="evenodd" d="M548.98 221.903L548.98 225.002L553.538 220.262L553.356 219.897L549.527 220.991L548.98 221.903Z" fill="#372898"/>
<path fill-rule="evenodd" clip-rule="evenodd" d="M382.518 255.353H427.005H382.518Z" fill="white"/>
<path d="M382.518 255.353H427.005" stroke="#372898" stroke-width="0.729299" stroke-linecap="round"/>
<path fill-rule="evenodd" clip-rule="evenodd" d="M386.164 265.017H423.358H386.164Z" fill="white"/>
<path d="M386.164 265.017H423.358" stroke="#372898" stroke-width="0.729299" stroke-linecap="round"/>
<path fill-rule="evenodd" clip-rule="evenodd" d="M382.153 305.128H385.799V316.797H382.153V305.128ZM378.871 305.128H375.225V316.797H378.871V305.128ZM378.871 324.09H375.224V335.759H378.871V324.09ZM385.799 324.09H382.153V335.759H385.799V324.09ZM389.081 305.128H392.728V316.797H389.081V305.128ZM392.728 324.09H389.081V335.759H392.728V324.09ZM396.01 305.128H399.656V316.797H396.01V305.128ZM399.656 324.09H396.01V335.759H399.656V324.09ZM402.938 305.128H406.584V316.797H402.938V305.128ZM413.513 305.128H409.866V316.797H413.513V305.128Z" fill="#372898"/>
<path fill-rule="evenodd" clip-rule="evenodd" d="M416.795 305.128H420.441V316.797H416.795V305.128ZM406.584 324.09H402.938V335.759H406.584V324.09ZM413.513 324.09H409.866V335.759H413.513V324.09ZM420.441 324.09H416.795V335.759H420.441V324.09ZM423.723 305.128H427.369V316.797H423.723V305.128ZM427.369 324.09H423.723V335.759H427.369V324.09ZM430.651 305.128H434.298V316.797H430.651V305.128ZM434.298 324.09H430.651V335.759H434.298V324.09Z" fill="white"/>
<path d="M420.441 305.128H420.806V304.763H420.441V305.128ZM416.795 305.128V304.763H416.43V305.128H416.795ZM420.441 316.797V317.161H420.806V316.797H420.441ZM416.795 316.797H416.43V317.161H416.795V316.797ZM402.938 324.09V323.725H402.573V324.09H402.938ZM406.584 324.09H406.949V323.725H406.584V324.09ZM402.938 335.759H402.573V336.123H402.938V335.759ZM406.584 335.759V336.123H406.949V335.759H406.584ZM409.866 324.09V323.725H409.502V324.09H409.866ZM413.513 324.09H413.877V323.725H413.513V324.09ZM409.866 335.759H409.502V336.123H409.866V335.759ZM413.513 335.759V336.123H413.877V335.759H413.513ZM416.795 324.09V323.725H416.43V324.09H416.795ZM420.441 324.09H420.806V323.725H420.441V324.09ZM416.795 335.759H416.43V336.123H416.795V335.759ZM420.441 335.759V336.123H420.806V335.759H420.441ZM427.369 305.128H427.734V304.763H427.369V305.128ZM423.723 305.128V304.763H423.358V305.128H423.723ZM427.369 316.797V317.161H427.734V316.797H427.369ZM423.723 316.797H423.358V317.161H423.723V316.797ZM423.723 324.09V323.725H423.358V324.09H423.723ZM427.369 324.09H427.734V323.725H427.369V324.09ZM423.723 335.759H423.358V336.123H423.723V335.759ZM427.369 335.759V336.123H427.734V335.759H427.369ZM434.298 305.128H434.662V304.763H434.298V305.128ZM430.651 305.128V304.763H430.287V305.128H430.651ZM434.298 316.797V317.161H434.662V316.797H434.298ZM430.651 316.797H430.287V317.161H430.651V316.797ZM430.651 324.09V323.725H430.287V324.09H430.651ZM434.298 324.09H434.662V323.725H434.298V324.09ZM430.651 335.759H430.287V336.123H430.651V335.759ZM434.298 335.759V336.123H434.662V335.759H434.298ZM420.441 304.763H416.795V305.493H420.441V304.763ZM420.806 316.797V305.128H420.076V316.797H420.806ZM416.795 317.161H420.441V316.432H416.795V317.161ZM416.43 305.128V316.797H417.159V305.128H416.43ZM402.938 324.454H406.584V323.725H402.938V324.454ZM403.303 335.759V324.09H402.573V335.759H403.303ZM406.584 335.394H402.938V336.123H406.584V335.394ZM406.22 324.09V335.759H406.949V324.09H406.22ZM409.866 324.454H413.513V323.725H409.866V324.454ZM410.231 335.759V324.09H409.502V335.759H410.231ZM413.513 335.394H409.866V336.123H413.513V335.394ZM413.148 324.09V335.759H413.877V324.09H413.148ZM416.795 324.454H420.441V323.725H416.795V324.454ZM417.159 335.759V324.09H416.43V335.759H417.159ZM420.441 335.394H416.795V336.123H420.441V335.394ZM420.076 324.09V335.759H420.806V324.09H420.076ZM427.369 304.763H423.723V305.493H427.369V304.763ZM427.734 316.797V305.128H427.005V316.797H427.734ZM423.723 317.161H427.369V316.432H423.723V317.161ZM423.358 305.128V316.797H424.087V305.128H423.358ZM423.723 324.454H427.369V323.725H423.723V324.454ZM424.087 335.759V324.09H423.358V335.759H424.087ZM427.369 335.394H423.723V336.123H427.369V335.394ZM427.005 324.09V335.759H427.734V324.09H427.005ZM434.298 304.763H430.651V305.493H434.298V304.763ZM434.662 316.797V305.128H433.933V316.797H434.662ZM430.651 317.161H434.298V316.432H430.651V317.161ZM430.287 305.128V316.797H431.016V305.128H430.287ZM430.651 324.454H434.298V323.725H430.651V324.454ZM431.016 335.759V324.09H430.287V335.759H431.016ZM434.298 335.394H430.651V336.123H434.298V335.394ZM433.933 324.09V335.759H434.662V324.09H433.933Z" fill="#372898"/>
<path fill-rule="evenodd" clip-rule="evenodd" d="M459.78 235.591L452.763 229.738C451.909 229.026 450.639 229.151 449.939 230.014C449.311 230.79 449.354 231.912 450.041 232.637L456.337 239.284L452.287 242.809C450.121 244.695 450.329 248.121 452.706 249.732L467.798 259.957C467.828 259.977 467.859 259.995 467.891 260.011L471.323 261.66L476.586 252.226C476.749 251.935 476.693 251.57 476.45 251.341L459.78 235.591Z" fill="white" stroke="#372898" stroke-width="0.729299" stroke-linecap="round"/>
<path fill-rule="evenodd" clip-rule="evenodd" d="M414.404 460.475L421.061 452.678L411.378 441.659L402.723 452.406L414.404 460.475ZM505.404 464.212L507.045 452.543H490.818V465.671L505.404 464.212Z" fill="white"/>
<path d="M421.061 452.678L421.338 452.915L421.543 452.675L421.335 452.438L421.061 452.678ZM414.404 460.475L414.197 460.775L414.468 460.962L414.682 460.712L414.404 460.475ZM411.378 441.659L411.652 441.419L411.366 441.093L411.094 441.431L411.378 441.659ZM402.723 452.406L402.439 452.178L402.193 452.483L402.516 452.706L402.723 452.406ZM507.045 452.543L507.406 452.594L507.465 452.179H507.045V452.543ZM505.404 464.212L505.441 464.575L505.726 464.546L505.765 464.263L505.404 464.212ZM490.818 452.543V452.179H490.454V452.543H490.818ZM490.818 465.671H490.454V466.074L490.855 466.034L490.818 465.671ZM420.784 452.441L414.127 460.238L414.682 460.712L421.338 452.915L420.784 452.441ZM411.104 441.9L420.787 452.919L421.335 452.438L411.652 441.419L411.104 441.9ZM403.007 452.635L411.662 441.888L411.094 441.431L402.439 452.178L403.007 452.635ZM414.612 460.175L402.931 452.106L402.516 452.706L414.197 460.775L414.612 460.175ZM506.684 452.493L505.043 464.161L505.765 464.263L507.406 452.594L506.684 452.493ZM490.818 452.908H507.045V452.179H490.818V452.908ZM491.183 465.671V452.543H490.454V465.671H491.183ZM505.368 463.849L490.782 465.308L490.855 466.034L505.441 464.575L505.368 463.849Z" fill="#372898"/>
<path fill-rule="evenodd" clip-rule="evenodd" d="M408.231 469.223L415.857 459.364C415.857 459.364 411.539 459.09 408.182 454.698C404.825 450.306 405.324 447.665 405.324 447.665C405.324 447.665 400.827 445.311 399.363 444.904C398.308 444.61 397.426 444.444 396.64 444.296C394.978 443.984 393.741 443.751 392.184 442.56C381.488 434.375 379.716 436.723 378.706 438.06C378.694 438.077 378.681 438.094 378.669 438.11C377.665 439.436 379.433 442.889 379.433 442.889L391.395 456.173L397.701 463.178L405.422 471.752L408.231 469.223ZM508.322 472.831L506.098 460.566C506.098 460.566 503.005 463.591 497.494 463.148C491.984 462.704 490.356 460.566 490.356 460.566C490.356 460.566 485.597 462.332 484.315 463.148C483.39 463.735 482.677 464.28 482.041 464.765C480.697 465.791 479.697 466.555 477.77 466.915C464.53 469.387 465.089 472.275 465.407 473.919C465.411 473.94 465.415 473.961 465.419 473.981C465.733 475.614 469.482 476.61 469.482 476.61H487.358H496.783H508.322V472.831Z" fill="#372898"/>
<path d="M514.521 476.61L538.641 349.712H580.486L603.131 476.61" stroke="#372898" stroke-width="0.729299"/>
<path fill-rule="evenodd" clip-rule="evenodd" d="M580.413 238.129C592.959 238.129 603.131 248.301 603.131 260.847V325.098C603.131 337.16 594.456 347.194 583.005 349.304C581.96 349.571 580.865 349.712 579.737 349.712H578.536C578.53 349.712 578.523 349.712 578.517 349.712H569.016C569.009 349.712 569.003 349.712 568.996 349.712H521.87C514.589 349.712 508.686 343.81 508.686 336.529C508.686 329.248 514.589 323.345 521.87 323.345H544.46C544.539 322.27 544.69 321.186 544.916 320.097L558.169 256.231C560.357 245.688 569.645 238.129 580.413 238.129Z" fill="white"/>
<path d="M583.005 349.304L582.915 348.951L582.926 348.948L582.939 348.945L583.005 349.304ZM544.46 323.345L544.823 323.372L544.798 323.71H544.46V323.345ZM544.916 320.097L545.273 320.171V320.171L544.916 320.097ZM558.169 256.231L557.812 256.157L558.169 256.231ZM602.766 260.847C602.766 248.502 592.758 238.494 580.413 238.494V237.765C593.161 237.765 603.495 248.099 603.495 260.847H602.766ZM602.766 325.098V260.847H603.495V325.098H602.766ZM582.939 348.945C594.22 346.867 602.766 336.98 602.766 325.098H603.495C603.495 337.339 594.691 347.522 583.071 349.663L582.939 348.945ZM579.737 349.348C580.834 349.348 581.899 349.21 582.915 348.951L583.095 349.657C582.021 349.931 580.895 350.077 579.737 350.077V349.348ZM578.536 349.348H579.737V350.077H578.536V349.348ZM578.517 349.348C578.52 349.348 578.523 349.348 578.526 349.348C578.53 349.348 578.533 349.348 578.536 349.348V350.077C578.533 350.077 578.53 350.077 578.527 350.077C578.523 350.077 578.52 350.077 578.517 350.077V349.348ZM569.016 349.348H578.517V350.077H569.016V349.348ZM568.996 349.348C569 349.348 569.003 349.348 569.006 349.348C569.01 349.348 569.013 349.348 569.016 349.348V350.077C569.013 350.077 569.009 350.077 569.006 350.077C569.003 350.077 568.999 350.077 568.996 350.077V349.348ZM521.87 349.348H568.996V350.077H521.87V349.348ZM509.051 336.529C509.051 343.608 514.79 349.348 521.87 349.348V350.077C514.387 350.077 508.322 344.011 508.322 336.529H509.051ZM521.87 323.71C514.79 323.71 509.051 329.449 509.051 336.529H508.322C508.322 329.046 514.387 322.98 521.87 322.98V323.71ZM544.46 323.71H521.87V322.98H544.46V323.71ZM545.273 320.171C545.05 321.245 544.901 322.313 544.823 323.372L544.096 323.318C544.176 322.228 544.329 321.128 544.558 320.023L545.273 320.171ZM558.526 256.305L545.273 320.171L544.558 320.023L557.812 256.157L558.526 256.305ZM580.413 238.494C569.818 238.494 560.678 245.932 558.526 256.305L557.812 256.157C560.035 245.445 569.472 237.765 580.413 237.765V238.494Z" fill="#372898"/>
<path fill-rule="evenodd" clip-rule="evenodd" d="M537.311 303.037L496.683 299.02C484.073 297.773 473.291 308.003 473.875 320.661L476.231 371.79L406.164 440.108L423.423 459.443L479.332 412.614L481.702 453.455L509.233 453.455L507.775 387.271L564.645 343.899L581.698 331.444C586.536 327.911 588.87 321.881 587.671 316.012L584.351 299.755L552.711 289.778L537.311 303.037Z" fill="#5554C3"/>
<mask id="mask3" mask-type="alpha" maskUnits="userSpaceOnUse" x="379" y="250" width="239" height="250">
<path fill-rule="evenodd" clip-rule="evenodd" d="M537.311 303.037L496.683 299.02C484.073 297.773 473.291 308.003 473.875 320.661L476.231 371.79L406.164 440.108L423.423 459.443L479.332 412.614L481.702 453.455L509.233 453.455L507.775 387.271L564.645 343.899L581.698 331.444C586.536 327.911 588.87 321.881 587.671 316.012L584.351 299.755L552.711 289.778L537.311 303.037Z" fill="white"/>
</mask>
<g mask="url(#mask3)">
<path fill-rule="evenodd" clip-rule="evenodd" d="M567.759 300.485C567.759 300.485 570.58 313.247 586.721 313.247C595.262 313.247 592.686 300.375 579.704 295.015C576.33 293.622 567.759 300.485 567.759 300.485ZM478.42 413.526L508.322 386.907L508.232 402.404L480.519 424.465L478.42 413.526ZM472.768 294.832L473.39 361.14L475.489 372.08L539.228 312.518L542.327 299.026L472.768 294.832Z" fill="#372898"/>
</g>
<path fill-rule="evenodd" clip-rule="evenodd" d="M536.493 228.831L506.591 268.031L472.679 242.505L455.541 256.362L501.772 296.154C506.24 299.999 513.027 299.273 516.58 294.569L556.18 242.141L536.493 228.831Z" fill="white" stroke="#372898" stroke-width="0.729299" stroke-linecap="round"/>
<path fill-rule="evenodd" clip-rule="evenodd" d="M547.4 226.339L540.406 226.66C536.583 226.836 533.627 230.077 533.802 233.899C533.812 234.103 533.83 234.305 533.857 234.507L542.506 298.661L585.534 298.661L584.832 293.324L585.894 232.598C585.96 228.772 582.913 225.617 579.087 225.55C579.036 225.549 578.984 225.548 578.932 225.549L565.438 225.616" fill="white"/>
<path d="M547.4 226.339L540.406 226.66C536.583 226.836 533.627 230.077 533.802 233.899C533.812 234.103 533.83 234.305 533.857 234.507L542.506 298.661L585.534 298.661L584.832 293.324L585.894 232.598C585.96 228.772 582.913 225.617 579.087 225.55C579.036 225.549 578.984 225.548 578.932 225.549V225.549L565.438 225.616" stroke="#372898" stroke-width="0.729299"/>
<path fill-rule="evenodd" clip-rule="evenodd" d="M499.512 271.77L514.472 313.664L547.146 315.046L532.512 271.77L499.512 271.77Z" fill="white" stroke="#372898" stroke-width="0.729299" stroke-linecap="round"/>
<path fill-rule="evenodd" clip-rule="evenodd" d="M553.608 294.151L562.107 293.009L567.03 303.949L555.677 307.939C555.677 307.939 548.56 311.701 546.428 312.7C545.336 313.212 543.021 313.2 541.021 313.066C538.788 312.917 536.851 311.559 535.752 309.609L533.298 305.254C531.852 302.687 533.554 299.485 536.491 299.248L539.033 299.043C540.302 298.941 541.15 297.69 540.775 296.473L540.411 294.832L553.608 294.151Z" fill="white" stroke="#372898" stroke-width="0.729299"/>
<path fill-rule="evenodd" clip-rule="evenodd" d="M588.895 224.982C579.618 225.261 573.341 234.547 576.54 243.26L590.457 281.158L559.597 290.705L566.208 305.772L607.725 298.545C613.951 297.462 617.707 291.04 615.6 285.082L596.084 229.904C595.013 226.875 592.107 224.885 588.895 224.982Z" fill="white" stroke="#372898" stroke-width="0.729299" stroke-linecap="round"/>
<path fill-rule="evenodd" clip-rule="evenodd" d="M505.769 271.86L507.045 274.959H527.101L525.825 271.86L521.631 271.313L520.72 268.76H510.509L511.239 271.313L505.769 271.86Z" fill="#372898"/>
<path fill-rule="evenodd" clip-rule="evenodd" d="M548.98 221.538L548.98 226.278C548.98 226.278 548.462 227.735 549.527 229.013C550.592 230.291 555.361 233.936 555.361 233.936C555.361 233.936 560.343 230.606 561.925 228.831C563.507 227.056 562.837 225.549 562.837 225.549L562.24 214.234L562.906 207.893C563.197 201.313 557.693 197.289 551.37 198.232C544.508 199.255 542.676 204.163 541.155 211.015C539.634 217.868 540.876 220.882 547.701 221.12C548.079 221.133 548.487 221.116 548.927 221.068C550.176 220.932 553.434 219.92 553.434 219.92" fill="white"/>
<path d="M548.98 221.538L548.98 226.278C548.98 226.278 548.462 227.735 549.527 229.013C550.592 230.291 555.361 233.936 555.361 233.936C555.361 233.936 560.343 230.606 561.925 228.831C563.507 227.056 562.837 225.549 562.837 225.549L562.24 214.234L562.906 207.893C563.197 201.313 557.693 197.289 551.37 198.232C544.508 199.255 542.676 204.163 541.155 211.015C539.634 217.868 540.876 220.882 547.701 221.12C548.079 221.133 548.487 221.116 548.927 221.068C550.176 220.932 553.434 219.92 553.434 219.92" stroke="#372898" stroke-width="0.729299" stroke-linecap="round"/>
<path fill-rule="evenodd" clip-rule="evenodd" d="M558.461 216.165C559.824 215.478 560.79 214.022 560.85 212.305C560.935 209.862 559.151 207.816 556.865 207.736C556.044 207.707 555.271 207.936 554.612 208.353" fill="white"/>
<path d="M558.461 216.165C559.824 215.478 560.79 214.022 560.85 212.305C560.935 209.862 559.151 207.816 556.865 207.736C556.044 207.707 555.271 207.936 554.612 208.353" stroke="#372898" stroke-width="0.729299" stroke-linecap="round"/>
<path fill-rule="evenodd" clip-rule="evenodd" d="M554.13 209.527L554.267 206.405C554.267 206.405 549.325 205.294 547.703 204.582C546.082 203.869 544.628 202.171 544.628 202.171C544.628 202.171 540.257 201.695 540.775 200.935C543.51 196.924 553.604 197.449 554.814 197.653C557.785 198.156 558.686 199.716 558.686 199.716C558.686 199.716 558.889 200.154 561.54 202.195C564.19 204.236 562.795 213.706 562.795 213.706L560.618 213.459L560.318 213.499C560.437 213.153 560.507 212.784 560.52 212.4C560.593 210.311 558.96 208.558 556.871 208.485C555.813 208.448 554.84 208.85 554.13 209.527Z" fill="#372898"/>
<path fill-rule="evenodd" clip-rule="evenodd" d="M548.798 224.637C548.798 224.637 544.24 225.184 544.787 227.555C545.334 229.925 545.753 235.03 545.753 235.03L554.322 229.378C554.322 229.378 551.047 229.666 550.074 228.831C549.101 227.996 548.798 224.637 548.798 224.637Z" fill="white" stroke="#372898" stroke-width="0.729299" stroke-linecap="round"/>
<path fill-rule="evenodd" clip-rule="evenodd" d="M554.268 229.378L555.361 234.118L550.986 231.748L554.268 229.378Z" fill="white" stroke="#372898" stroke-width="0.729299" stroke-linecap="round"/>
<path fill-rule="evenodd" clip-rule="evenodd" d="M562.837 223.543C562.837 223.543 567.337 223.619 567.041 226.034C566.744 228.448 565.484 233.897 565.484 233.897L556.371 229.172C556.371 229.172 560.819 228.362 561.925 227.372C563.031 226.382 562.837 223.543 562.837 223.543Z" fill="white" stroke="#372898" stroke-width="0.729299" stroke-linecap="round"/>
<path fill-rule="evenodd" clip-rule="evenodd" d="M556.425 229.166L555.833 233.995L559.937 231.18L556.425 229.166Z" fill="white" stroke="#372898" stroke-width="0.729299" stroke-linecap="round"/>
<path fill-rule="evenodd" clip-rule="evenodd" d="M171.021 176.321H221.525H171.021Z" fill="white"/>
<path d="M171.021 176.321H221.525" stroke="#372898" stroke-width="0.729299" stroke-linecap="round"/>
<path fill-rule="evenodd" clip-rule="evenodd" d="M146.008 447.997C146.008 447.997 156.083 460.415 158.494 460.052C160.904 459.689 156.841 446.366 156.841 446.366L136.881 319.39C135.62 311.368 127.909 306.029 119.956 307.671L44.3757 323.275L112.748 348.765L146.008 447.997Z" fill="white" stroke="#372898" stroke-width="0.729299"/>
<path fill-rule="evenodd" clip-rule="evenodd" d="M101.219 287.855C102.041 287.592 102.933 287.956 103.337 288.719C103.56 289.14 103.515 289.653 103.222 290.029L101.86 291.775C101.162 292.672 100.249 293.376 99.2196 293.858C98.1255 294.369 96.6522 295.088 95.4373 295.785C92.2134 297.634 88.6683 298.96 84.9515 298.979L72.3468 299.045L65.0211 298.845L68.2828 293.012L76.7198 291.071C79.8849 290.343 83.1534 290.176 86.376 290.58L87.6167 290.735C87.6167 290.735 90.1212 291.186 92.0114 290.697C93.4244 290.332 98.664 288.67 101.219 287.855Z" fill="white" stroke="#372898" stroke-width="0.729299"/>
<path fill-rule="evenodd" clip-rule="evenodd" d="M100.325 335.687C101.048 335.789 101.716 335.285 101.817 334.563C101.919 333.84 101.416 333.172 100.693 333.071C99.9705 332.969 99.3025 333.472 99.201 334.195C99.0994 334.917 99.6028 335.586 100.325 335.687Z" fill="white"/>
<path fill-rule="evenodd" clip-rule="evenodd" d="M104.686 336.3C105.409 336.402 106.077 335.898 106.178 335.176C106.28 334.453 105.776 333.785 105.054 333.684C104.331 333.582 103.663 334.085 103.562 334.808C103.46 335.53 103.964 336.198 104.686 336.3Z" fill="white"/>
<path fill-rule="evenodd" clip-rule="evenodd" d="M109.047 336.913C109.769 337.014 110.437 336.511 110.539 335.788C110.64 335.066 110.137 334.398 109.415 334.296C108.692 334.195 108.024 334.698 107.922 335.421C107.821 336.143 108.324 336.811 109.047 336.913Z" fill="white"/>
<path fill-rule="evenodd" clip-rule="evenodd" d="M95.9737 449.773C95.9737 449.773 99.3132 465.411 101.626 466.182C103.938 466.953 106.366 453.237 106.366 453.237L144.776 335.49C147.774 326.298 140.924 316.858 131.256 316.858L64.9992 316.858C64.9992 316.858 50.1442 309.543 38.1974 308.289C26.2506 307.035 28.8988 311.388 28.8988 311.388L29.7558 338.076C29.9895 345.355 35.958 351.135 43.2409 351.135L110.742 351.135L95.9737 449.773Z" fill="white" stroke="#372898" stroke-width="0.729299"/>
<path fill-rule="evenodd" clip-rule="evenodd" d="M45.3989 237.4L43.0287 247.246H31.9069L37.5589 232.113L45.3989 237.4Z" fill="white"/>
<path fill-rule="evenodd" clip-rule="evenodd" d="M41.85 289.282L70.6049 288.164C73.2232 288.062 75.6227 289.618 76.5988 292.049L81.0836 303.223L51.2528 304.163C43.5956 304.405 38.41 296.441 41.7282 289.536L41.85 289.282Z" fill="white" stroke="#372898" stroke-width="0.729299" stroke-linecap="round"/>
<path fill-rule="evenodd" clip-rule="evenodd" d="M124.832 266.444L90.4475 260.998L77.5742 301.417L111.283 306.756L124.832 266.444Z" fill="white" stroke="#372898" stroke-width="0.729299" stroke-linecap="round"/>
<path fill-rule="evenodd" clip-rule="evenodd" d="M123.164 267.657L91.2131 262.596L80.705 295.636L112.027 300.597L123.164 267.657Z" fill="white" stroke="#372898" stroke-width="0.729299" stroke-linecap="round"/>
<path fill-rule="evenodd" clip-rule="evenodd" d="M94.4269 302.24C95.2225 302.366 95.9697 301.823 96.0957 301.027C96.2217 300.232 95.6789 299.485 94.8832 299.359C94.0876 299.233 93.3404 299.775 93.2144 300.571C93.0884 301.367 93.6312 302.114 94.4269 302.24Z" fill="white" stroke="#372898" stroke-width="0.729299" stroke-linecap="round"/>
<path fill-rule="evenodd" clip-rule="evenodd" d="M85.9225 297.896L94.5191 294.796C95.5642 294.419 96.7157 294.97 97.0776 296.02C97.4029 296.965 96.9785 298.004 96.085 298.451L87.8955 302.544L90.4948 307.241C91.8854 309.754 90.5188 312.903 87.7334 313.603L70.0547 318.05C70.02 318.059 69.9846 318.065 69.9489 318.068L66.1602 318.445L64.4409 307.779C64.3877 307.45 64.5651 307.126 64.8715 306.994L85.9225 297.896Z" fill="white" stroke="#372898" stroke-width="0.729299" stroke-linecap="round"/>
<path fill-rule="evenodd" clip-rule="evenodd" d="M105.216 317.13L64.8168 316.956C64.8168 316.956 49.9619 309.641 38.0151 308.387C26.0683 307.133 20.5119 311.571 20.5119 311.571L23.9548 339.511C24.788 346.273 30.5322 351.353 37.3455 351.353L99.0732 351.353L105.216 317.13Z" fill="#5554C3"/>
<path fill-rule="evenodd" clip-rule="evenodd" d="M20.0726 255.848C20.316 250.456 24.8542 246.266 30.2478 246.452L41.6409 246.845L55.6783 248.52L39.5137 297.306L43.0545 306.648L20.4913 311.606L18.7347 293.562C18.5689 291.858 18.5244 290.146 18.6016 288.436L20.0726 255.848Z" fill="white" stroke="#372898" stroke-width="0.729299" stroke-linecap="round"/>
<path fill-rule="evenodd" clip-rule="evenodd" d="M57.4956 247.657C60.3886 247.471 62.8062 249.831 62.6894 252.728L60.6866 302.415L68.7777 301.439C71.0418 301.166 73.2731 302.158 74.587 304.022L82.117 314.706L51.3475 323.635C44.6222 325.586 37.9731 320.342 38.3033 313.347L40.5924 264.854C41.0267 255.654 48.3046 248.25 57.4956 247.657Z" fill="white" stroke="#372898" stroke-width="0.729299" stroke-linecap="round"/>
<path fill-rule="evenodd" clip-rule="evenodd" d="M45.2877 237.624L42.7472 247.116L43.4517 247.304L45.9922 237.812L45.2877 237.624ZM30.3364 246.238L35.7701 230.942L35.0829 230.697L29.6492 245.994L30.3364 246.238Z" fill="white"/>
<path d="M42.7472 247.116L42.6529 247.468L42.3007 247.374L42.395 247.022L42.7472 247.116ZM45.2877 237.624L44.9354 237.529L45.0297 237.177L45.3819 237.271L45.2877 237.624ZM43.4517 247.304L43.804 247.399L43.7097 247.751L43.3575 247.657L43.4517 247.304ZM45.9922 237.812L46.0864 237.46L46.4387 237.554L46.3444 237.906L45.9922 237.812ZM35.7701 230.942L35.8922 230.598L36.2358 230.72L36.1137 231.064L35.7701 230.942ZM30.3364 246.238L30.68 246.36L30.5579 246.704L30.2143 246.582L30.3364 246.238ZM35.0829 230.697L34.7393 230.575L34.8613 230.232L35.205 230.354L35.0829 230.697ZM29.6492 245.994L29.5271 246.338L29.1835 246.216L29.3055 245.872L29.6492 245.994ZM42.395 247.022L44.9354 237.529L45.6399 237.718L43.0995 247.21L42.395 247.022ZM43.3575 247.657L42.6529 247.468L42.8415 246.764L43.546 246.952L43.3575 247.657ZM46.3444 237.906L43.804 247.399L43.0995 247.21L45.6399 237.718L46.3444 237.906ZM45.3819 237.271L46.0864 237.46L45.8979 238.164L45.1934 237.976L45.3819 237.271ZM36.1137 231.064L30.68 246.36L29.9928 246.116L35.4265 230.82L36.1137 231.064ZM35.205 230.354L35.8922 230.598L35.6481 231.285L34.9608 231.041L35.205 230.354ZM29.3055 245.872L34.7393 230.575L35.4265 230.82L29.9928 246.116L29.3055 245.872ZM30.2143 246.582L29.5271 246.338L29.7712 245.65L30.4584 245.895L30.2143 246.582Z" fill="#372898"/>
<path fill-rule="evenodd" clip-rule="evenodd" d="M9.5517 351.135H117.488L63.5198 478.981L9.5517 351.135Z" fill="white" stroke="#372898" stroke-width="0.729299" stroke-linecap="round"/>
<path fill-rule="evenodd" clip-rule="evenodd" d="M168.648 472.501C170.699 471.09 170.958 468.16 169.186 466.412L159.643 456.996C159.643 456.996 161.365 461.068 156.705 455.563C152.045 450.058 144.109 438.306 144.109 438.306C143.099 437.814 141.881 438.191 141.326 439.167L132.424 454.833L139.432 458.251L141.721 451.487L144.632 459.923C144.886 460.656 145.421 461.259 146.119 461.597L168.648 472.501ZM105.097 480.757C107.565 480.431 109.126 477.938 108.341 475.576L104.113 462.853C104.113 462.853 103.799 467.264 102.146 460.243C100.492 453.222 98.7565 439.148 98.7565 439.148C98.0807 438.251 96.8241 438.034 95.8865 438.652L80.8423 448.569L85.5346 454.796L90.6446 449.809L89.4095 458.646C89.3021 459.415 89.5053 460.195 89.9741 460.813L105.097 480.757Z" fill="#372898"/>
<path fill-rule="evenodd" clip-rule="evenodd" d="M34.8948 232.295L34.0754 226.907C33.4944 220.907 38.3344 216.967 44.1612 217.525C50.485 218.131 52.0401 221.43 53.7587 227.618C55.4773 233.807 54.5997 237.341 48.3702 237.886C46.3865 238.06 43.3126 237.443 43.3126 237.443" fill="white"/>
<path d="M34.8948 232.295L34.0754 226.907C33.4944 220.907 38.3344 216.967 44.1612 217.525C50.485 218.131 52.0401 221.43 53.7587 227.618C55.4773 233.807 54.5997 237.341 48.3702 237.886C46.3865 238.06 43.3126 237.443 43.3126 237.443" stroke="#372898" stroke-width="0.729299" stroke-linecap="round"/>
<path fill-rule="evenodd" clip-rule="evenodd" d="M38.5357 234.253C37.2572 233.69 36.3037 232.406 36.1667 230.84C35.9717 228.611 37.5053 226.656 39.5921 226.474C40.3408 226.408 41.059 226.58 41.6812 226.93" fill="white"/>
<path d="M38.5357 234.253C37.2572 233.69 36.3037 232.406 36.1667 230.84C35.9717 228.611 37.5053 226.656 39.5921 226.474C40.3408 226.408 41.059 226.58 41.6812 226.93" stroke="#372898" stroke-width="0.729299" stroke-linecap="round"/>
<path fill-rule="evenodd" clip-rule="evenodd" d="M37.8154 227.19C37.8154 227.19 38.7522 226.305 39.3221 226.213C40.2399 226.065 41.8232 227.008 41.8232 227.008C41.8232 227.008 46.9283 223.543 48.9338 222.085C50.9394 220.626 51.1217 220.626 51.1217 220.626C48.3345 216.85 43.13 215.842 39.0969 218.243C38.2462 218.749 37.4765 219.202 36.9004 219.532C34.8803 220.689 34.35 224.047 34.2126 225.543C34.1677 226.033 34.2005 226.523 34.27 227.01L35.0771 232.66C35.0771 232.66 36.0116 230.709 36.9004 228.831C37.1588 228.285 37.8154 227.19 37.8154 227.19Z" fill="#372898"/>
<path fill-rule="evenodd" clip-rule="evenodd" d="M43.8495 237.365L43.4521 245.375L43.8856 244.701L45.4576 237.9L43.8495 237.365Z" fill="#372898"/>
<path fill-rule="evenodd" clip-rule="evenodd" d="M60.6027 302.454V307.924V302.454Z" fill="white"/>
<path d="M60.6027 302.454V307.924" stroke="#372898" stroke-width="0.729299" stroke-linecap="round"/>
<path fill-rule="evenodd" clip-rule="evenodd" d="M104.173 351.135H125.021H104.173Z" fill="white"/>
<path d="M104.173 351.135H125.021" stroke="#372898" stroke-width="0.729299" stroke-linecap="round"/>
<path fill-rule="evenodd" clip-rule="evenodd" d="M105.272 316.711L109.283 309.783L73.9124 316.711H105.272Z" fill="#372898"/>
<path fill-rule="evenodd" clip-rule="evenodd" d="M37.2651 218.985C37.2651 218.985 34.8306 220.938 34.1656 221.903C24.3581 236.124 20.4912 243.646 20.4912 244.328C20.4912 244.842 21.8166 246.36 23.2233 247.825C24.9123 249.586 27.7631 249.291 29.167 247.296L29.9721 246.152C29.9721 246.152 37.4616 247.319 38.1767 242.505C38.3266 241.497 38.1767 234.483 38.1767 234.483C38.1767 234.483 37.108 233.919 36.5358 232.66C35.9636 231.401 37.2651 218.985 37.2651 218.985Z" fill="#372898"/>
</svg>
