<svg width="585" height="451" viewBox="0 0 585 451" fill="none" xmlns="http://www.w3.org/2000/svg">
<g clip-path="url(#clip0)">
<path fill-rule="evenodd" clip-rule="evenodd" d="M432.078 284.007C432.667 283.522 432.763 282.657 432.295 282.054L429.581 278.554C429.581 278.554 428.011 275.135 427.63 273.45C427.249 271.765 426.659 269.174 426.659 269.174C427.022 266.972 430.102 266.748 430.78 268.875L431.009 269.592L431.725 274.956C431.853 275.914 432.739 276.582 433.695 276.441C434.548 276.316 435.178 275.583 435.176 274.721L435.153 267.562C435.151 266.886 435.006 266.221 434.715 265.612C434.066 264.255 432.823 261.751 431.907 260.474C430.613 258.668 427.497 255.86 427.497 255.86L424.679 244.208L423.231 244.824L423.211 244.777L413.07 248.98L414.511 253.608L415.521 261.183L417.605 268.311C418.659 271.914 420.826 275.046 423.348 277.827C424.29 278.866 425.307 280.151 426.043 281.112C426.74 282.023 427.63 282.772 428.663 283.27L430.566 284.19C431.063 284.43 431.653 284.358 432.078 284.007Z" fill="white"/>
<path d="M432.295 282.054L432.009 282.276L432.295 282.054ZM432.078 284.007L431.848 283.728L432.078 284.007ZM429.581 278.554L429.294 278.776L429.269 278.743L429.252 278.705L429.581 278.554ZM427.63 273.45L427.984 273.37L427.63 273.45ZM426.659 269.174L426.305 269.255L426.289 269.186L426.301 269.115L426.659 269.174ZM430.78 268.875L430.435 268.985L430.78 268.875ZM431.009 269.592L431.355 269.482L431.365 269.513L431.369 269.544L431.009 269.592ZM431.725 274.956L432.085 274.908L432.085 274.908L431.725 274.956ZM433.695 276.441L433.748 276.8L433.748 276.8L433.695 276.441ZM435.176 274.721L435.538 274.72L435.538 274.72L435.176 274.721ZM435.153 267.562L435.516 267.56L435.153 267.562ZM434.715 265.612L434.388 265.768L434.388 265.768L434.715 265.612ZM431.907 260.474L431.612 260.685L431.907 260.474ZM427.497 255.86L427.254 256.129L427.17 256.054L427.144 255.945L427.497 255.86ZM424.679 244.208L424.537 243.875L424.931 243.707L425.032 244.123L424.679 244.208ZM423.231 244.824L423.373 245.158L423.035 245.302L422.895 244.963L423.231 244.824ZM423.211 244.777L423.072 244.442L423.408 244.303L423.547 244.639L423.211 244.777ZM413.07 248.98L412.723 249.088L412.625 248.771L412.931 248.644L413.07 248.98ZM414.511 253.608L414.857 253.5L414.867 253.529L414.871 253.56L414.511 253.608ZM415.521 261.183L415.173 261.285L415.165 261.258L415.161 261.231L415.521 261.183ZM417.605 268.311L417.954 268.209L417.954 268.209L417.605 268.311ZM423.348 277.827L423.616 277.583L423.348 277.827ZM426.043 281.112L425.755 281.333L425.755 281.333L426.043 281.112ZM428.663 283.27L428.505 283.597L428.663 283.27ZM430.566 284.19L430.408 284.517L430.566 284.19ZM432.582 281.831C433.17 282.589 433.049 283.677 432.309 284.287L431.848 283.728C432.285 283.367 432.356 282.724 432.009 282.276L432.582 281.831ZM429.868 278.331L432.582 281.831L432.009 282.276L429.294 278.776L429.868 278.331ZM427.984 273.37C428.166 274.178 428.642 275.428 429.084 276.495C429.302 277.025 429.509 277.502 429.662 277.847C429.738 278.019 429.8 278.158 429.844 278.254C429.865 278.302 429.882 278.339 429.894 278.365C429.899 278.377 429.904 278.387 429.907 278.393C429.908 278.396 429.909 278.399 429.91 278.4C429.91 278.401 429.911 278.401 429.911 278.402C429.911 278.402 429.911 278.402 429.911 278.402C429.911 278.402 429.911 278.402 429.911 278.402C429.911 278.402 429.911 278.402 429.581 278.554C429.252 278.705 429.251 278.705 429.251 278.705C429.251 278.705 429.251 278.705 429.251 278.705C429.251 278.705 429.251 278.705 429.251 278.705C429.251 278.704 429.251 278.703 429.25 278.703C429.249 278.701 429.248 278.698 429.247 278.695C429.244 278.688 429.239 278.678 429.233 278.665C429.222 278.64 429.204 278.602 429.182 278.553C429.138 278.455 429.075 278.314 428.998 278.14C428.844 277.791 428.634 277.308 428.413 276.772C427.974 275.709 427.474 274.407 427.276 273.53L427.984 273.37ZM426.659 269.174C427.012 269.094 427.012 269.094 427.012 269.094C427.012 269.094 427.012 269.094 427.012 269.094C427.012 269.094 427.013 269.094 427.013 269.094C427.013 269.095 427.013 269.095 427.013 269.096C427.013 269.097 427.014 269.099 427.014 269.101C427.015 269.106 427.017 269.114 427.019 269.123C427.024 269.143 427.03 269.171 427.039 269.208C427.055 269.283 427.08 269.39 427.111 269.525C427.172 269.794 427.258 270.171 427.355 270.6C427.55 271.458 427.793 272.527 427.984 273.37L427.276 273.53C427.086 272.688 426.843 271.619 426.648 270.761C426.55 270.332 426.464 269.955 426.403 269.686C426.372 269.551 426.348 269.444 426.331 269.37C426.323 269.333 426.316 269.304 426.312 269.284C426.309 269.275 426.308 269.267 426.307 269.262C426.306 269.26 426.306 269.258 426.305 269.257C426.305 269.256 426.305 269.256 426.305 269.255C426.305 269.255 426.305 269.255 426.305 269.255C426.305 269.255 426.305 269.255 426.305 269.255C426.305 269.255 426.305 269.255 426.659 269.174ZM430.435 268.985C429.872 267.221 427.318 267.407 427.017 269.233L426.301 269.115C426.726 266.536 430.332 266.274 431.126 268.765L430.435 268.985ZM430.663 269.703L430.435 268.985L431.126 268.765L431.355 269.482L430.663 269.703ZM431.366 275.004L430.649 269.641L431.369 269.544L432.085 274.908L431.366 275.004ZM433.748 276.8C432.592 276.97 431.52 276.162 431.366 275.004L432.085 274.908C432.186 275.665 432.887 276.193 433.642 276.082L433.748 276.8ZM435.538 274.72C435.542 275.762 434.779 276.648 433.748 276.8L433.642 276.082C434.316 275.983 434.815 275.404 434.813 274.722L435.538 274.72ZM435.516 267.56L435.538 274.72L434.813 274.722L434.791 267.563L435.516 267.56ZM435.042 265.455C435.358 266.115 435.514 266.834 435.516 267.56L434.791 267.563C434.789 266.939 434.655 266.326 434.388 265.768L435.042 265.455ZM432.202 260.262C433.14 261.57 434.396 264.105 435.042 265.455L434.388 265.768C433.735 264.405 432.506 261.932 431.612 260.685L432.202 260.262ZM427.497 255.86C427.739 255.59 427.739 255.59 427.739 255.59C427.74 255.59 427.74 255.59 427.74 255.59C427.74 255.59 427.74 255.591 427.74 255.591C427.741 255.591 427.741 255.592 427.742 255.592C427.744 255.594 427.746 255.596 427.749 255.599C427.755 255.604 427.764 255.612 427.776 255.623C427.799 255.644 427.834 255.676 427.878 255.716C427.966 255.797 428.094 255.915 428.251 256.061C428.565 256.355 428.998 256.764 429.471 257.231C430.412 258.159 431.535 259.332 432.202 260.262L431.612 260.685C430.985 259.81 429.902 258.676 428.962 257.748C428.494 257.287 428.067 256.882 427.756 256.592C427.601 256.447 427.475 256.331 427.388 256.251C427.344 256.212 427.311 256.181 427.288 256.16C427.277 256.15 427.268 256.142 427.262 256.137C427.259 256.134 427.257 256.132 427.256 256.131C427.255 256.13 427.254 256.13 427.254 256.13C427.254 256.129 427.254 256.129 427.254 256.129C427.254 256.129 427.254 256.129 427.254 256.129C427.254 256.129 427.254 256.129 427.497 255.86ZM425.032 244.123L427.849 255.774L427.144 255.945L424.326 244.294L425.032 244.123ZM423.089 244.491L424.537 243.875L424.821 244.542L423.373 245.158L423.089 244.491ZM423.547 244.639L423.566 244.686L422.895 244.963L422.876 244.916L423.547 244.639ZM412.931 248.644L423.072 244.442L423.35 245.112L413.209 249.315L412.931 248.644ZM414.165 253.716L412.723 249.088L413.416 248.872L414.857 253.5L414.165 253.716ZM415.161 261.231L414.151 253.656L414.871 253.56L415.881 261.135L415.161 261.231ZM417.257 268.413L415.173 261.285L415.869 261.081L417.954 268.209L417.257 268.413ZM423.079 278.071C420.538 275.268 418.332 272.089 417.257 268.413L417.954 268.209C418.986 271.739 421.114 274.823 423.616 277.583L423.079 278.071ZM425.755 281.333C425.021 280.374 424.01 279.098 423.079 278.071L423.616 277.583C424.569 278.634 425.593 279.928 426.331 280.892L425.755 281.333ZM428.505 283.597C427.417 283.072 426.484 282.285 425.755 281.333L426.331 280.892C426.996 281.76 427.842 282.471 428.82 282.944L428.505 283.597ZM430.408 284.517L428.505 283.597L428.82 282.944L430.724 283.863L430.408 284.517ZM432.309 284.287C431.775 284.728 431.032 284.818 430.408 284.517L430.724 283.863C431.093 284.041 431.532 283.988 431.848 283.728L432.309 284.287Z" fill="#372898"/>
<path fill-rule="evenodd" clip-rule="evenodd" d="M384.692 130.053L408.77 253.058L429.028 248.248L407.279 125.903C407.279 125.903 404.5 118.214 396.316 119.857C388.132 121.501 384.692 130.053 384.692 130.053Z" fill="#372898"/>
<path fill-rule="evenodd" clip-rule="evenodd" d="M442.47 410.946L451.507 424.857L441.638 440.324L429.376 418.082L442.47 410.946Z" fill="white" stroke="#372898" stroke-width="0.725664" stroke-linecap="round"/>
<path fill-rule="evenodd" clip-rule="evenodd" d="M365.692 429.789V438.497L351.178 439.948L348.639 426.886" fill="white"/>
<path d="M365.692 429.789V438.497L351.178 439.948L348.639 426.886" stroke="#372898" stroke-width="0.725664" stroke-linecap="round"/>
<path fill-rule="evenodd" clip-rule="evenodd" d="M399.08 205.547L389.222 236.426L378.603 284.174L450.529 414.344L428.706 422.795L351.833 302.529C348.363 297.1 346.726 290.7 347.162 284.272L352.637 203.551L399.08 205.547Z" fill="#5554C3"/>
<mask id="mask0" mask-type="alpha" maskUnits="userSpaceOnUse" x="347" y="203" width="104" height="220">
<path fill-rule="evenodd" clip-rule="evenodd" d="M399.08 205.547L389.222 236.426L378.603 284.174L450.529 414.344L428.706 422.795L351.833 302.529C348.363 297.1 346.726 290.7 347.162 284.272L352.637 203.551L399.08 205.547Z" fill="white"/>
</mask>
<g mask="url(#mask0)">
<path fill-rule="evenodd" clip-rule="evenodd" d="M404.195 199.195L393.491 299.518L363.92 334.35L368.637 352.31L341.969 279.743L404.195 199.195Z" fill="#372898"/>
</g>
<path fill-rule="evenodd" clip-rule="evenodd" d="M387.657 104.252L386.783 112.154L386.062 112.074L386.935 104.173L387.657 104.252ZM398.921 114.357L398.544 98.0528L399.269 98.0361L399.656 114.762L399.666 115.183L399.248 115.13L386.161 113.462L386.253 112.742L398.921 114.357Z" fill="white"/>
<path d="M386.783 112.154L386.743 112.515L387.104 112.555L387.144 112.194L386.783 112.154ZM387.657 104.252L388.017 104.292L388.057 103.932L387.697 103.892L387.657 104.252ZM386.062 112.074L385.701 112.034L385.661 112.395L386.022 112.435L386.062 112.074ZM386.935 104.173L386.975 103.812L386.615 103.772L386.575 104.133L386.935 104.173ZM398.544 98.0528L398.535 97.6901L398.173 97.6985L398.181 98.0612L398.544 98.0528ZM398.921 114.357L398.875 114.717L399.294 114.77L399.284 114.349L398.921 114.357ZM399.269 98.0361L399.632 98.0277L399.624 97.6649L399.261 97.6733L399.269 98.0361ZM399.656 114.762L399.294 114.77L399.656 114.762ZM399.666 115.183L399.62 115.543L400.039 115.597L400.029 115.175L399.666 115.183ZM399.248 115.13L399.294 114.77L399.248 115.13ZM386.161 113.462L385.802 113.416L385.756 113.776L386.116 113.822L386.161 113.462ZM386.253 112.742L386.299 112.382L385.939 112.336L385.893 112.696L386.253 112.742ZM387.144 112.194L388.017 104.292L387.296 104.213L386.423 112.114L387.144 112.194ZM386.022 112.435L386.743 112.515L386.823 111.793L386.102 111.714L386.022 112.435ZM386.575 104.133L385.701 112.034L386.423 112.114L387.296 104.213L386.575 104.133ZM387.697 103.892L386.975 103.812L386.896 104.533L387.617 104.613L387.697 103.892ZM398.181 98.0612L398.558 114.365L399.284 114.349L398.906 98.0444L398.181 98.0612ZM399.261 97.6733L398.535 97.6901L398.552 98.4156L399.278 98.3988L399.261 97.6733ZM400.019 114.753L399.632 98.0277L398.906 98.0444L399.294 114.77L400.019 114.753ZM400.029 115.175L400.019 114.753L399.294 114.77L399.303 115.192L400.029 115.175ZM399.202 115.49L399.62 115.543L399.712 114.824L399.294 114.77L399.202 115.49ZM386.116 113.822L399.202 115.49L399.294 114.77L386.207 113.102L386.116 113.822ZM385.893 112.696L385.802 113.416L386.521 113.508L386.613 112.788L385.893 112.696ZM398.967 113.997L386.299 112.382L386.207 113.102L398.875 114.717L398.967 113.997Z" fill="#372898"/>
<path fill-rule="evenodd" clip-rule="evenodd" d="M387.502 104.173L386.629 112.074L385.907 111.994L386.781 104.093L387.502 104.173ZM399.101 97.3548L399.115 97.9562L399.502 114.682L399.512 115.104L399.093 115.05L386.007 113.382L385.627 113.334L385.696 112.957L387.329 104.067L387.36 103.899L387.509 103.816L398.576 97.6477L399.101 97.3548ZM388.012 104.366L386.479 112.711L398.767 114.277L398.403 98.5744L388.012 104.366Z" fill="white"/>
<path d="M386.629 112.074L386.589 112.435L386.949 112.475L386.989 112.114L386.629 112.074ZM387.502 104.173L387.863 104.212L387.903 103.852L387.542 103.812L387.502 104.173ZM385.907 111.994L385.547 111.955L385.507 112.315L385.867 112.355L385.907 111.994ZM386.781 104.093L386.821 103.732L386.46 103.692L386.42 104.053L386.781 104.093ZM399.115 97.9562L399.478 97.9478L399.478 97.9478L399.115 97.9562ZM399.101 97.3548L399.464 97.3464L399.45 96.745L398.924 97.0379L399.101 97.3548ZM399.502 114.682L399.139 114.69L399.502 114.682ZM399.512 115.104L399.466 115.464L399.884 115.517L399.874 115.095L399.512 115.104ZM399.093 115.05L399.139 114.69L399.093 115.05ZM386.007 113.382L385.961 113.742L385.961 113.742L386.007 113.382ZM385.627 113.334L385.27 113.268L385.201 113.645L385.581 113.693L385.627 113.334ZM385.696 112.957L386.053 113.022L385.696 112.957ZM387.329 104.067L387.686 104.133L387.329 104.067ZM387.36 103.899L387.183 103.582L387.034 103.665L387.003 103.834L387.36 103.899ZM387.509 103.816L387.332 103.499L387.332 103.499L387.509 103.816ZM398.576 97.6477L398.399 97.3308L398.399 97.3308L398.576 97.6477ZM386.479 112.711L386.122 112.645L386.053 113.022L386.433 113.071L386.479 112.711ZM388.012 104.366L387.835 104.05L387.686 104.133L387.655 104.301L388.012 104.366ZM398.767 114.277L398.721 114.637L399.139 114.69L399.129 114.269L398.767 114.277ZM398.403 98.5744L398.766 98.566L398.752 97.9646L398.227 98.2575L398.403 98.5744ZM386.989 112.114L387.863 104.212L387.141 104.133L386.268 112.034L386.989 112.114ZM385.867 112.355L386.589 112.435L386.668 111.713L385.947 111.634L385.867 112.355ZM386.42 104.053L385.547 111.955L386.268 112.034L387.141 104.133L386.42 104.053ZM387.542 103.812L386.821 103.732L386.741 104.453L387.462 104.533L387.542 103.812ZM399.478 97.9478L399.464 97.3464L398.738 97.3632L398.752 97.9646L399.478 97.9478ZM399.865 114.674L399.478 97.9478L398.752 97.9646L399.139 114.69L399.865 114.674ZM399.874 115.095L399.865 114.674L399.139 114.69L399.149 115.112L399.874 115.095ZM399.047 115.41L399.466 115.464L399.558 114.744L399.139 114.69L399.047 115.41ZM385.961 113.742L399.047 115.41L399.139 114.69L386.053 113.022L385.961 113.742ZM385.581 113.693L385.961 113.742L386.053 113.022L385.673 112.974L385.581 113.693ZM385.339 112.891L385.27 113.268L385.984 113.399L386.053 113.022L385.339 112.891ZM386.972 104.002L385.339 112.891L386.053 113.022L387.686 104.133L386.972 104.002ZM387.003 103.834L386.972 104.002L387.686 104.133L387.717 103.965L387.003 103.834ZM387.332 103.499L387.183 103.582L387.536 104.216L387.686 104.133L387.332 103.499ZM398.399 97.3308L387.332 103.499L387.686 104.133L398.752 97.9646L398.399 97.3308ZM398.924 97.0379L398.399 97.3308L398.752 97.9646L399.278 97.6717L398.924 97.0379ZM386.836 112.776L388.369 104.432L387.655 104.301L386.122 112.645L386.836 112.776ZM398.813 113.917L386.525 112.351L386.433 113.071L398.721 114.637L398.813 113.917ZM398.041 98.5828L398.404 114.285L399.129 114.269L398.766 98.566L398.041 98.5828ZM388.188 104.683L398.58 98.8913L398.227 98.2575L387.835 104.05L388.188 104.683Z" fill="#372898"/>
<path fill-rule="evenodd" clip-rule="evenodd" d="M398.88 101.546L401.241 96.2429C403.345 90.6262 399.707 85.5926 393.964 84.6286C387.73 83.5824 384.761 87.3168 381.515 92.8223C378.27 98.3278 378.498 101.288 384.345 103.416C386.207 104.093 389.65 103.99 389.65 103.99" fill="white"/>
<path d="M398.88 101.546L401.241 96.2429C403.345 90.6262 399.707 85.5926 393.964 84.6286C387.73 83.5824 384.761 87.3168 381.515 92.8223C378.27 98.3278 378.498 101.288 384.345 103.416C386.207 104.093 389.65 103.99 389.65 103.99" stroke="#372898" stroke-width="0.725664" stroke-linecap="round"/>
<path fill-rule="evenodd" clip-rule="evenodd" d="M393.794 93.9927C394.549 93.7995 395.358 93.821 396.133 94.103C398.301 94.8921 399.34 97.3881 398.518 99.647C397.939 101.238 396.584 102.319 395.076 102.551L394.966 101.834C396.205 101.644 397.345 100.747 397.836 99.3988C398.537 97.4735 397.634 95.4217 395.885 94.785C395.254 94.5554 394.595 94.5368 393.974 94.6957L393.794 93.9927ZM398.839 101.584L401.2 96.2811C403.303 90.6643 399.666 85.6308 393.922 84.6668C387.688 83.6205 384.72 87.355 381.474 92.8605C378.229 98.3659 378.457 101.326 384.304 103.454C386.166 104.131 389.609 104.028 389.609 104.028" fill="white"/>
<path d="M393.794 93.9927L393.704 93.6412L393.352 93.7311L393.442 94.0826L393.794 93.9927ZM395.076 102.551L394.717 102.607L394.773 102.965L395.131 102.91L395.076 102.551ZM394.966 101.834L394.911 101.476L394.552 101.531L394.607 101.889L394.966 101.834ZM393.974 94.6957L393.622 94.7856L393.712 95.1371L394.064 95.0472L393.974 94.6957ZM398.507 101.437C398.426 101.62 398.508 101.834 398.691 101.916C398.874 101.997 399.088 101.915 399.17 101.732L398.507 101.437ZM401.2 96.2811L401.531 96.4286L401.536 96.4186L401.54 96.4083L401.2 96.2811ZM393.922 84.6668L393.982 84.3089L393.922 84.6668ZM389.619 104.391C389.82 104.385 389.977 104.218 389.971 104.017C389.965 103.817 389.798 103.66 389.598 103.666L389.619 104.391ZM396.257 93.7621C395.41 93.4538 394.526 93.4308 393.704 93.6412L393.884 94.3442C394.572 94.1681 395.306 94.1882 396.009 94.444L396.257 93.7621ZM398.859 99.7711C399.741 97.346 398.635 94.6274 396.257 93.7621L396.009 94.444C397.967 95.1567 398.938 97.4302 398.177 99.5229L398.859 99.7711ZM395.131 102.91C396.774 102.657 398.235 101.483 398.859 99.7711L398.177 99.5229C397.642 100.993 396.395 101.981 395.021 102.193L395.131 102.91ZM394.607 101.889L394.717 102.607L395.435 102.496L395.324 101.779L394.607 101.889ZM397.495 99.2747C397.048 100.502 396.016 101.306 394.911 101.476L395.021 102.193C396.395 101.981 397.642 100.993 398.177 99.5229L397.495 99.2747ZM395.761 95.1259C397.302 95.6868 398.135 97.5168 397.495 99.2747L398.177 99.5229C398.938 97.4301 397.967 95.1567 396.009 94.444L395.761 95.1259ZM394.064 95.0472C394.617 94.9055 395.202 94.9226 395.761 95.1259L396.009 94.444C395.306 94.1882 394.572 94.1681 393.884 94.3442L394.064 95.0472ZM393.442 94.0826L393.622 94.7856L394.325 94.6058L394.145 93.9027L393.442 94.0826ZM399.17 101.732L401.531 96.4286L400.868 96.1335L398.507 101.437L399.17 101.732ZM401.54 96.4083C402.631 93.4946 402.237 90.7105 400.807 88.5302C399.382 86.3555 396.943 84.8058 393.982 84.3089L393.862 85.0246C396.646 85.4918 398.898 86.9408 400.2 88.9281C401.5 90.9098 401.872 93.4508 400.86 96.1538L401.54 96.4083ZM393.982 84.3089C390.771 83.77 388.367 84.4633 386.356 86.0198C384.368 87.5577 382.784 89.9238 381.162 92.6762L381.787 93.0447C383.41 90.2917 384.933 88.0378 386.8 86.5937C388.642 85.1681 390.839 84.5173 393.862 85.0246L393.982 84.3089ZM381.162 92.6762C379.539 95.428 378.709 97.6574 379.125 99.5035C379.551 101.388 381.23 102.721 384.18 103.795L384.428 103.113C381.531 102.058 380.173 100.847 379.833 99.3438C379.485 97.8016 380.163 95.7984 381.787 93.0447L381.162 92.6762ZM384.18 103.795C385.165 104.153 386.538 104.298 387.635 104.357C388.189 104.387 388.684 104.396 389.041 104.397C389.219 104.397 389.363 104.396 389.462 104.394C389.512 104.393 389.551 104.393 389.578 104.392C389.591 104.392 389.601 104.391 389.608 104.391C389.612 104.391 389.614 104.391 389.616 104.391C389.617 104.391 389.618 104.391 389.618 104.391C389.619 104.391 389.619 104.391 389.619 104.391C389.619 104.391 389.619 104.391 389.619 104.391C389.619 104.391 389.619 104.391 389.609 104.028C389.598 103.666 389.598 103.666 389.598 103.666C389.598 103.666 389.598 103.666 389.598 103.666C389.598 103.666 389.597 103.666 389.597 103.666C389.597 103.666 389.596 103.666 389.596 103.666C389.594 103.666 389.592 103.666 389.589 103.666C389.583 103.666 389.573 103.666 389.561 103.667C389.536 103.667 389.499 103.668 389.451 103.669C389.356 103.67 389.216 103.671 389.042 103.671C388.695 103.67 388.213 103.662 387.674 103.633C386.584 103.574 385.304 103.432 384.428 103.113L384.18 103.795Z" fill="#372898"/>
<path fill-rule="evenodd" clip-rule="evenodd" d="M393.086 94.9393L394.393 91.3812L385.893 86.3868C385.893 86.3868 387.472 85.3884 388.262 85.0444C392.613 83.1498 394.78 84.3114 395.837 84.8782C395.895 84.9092 395.95 84.9384 396.001 84.9652C398.434 86.2368 399.828 87.7097 399.828 87.7097C399.828 87.7097 399.882 88.1461 401.604 90.66C403.326 93.1738 399.452 100.981 399.452 100.981L397.636 100.154L397.364 100.104C397.564 99.8385 397.729 99.5388 397.849 99.2098C398.5 97.421 397.578 95.443 395.789 94.7919C394.869 94.4572 393.899 94.5383 393.086 94.9393Z" fill="#372898"/>
<path fill-rule="evenodd" clip-rule="evenodd" d="M390.226 103.588L386.848 110.723L386.296 110.543L387.082 103.741L390.226 103.588Z" fill="#372898"/>
<path fill-rule="evenodd" clip-rule="evenodd" d="M400.155 180.874L399.552 204.147C399.504 206.004 398.908 207.807 397.839 209.327L375.12 241.648L348.095 282.42L368.595 429.719L345.192 429.789L316.428 289.489C315.194 283.469 315.831 277.216 318.254 271.569L357.16 180.874H400.155Z" fill="#5554C3"/>
<path fill-rule="evenodd" clip-rule="evenodd" d="M407.173 128.129C407.698 118.954 400.217 111.316 391.033 111.648L378.035 112.117L357.673 172.24L355.177 180.874L404.159 180.874L407.173 128.129Z" fill="white" stroke="#372898" stroke-width="0.725664" stroke-linecap="round"/>
<path fill-rule="evenodd" clip-rule="evenodd" d="M366.382 434.868L368.594 447.072V450.833H357.114H347.735H329.948C329.948 450.833 326.218 449.842 325.906 448.217C325.593 446.592 324.854 443.676 338.195 441.185C341.02 440.658 341.844 439.258 344.707 437.437C345.983 436.626 350.718 434.868 350.718 434.868C350.718 434.868 352.338 436.996 357.821 437.437C363.304 437.879 366.382 434.868 366.382 434.868Z" fill="#372898"/>
<path fill-rule="evenodd" clip-rule="evenodd" d="M426.405 448.827C426.309 449.83 427.113 450.657 428.12 450.664L449.216 450.821L464.752 430.169L451.423 422.52L441.713 439.936C440.218 440.974 429.963 441.8 428.469 442.839C427.109 443.784 426.597 446.83 426.405 448.827Z" fill="#372898"/>
<path fill-rule="evenodd" clip-rule="evenodd" d="M177.425 300.062C177.425 299.661 177.75 299.336 178.15 299.336H285.186C285.587 299.336 285.912 299.661 285.912 300.062V391.858C285.912 392.259 285.587 392.584 285.186 392.584H178.15C177.75 392.584 177.425 392.259 177.425 391.858V300.062Z" fill="#CAD9FF"/>
<rect x="177.425" width="158.558" height="136.425" rx="0.725664" fill="white" stroke="#372898" stroke-width="0.725664" stroke-linecap="round"/>
<rect x="177.425" width="158.558" height="11.6106" rx="2.90265" fill="#89B922"/>
<path fill-rule="evenodd" clip-rule="evenodd" d="M187.056 7.61947C187.967 7.61947 188.706 6.80724 188.706 5.80531C188.706 4.80338 187.967 3.99115 187.056 3.99115C186.146 3.99115 185.407 4.80338 185.407 5.80531C185.407 6.80724 186.146 7.61947 187.056 7.61947ZM192.664 7.61949C193.575 7.61949 194.313 6.80726 194.313 5.80533C194.313 4.80339 193.575 3.99117 192.664 3.99117C191.753 3.99117 191.015 4.80339 191.015 5.80533C191.015 6.80726 191.753 7.61949 192.664 7.61949ZM200.25 5.80533C200.25 6.80726 199.512 7.61949 198.601 7.61949C197.69 7.61949 196.952 6.80726 196.952 5.80533C196.952 4.80339 197.69 3.99117 198.601 3.99117C199.512 3.99117 200.25 4.80339 200.25 5.80533Z" fill="white"/>
<rect x="19.5933" y="136.425" width="157.832" height="162.912" fill="#372898"/>
<mask id="mask1" mask-type="alpha" maskUnits="userSpaceOnUse" x="19" y="136" width="159" height="164">
<rect x="19.5933" y="136.425" width="157.832" height="162.912" fill="white"/>
</mask>
<g mask="url(#mask1)">
<path d="M99.7142 206.239C99.7142 206.239 152.318 153.71 179.402 158.977C206.486 164.245 200.651 194.279 173.567 189.012C146.483 183.745 58.6051 175.078 58.523 148.526C58.441 121.973 105.334 118.457 105.334 118.457L110.469 114.907" stroke="#5554C3" stroke-width="0.725664"/>
<path d="M100.567 205.437C100.567 205.437 46.5801 258.981 19.4865 253.74C-7.60714 248.499 -1.68398 218.217 25.4097 223.458C52.5033 228.698 140.436 237.213 140.445 263.971C140.454 290.728 93.5087 294.389 93.5087 294.389" stroke="#5554C3" stroke-width="0.725664"/>
<path fill-rule="evenodd" clip-rule="evenodd" d="M82.2064 217.539C82.7896 215.515 84.6797 214.152 86.7839 214.237C93.9969 214.528 98.9335 221.632 96.6915 228.494L84.8368 264.776C83.8104 267.918 81.3201 270.363 78.1606 271.333L30.5891 285.933L30.5886 285.93L29.3323 286.318C29.3323 286.318 26.8834 289.403 25.2598 290.724C24.1127 291.657 21.8271 292.971 20.5842 293.663C20.0232 293.975 19.4003 294.152 18.7599 294.196L11.9309 294.667C11.133 294.721 10.4141 294.186 10.2378 293.406C10.0368 292.517 10.6085 291.636 11.5029 291.458L16.5459 290.454L17.1742 290.21C19.133 289.449 18.7335 286.567 16.6415 286.367C16.6415 286.367 14.2246 287.08 12.6521 287.54C11.0796 288.001 7.94471 289.681 7.94471 289.681L4.80477 292.439C4.26656 292.912 3.45182 292.879 2.95405 292.364C2.58585 291.982 2.47644 291.42 2.67482 290.929L3.40701 289.115C3.80807 288.122 4.45325 287.248 5.26263 286.546C6.12465 285.798 7.27878 284.764 8.20281 283.816C10.6645 281.291 13.4732 279.076 16.7898 277.878L23.4528 275.471L29.5477 274.259L71.2263 255.636L82.2064 217.539Z" fill="white"/>
<path d="M86.7839 214.237L86.7986 213.874L86.7839 214.237ZM82.2064 217.539L82.555 217.639L82.2064 217.539ZM96.6915 228.494L96.3466 228.381L96.6915 228.494ZM84.8368 264.776L84.492 264.663L84.8368 264.776ZM78.1606 271.333L78.267 271.68L78.1606 271.333ZM30.5891 285.933L30.6956 286.279L30.3033 286.4L30.2319 285.996L30.5891 285.933ZM30.5886 285.93L30.4814 285.583L30.8743 285.461L30.9459 285.866L30.5886 285.93ZM29.3323 286.318L29.0481 286.092L29.1179 286.005L29.2251 285.971L29.3323 286.318ZM25.2598 290.724L25.4888 291.005L25.2598 290.724ZM20.5842 293.663L20.7606 293.98L20.5842 293.663ZM18.7599 294.196L18.7848 294.558L18.7599 294.196ZM11.9309 294.667L11.9559 295.029L11.9309 294.667ZM10.2378 293.406L9.8839 293.486L9.8839 293.486L10.2378 293.406ZM11.5029 291.458L11.432 291.103L11.5029 291.458ZM16.5459 290.454L16.6773 290.792L16.6478 290.804L16.6167 290.81L16.5459 290.454ZM17.1742 290.21L17.0428 289.872L17.0428 289.872L17.1742 290.21ZM16.6415 286.367L16.5389 286.019L16.6062 285.999L16.676 286.006L16.6415 286.367ZM12.6521 287.54L12.5501 287.192L12.6521 287.54ZM7.94471 289.681L7.70524 289.408L7.73658 289.381L7.77336 289.361L7.94471 289.681ZM4.80477 292.439L4.56529 292.167L4.80477 292.439ZM2.95405 292.364L3.215 292.111L3.215 292.111L2.95405 292.364ZM2.67482 290.929L3.01127 291.065L2.67482 290.929ZM3.40701 289.115L3.74347 289.251L3.40701 289.115ZM5.26263 286.546L5.50035 286.82L5.26263 286.546ZM8.20281 283.816L7.94303 283.563L7.94303 283.563L8.20281 283.816ZM16.7898 277.878L16.913 278.219L16.7898 277.878ZM23.4528 275.471L23.3295 275.13L23.3552 275.12L23.382 275.115L23.4528 275.471ZM29.5477 274.259L29.6957 274.59L29.6584 274.606L29.6184 274.614L29.5477 274.259ZM71.2263 255.636L71.5749 255.737L71.5283 255.899L71.3743 255.967L71.2263 255.636ZM86.7693 214.599C84.832 214.521 83.0919 215.776 82.555 217.639L81.8577 217.438C82.4872 215.254 84.5273 213.782 86.7986 213.874L86.7693 214.599ZM96.3466 228.381C98.5138 221.748 93.7419 214.881 86.7693 214.599L86.7986 213.874C94.252 214.175 99.3531 221.516 97.0364 228.606L96.3466 228.381ZM84.492 264.663L96.3466 228.381L97.0364 228.606L85.1817 264.889L84.492 264.663ZM78.0541 270.986C81.1008 270.051 83.5022 267.693 84.492 264.663L85.1817 264.889C84.1187 268.142 81.5393 270.676 78.267 271.68L78.0541 270.986ZM30.4827 285.586L78.0541 270.986L78.267 271.68L30.6956 286.279L30.4827 285.586ZM30.9459 285.866L30.9464 285.869L30.2319 285.996L30.2313 285.993L30.9459 285.866ZM30.6958 286.276L29.4395 286.665L29.2251 285.971L30.4814 285.583L30.6958 286.276ZM29.3323 286.318C29.6165 286.544 29.6164 286.544 29.6164 286.544C29.6164 286.544 29.6163 286.544 29.6163 286.544C29.6162 286.544 29.6161 286.544 29.6159 286.544C29.6156 286.545 29.6151 286.545 29.6145 286.546C29.6132 286.548 29.6114 286.55 29.609 286.553C29.6041 286.559 29.597 286.568 29.5877 286.58C29.5691 286.603 29.5417 286.637 29.5063 286.681C29.4355 286.769 29.3327 286.895 29.2044 287.051C28.9479 287.363 28.5889 287.792 28.1785 288.264C27.3631 289.2 26.3272 290.323 25.4888 291.005L25.0308 290.442C25.816 289.803 26.8163 288.723 27.6312 287.787C28.0361 287.322 28.3907 286.898 28.6441 286.59C28.7708 286.436 28.872 286.311 28.9415 286.225C28.9763 286.182 29.003 286.149 29.0211 286.126C29.0301 286.115 29.0369 286.106 29.0415 286.101C29.0437 286.098 29.0454 286.096 29.0466 286.094C29.0471 286.094 29.0475 286.093 29.0478 286.093C29.0479 286.093 29.048 286.093 29.0481 286.092C29.0481 286.092 29.0481 286.092 29.0481 286.092C29.0481 286.092 29.0481 286.092 29.3323 286.318ZM25.4888 291.005C24.3123 291.962 21.9969 293.292 20.7606 293.98L20.4079 293.345C21.6574 292.651 23.9131 291.351 25.0308 290.442L25.4888 291.005ZM20.7606 293.98C20.1507 294.319 19.4758 294.511 18.7848 294.558L18.7349 293.834C19.3249 293.794 19.8957 293.63 20.4079 293.345L20.7606 293.98ZM18.7848 294.558L11.9559 295.029L11.906 294.305L18.7349 293.834L18.7848 294.558ZM11.9559 295.029C10.9793 295.096 10.0996 294.441 9.8839 293.486L10.5917 293.326C10.7286 293.932 11.2866 294.347 11.906 294.305L11.9559 295.029ZM9.8839 293.486C9.63794 292.398 10.3376 291.32 11.432 291.103L11.5737 291.814C10.8795 291.952 10.4357 292.636 10.5917 293.326L9.8839 293.486ZM11.432 291.103L16.475 290.098L16.6167 290.81L11.5737 291.814L11.432 291.103ZM16.4145 290.116L17.0428 289.872L17.3056 290.548L16.6773 290.792L16.4145 290.116ZM17.0428 289.872C18.6451 289.249 18.3183 286.892 16.607 286.728L16.676 286.006C19.1487 286.242 19.6208 289.648 17.3056 290.548L17.0428 289.872ZM16.6415 286.367C16.7441 286.715 16.7441 286.715 16.7441 286.715C16.7441 286.715 16.7441 286.715 16.744 286.715C16.744 286.715 16.7439 286.715 16.7437 286.715C16.7434 286.715 16.743 286.715 16.7424 286.715C16.7412 286.716 16.7395 286.716 16.7372 286.717C16.7325 286.718 16.7256 286.72 16.7166 286.723C16.6985 286.728 16.6718 286.736 16.6372 286.746C16.568 286.767 16.4675 286.797 16.3419 286.834C16.0907 286.908 15.7394 287.011 15.339 287.129C14.5381 287.365 13.5406 287.658 12.7541 287.889L12.5501 287.192C13.3361 286.962 14.3333 286.669 15.134 286.433C15.5344 286.315 15.8856 286.211 16.1367 286.137C16.2623 286.1 16.3628 286.071 16.432 286.05C16.4666 286.04 16.4933 286.032 16.5114 286.027C16.5204 286.024 16.5273 286.022 16.5319 286.021C16.5342 286.02 16.536 286.02 16.5371 286.019C16.5377 286.019 16.5381 286.019 16.5384 286.019C16.5386 286.019 16.5387 286.019 16.5388 286.019C16.5388 286.019 16.5388 286.019 16.5388 286.019C16.5389 286.019 16.5389 286.019 16.6415 286.367ZM12.7541 287.889C12.0011 288.109 10.85 288.631 9.86759 289.109C9.38071 289.347 8.94239 289.57 8.62575 289.733C8.46749 289.815 8.33977 289.882 8.25175 289.928C8.20774 289.952 8.17366 289.97 8.15066 289.982C8.13917 289.988 8.13044 289.993 8.12463 289.996C8.12172 289.997 8.11954 289.999 8.11811 289.999C8.1174 290 8.11687 290 8.11652 290C8.11636 290 8.11623 290 8.11615 290C8.11612 290 8.1161 290 8.11608 290C8.11607 290 8.11608 290 7.94471 289.681C7.77336 289.361 7.77338 289.361 7.77342 289.361C7.77345 289.361 7.7735 289.361 7.77355 289.361C7.77367 289.361 7.77384 289.361 7.77405 289.36C7.77446 289.36 7.77508 289.36 7.77587 289.359C7.77747 289.359 7.77981 289.357 7.78288 289.356C7.78902 289.352 7.79809 289.348 7.80994 289.341C7.83363 289.329 7.86844 289.31 7.91323 289.287C8.00278 289.239 8.13226 289.172 8.29245 289.089C8.61274 288.923 9.05641 288.697 9.54981 288.457C10.5279 287.981 11.7305 287.432 12.5501 287.192L12.7541 287.889ZM8.18419 289.953L5.04425 292.712L4.56529 292.167L7.70524 289.408L8.18419 289.953ZM5.04425 292.712C4.36051 293.313 3.32548 293.27 2.69311 292.616L3.215 292.111C3.57818 292.487 4.17261 292.512 4.56529 292.167L5.04425 292.712ZM2.69311 292.616C2.22534 292.131 2.08635 291.417 2.33837 290.793L3.01127 291.065C2.86652 291.423 2.94635 291.833 3.215 292.111L2.69311 292.616ZM2.33837 290.793L3.07057 288.979L3.74347 289.251L3.01127 291.065L2.33837 290.793ZM3.07057 288.979C3.4946 287.929 4.17522 287.008 5.02491 286.272L5.50035 286.82C4.73128 287.487 4.12154 288.314 3.74347 289.251L3.07057 288.979ZM5.02491 286.272C5.88471 285.526 7.02974 284.499 7.94303 283.563L8.4626 284.069C7.52783 285.028 6.36459 286.07 5.50035 286.82L5.02491 286.272ZM7.94303 283.563C10.4244 281.018 13.2781 278.76 16.6665 277.536L16.913 278.219C13.6684 279.391 10.9047 281.565 8.4626 284.069L7.94303 283.563ZM16.6665 277.536L23.3295 275.13L23.5761 275.812L16.913 278.219L16.6665 277.536ZM23.382 275.115L29.4769 273.903L29.6184 274.614L23.5236 275.827L23.382 275.115ZM71.3743 255.967L29.6957 274.59L29.3996 273.927L71.0783 255.305L71.3743 255.967ZM82.555 217.639L71.5749 255.737L70.8777 255.536L81.8577 217.438L82.555 217.639Z" fill="#372898"/>
<path fill-rule="evenodd" clip-rule="evenodd" d="M120.66 214.68C120.522 212.101 118.182 210.208 115.631 210.612L104.533 212.37L90.3454 214.636C88.4292 215.312 87.0018 216.936 86.576 218.923L85.3683 224.559C84.4652 228.773 84.5366 233.138 85.5769 237.32L92.8852 266.703L123.348 265.059L120.66 214.68Z" fill="#89B922"/>
<path fill-rule="evenodd" clip-rule="evenodd" d="M122.037 255.489L121.798 255.527L115.266 221.74L122.049 235.41L122.037 255.489Z" fill="#372898"/>
<path fill-rule="evenodd" clip-rule="evenodd" d="M104.547 212.008L101.471 203.575C99.9063 205.353 94.2954 208.184 91.8597 208.338L92.7563 214.22C92.7563 214.22 91.3552 218.297 91.7969 220.986C92.2387 223.675 94.881 227.154 94.881 227.154L104.547 212.008Z" fill="white" stroke="#372898" stroke-width="0.725664" stroke-linecap="round"/>
<path fill-rule="evenodd" clip-rule="evenodd" d="M94.7671 211.441L98.2244 206.153L91.8429 207.918L94.7671 211.441Z" fill="#372898"/>
<path fill-rule="evenodd" clip-rule="evenodd" d="M101.232 202.466C99.146 205.306 95.7316 207.129 91.9043 207.062C85.6832 206.954 84.0083 203.1 84.1154 196.967C84.2224 190.834 86.0337 187.233 92.2686 186.193C97.9053 185.252 102.505 189.141 103.257 194.428C104.812 195.025 105.895 196.604 105.863 198.415C105.824 200.702 104.02 202.556 101.8 202.518C101.607 202.514 101.417 202.497 101.232 202.466ZM101.692 201.788C101.732 201.79 101.772 201.791 101.813 201.792C103.599 201.823 105.104 200.323 105.138 198.403C105.162 197.025 104.422 195.838 103.342 195.264C103.361 195.558 103.368 195.854 103.363 196.154C103.326 198.222 102.719 200.147 101.692 201.788Z" fill="white"/>
<path d="M101.232 202.466L101.291 202.108L101.071 202.071L100.939 202.251L101.232 202.466ZM92.2686 186.193L92.3283 186.551L92.2686 186.193ZM103.257 194.428L102.897 194.479L102.927 194.69L103.127 194.767L103.257 194.428ZM101.692 201.788L101.385 201.595L101.059 202.115L101.672 202.15L101.692 201.788ZM103.342 195.264L103.512 194.944L102.939 194.64L102.98 195.287L103.342 195.264ZM91.898 207.425C95.8467 207.494 99.3709 205.613 101.524 202.68L100.939 202.251C98.921 205 95.6166 206.764 91.9107 206.7L91.898 207.425ZM83.7526 196.961C83.6987 200.046 84.0883 202.638 85.3365 204.478C86.6047 206.347 88.7077 207.369 91.898 207.425L91.9107 206.7C88.8798 206.647 87.0348 205.688 85.937 204.07C84.8193 202.423 84.4249 200.022 84.4781 196.974L83.7526 196.961ZM92.2089 185.835C89.028 186.366 86.9139 187.562 85.5958 189.463C84.2887 191.349 83.8065 193.871 83.7526 196.961L84.4781 196.974C84.5312 193.931 85.0083 191.585 86.1922 189.877C87.3654 188.184 89.2744 187.06 92.3283 186.551L92.2089 185.835ZM103.616 194.377C102.838 188.908 98.0661 184.857 92.2089 185.835L92.3283 186.551C97.7445 185.647 102.172 189.374 102.897 194.479L103.616 194.377ZM103.127 194.767C104.535 195.308 105.53 196.745 105.501 198.409L106.226 198.422C106.26 196.462 105.089 194.743 103.387 194.089L103.127 194.767ZM105.501 198.409C105.464 200.513 103.81 202.19 101.806 202.155L101.794 202.88C104.231 202.923 106.183 200.892 106.226 198.422L105.501 198.409ZM101.806 202.155C101.631 202.152 101.459 202.136 101.291 202.108L101.172 202.824C101.375 202.857 101.582 202.877 101.794 202.88L101.806 202.155ZM101.672 202.15C101.717 202.152 101.761 202.154 101.806 202.155L101.819 201.429C101.783 201.429 101.748 201.427 101.713 201.425L101.672 202.15ZM101.806 202.155C103.809 202.19 105.464 200.513 105.501 198.409L104.775 198.396C104.745 200.132 103.389 201.457 101.819 201.429L101.806 202.155ZM105.501 198.409C105.527 196.897 104.714 195.582 103.512 194.944L103.172 195.585C104.13 196.093 104.797 197.154 104.775 198.396L105.501 198.409ZM103.725 196.16C103.731 195.851 103.724 195.544 103.704 195.241L102.98 195.287C102.998 195.571 103.005 195.858 103 196.148L103.725 196.16ZM102 201.98C103.061 200.286 103.688 198.296 103.725 196.16L103 196.148C102.965 198.147 102.378 200.009 101.385 201.595L102 201.98Z" fill="#372898"/>
<path fill-rule="evenodd" clip-rule="evenodd" d="M90.3452 191.052C86.7168 189.963 85.007 192.071 85.007 192.071C85.007 192.071 87.6239 185.972 94.0263 186.348C96.7651 186.509 98.6696 187.281 100.857 189.257C103.044 191.233 103.608 194.938 103.608 194.938C103.608 194.938 103.548 194.914 103.451 194.876C103.166 194.725 102.858 194.613 102.535 194.547C102.348 194.489 102.182 194.447 102.083 194.443C101.737 194.427 101.18 194.522 101.18 194.522C101.18 194.522 101.143 194.536 101.085 194.561C99.786 194.851 98.7874 195.865 98.4874 197.126C95.7915 194.598 92.343 191.651 90.3452 191.052Z" fill="white"/>
<path d="M85.007 192.071L84.6736 191.928L85.2888 192.3L85.007 192.071ZM90.3452 191.052L90.4494 190.704L90.3452 191.052ZM94.0263 186.348L94.0051 186.71L94.0263 186.348ZM100.857 189.257L100.614 189.526L100.857 189.257ZM103.608 194.938L103.471 195.274L104.063 195.515L103.967 194.884L103.608 194.938ZM103.451 194.876L103.281 195.196L103.299 195.206L103.318 195.213L103.451 194.876ZM102.535 194.547L102.427 194.893L102.444 194.899L102.462 194.902L102.535 194.547ZM102.083 194.443L102.067 194.805L102.083 194.443ZM101.18 194.522L101.119 194.164L101.083 194.17L101.049 194.183L101.18 194.522ZM101.085 194.561L101.164 194.915L101.197 194.908L101.229 194.894L101.085 194.561ZM98.4874 197.126L98.2392 197.39L98.6955 197.818L98.8403 197.21L98.4874 197.126ZM85.007 192.071C85.2888 192.3 85.2886 192.3 85.2885 192.3C85.2885 192.3 85.2883 192.3 85.2883 192.3C85.2881 192.3 85.288 192.3 85.2879 192.301C85.2877 192.301 85.2877 192.301 85.2877 192.301C85.2877 192.301 85.2882 192.3 85.289 192.299C85.2907 192.297 85.294 192.293 85.2989 192.288C85.3088 192.277 85.3252 192.259 85.348 192.235C85.3937 192.188 85.4653 192.119 85.563 192.038C85.7585 191.875 86.0574 191.665 86.4626 191.485C87.2659 191.128 88.5114 190.88 90.2409 191.399L90.4494 190.704C88.5506 190.134 87.127 190.396 86.1683 190.821C85.6925 191.033 85.3372 191.281 85.0987 191.48C84.9794 191.579 84.8891 191.666 84.8271 191.73C84.7961 191.762 84.7721 191.788 84.7552 191.807C84.7467 191.817 84.74 191.825 84.735 191.831C84.7325 191.834 84.7304 191.836 84.7288 191.838C84.728 191.839 84.7273 191.84 84.7267 191.841C84.7264 191.841 84.7261 191.841 84.7259 191.842C84.7257 191.842 84.7256 191.842 84.7255 191.842C84.7254 191.842 84.7252 191.842 85.007 192.071ZM94.0476 185.986C90.7132 185.79 88.3621 187.285 86.8572 188.814C86.1059 189.577 85.5623 190.351 85.2062 190.935C85.028 191.227 84.8961 191.472 84.8082 191.646C84.7643 191.733 84.7313 191.802 84.7089 191.85C84.6978 191.874 84.6893 191.892 84.6834 191.906C84.6804 191.912 84.6781 191.917 84.6765 191.921C84.6757 191.923 84.675 191.924 84.6745 191.926C84.6743 191.926 84.6741 191.927 84.6739 191.927C84.6738 191.927 84.6737 191.927 84.6737 191.928C84.6736 191.928 84.6736 191.928 85.007 192.071C85.3404 192.214 85.3404 192.214 85.3403 192.214C85.3403 192.214 85.3403 192.214 85.3403 192.214C85.3403 192.214 85.3403 192.214 85.3404 192.214C85.3405 192.214 85.3408 192.213 85.3413 192.212C85.3422 192.21 85.3438 192.206 85.346 192.201C85.3504 192.192 85.3574 192.176 85.3669 192.156C85.3861 192.114 85.4155 192.053 85.4556 191.974C85.5359 191.815 85.6585 191.587 85.8256 191.313C86.1603 190.764 86.6711 190.037 87.3743 189.323C88.7784 187.896 90.9371 186.53 94.0051 186.71L94.0476 185.986ZM101.1 188.988C98.8523 186.957 96.8698 186.152 94.0476 185.986L94.0051 186.71C96.6603 186.866 98.4868 187.605 100.614 189.526L101.1 188.988ZM103.608 194.938C103.967 194.884 103.967 194.884 103.967 194.883C103.967 194.883 103.966 194.883 103.966 194.883C103.966 194.883 103.966 194.883 103.966 194.882C103.966 194.882 103.966 194.881 103.966 194.88C103.966 194.877 103.965 194.874 103.964 194.87C103.963 194.862 103.961 194.851 103.959 194.836C103.954 194.806 103.946 194.763 103.936 194.708C103.915 194.599 103.884 194.441 103.839 194.247C103.75 193.859 103.607 193.32 103.395 192.718C102.973 191.522 102.26 190.035 101.1 188.988L100.614 189.526C101.642 190.455 102.304 191.809 102.711 192.959C102.912 193.53 103.047 194.042 103.132 194.41C103.174 194.594 103.204 194.741 103.223 194.842C103.232 194.892 103.239 194.931 103.243 194.956C103.245 194.969 103.247 194.979 103.248 194.985C103.248 194.988 103.249 194.99 103.249 194.991C103.249 194.992 103.249 194.993 103.249 194.993C103.249 194.993 103.249 194.993 103.249 194.993C103.249 194.993 103.249 194.993 103.249 194.993C103.249 194.993 103.249 194.993 103.608 194.938ZM103.318 195.213C103.366 195.232 103.404 195.247 103.431 195.258C103.444 195.263 103.454 195.267 103.461 195.27C103.464 195.272 103.467 195.273 103.469 195.273C103.469 195.274 103.47 195.274 103.47 195.274C103.471 195.274 103.471 195.274 103.471 195.274C103.471 195.274 103.471 195.274 103.471 195.274C103.471 195.274 103.471 195.274 103.471 195.274C103.471 195.274 103.471 195.274 103.471 195.274C103.471 195.274 103.471 195.274 103.471 195.274C103.471 195.274 103.471 195.274 103.608 194.938C103.745 194.602 103.745 194.602 103.745 194.602C103.745 194.602 103.745 194.602 103.745 194.602C103.745 194.602 103.745 194.602 103.745 194.602C103.745 194.602 103.745 194.602 103.745 194.602C103.745 194.602 103.745 194.602 103.745 194.602C103.744 194.602 103.744 194.602 103.744 194.602C103.743 194.602 103.743 194.601 103.742 194.601C103.74 194.6 103.737 194.599 103.733 194.597C103.726 194.594 103.715 194.59 103.701 194.584C103.673 194.573 103.633 194.557 103.583 194.538L103.318 195.213ZM103.62 194.555C103.305 194.388 102.965 194.265 102.607 194.191L102.462 194.902C102.75 194.961 103.026 195.061 103.281 195.196L103.62 194.555ZM102.067 194.805C102.112 194.807 102.235 194.834 102.427 194.893L102.642 194.2C102.46 194.144 102.251 194.087 102.099 194.08L102.067 194.805ZM101.18 194.522C101.24 194.879 101.24 194.879 101.24 194.879C101.24 194.879 101.24 194.879 101.24 194.879C101.24 194.879 101.24 194.879 101.24 194.879C101.24 194.879 101.24 194.879 101.24 194.879C101.24 194.879 101.241 194.879 101.241 194.879C101.242 194.879 101.243 194.879 101.245 194.879C101.249 194.878 101.254 194.877 101.262 194.876C101.276 194.873 101.298 194.87 101.326 194.866C101.381 194.858 101.457 194.847 101.544 194.837C101.724 194.815 101.925 194.799 102.067 194.805L102.099 194.08C101.895 194.071 101.644 194.094 101.459 194.116C101.363 194.127 101.279 194.139 101.218 194.148C101.188 194.153 101.164 194.157 101.147 194.159C101.138 194.161 101.132 194.162 101.127 194.163C101.124 194.163 101.123 194.163 101.121 194.163C101.121 194.164 101.12 194.164 101.12 194.164C101.12 194.164 101.119 194.164 101.119 194.164C101.119 194.164 101.119 194.164 101.119 194.164C101.119 194.164 101.119 194.164 101.119 194.164C101.119 194.164 101.119 194.164 101.18 194.522ZM101.229 194.894C101.255 194.883 101.277 194.874 101.291 194.868C101.298 194.865 101.303 194.863 101.307 194.862C101.308 194.861 101.31 194.86 101.31 194.86C101.31 194.86 101.311 194.86 101.311 194.86C101.311 194.86 101.311 194.86 101.311 194.86C101.311 194.86 101.311 194.86 101.311 194.86C101.311 194.86 101.311 194.86 101.311 194.86C101.311 194.86 101.311 194.86 101.311 194.86C101.311 194.86 101.311 194.86 101.31 194.86C101.31 194.86 101.31 194.86 101.18 194.522C101.049 194.183 101.049 194.183 101.049 194.183C101.049 194.183 101.049 194.183 101.049 194.183C101.049 194.183 101.049 194.183 101.049 194.183C101.048 194.183 101.048 194.183 101.048 194.183C101.048 194.183 101.048 194.183 101.048 194.183C101.048 194.183 101.048 194.184 101.047 194.184C101.047 194.184 101.046 194.184 101.046 194.184C101.044 194.185 101.042 194.186 101.039 194.187C101.034 194.189 101.026 194.192 101.017 194.196C100.998 194.203 100.972 194.214 100.941 194.228L101.229 194.894ZM101.006 194.207C99.5691 194.528 98.466 195.648 98.1344 197.042L98.8403 197.21C99.1089 196.081 100.003 195.175 101.164 194.915L101.006 194.207ZM90.2409 191.399C91.1678 191.677 92.4817 192.523 93.9316 193.652C95.368 194.77 96.895 196.13 98.2392 197.39L98.7355 196.861C97.3838 195.594 95.8386 194.216 94.3773 193.079C92.9296 191.952 91.5203 191.025 90.4494 190.704L90.2409 191.399Z" fill="#372898"/>
<path fill-rule="evenodd" clip-rule="evenodd" d="M98.3745 184.753C100.763 182.749 101.253 180.065 100.848 177.19C100.628 175.63 100.535 173.781 99.4478 172.485C96.3564 168.801 90.8638 168.32 87.1797 171.412C85.347 172.949 84.8447 175.056 84.6429 177.264C84.4391 179.495 84.5529 181.828 86.1064 183.68C89.1977 187.364 94.6903 187.844 98.3745 184.753Z" fill="white" stroke="#372898" stroke-width="0.725664" stroke-linecap="round"/>
<path fill-rule="evenodd" clip-rule="evenodd" d="M123.182 262.349L137.522 288.116C139.375 291.446 140.37 295.184 140.416 298.995H66.0357L92.8853 266.702L123.182 262.349Z" fill="white" stroke="#372898" stroke-width="0.725664" stroke-linecap="round"/>
<path fill-rule="evenodd" clip-rule="evenodd" d="M74.7434 283.574L109.212 270.331L109.212 211.733C114.851 205.774 124.87 209.882 124.702 218.084L123.497 276.941C123.414 281.025 120.502 284.503 116.495 285.302L55.6404 297.445C55.3146 297.51 54.9831 297.543 54.6508 297.543C50.7124 297.543 48.4539 293.17 50.9322 290.109C54.4797 285.727 58.8544 281.034 61.3186 281.034C65.9405 281.034 74.7434 283.574 74.7434 283.574Z" fill="white" stroke="#372898" stroke-width="0.725664" stroke-linecap="round"/>
</g>
<rect x="19.593" y="293.531" width="56.2389" height="5.44248" fill="white" stroke="#372898" stroke-width="0.725664" stroke-linecap="round"/>
<path fill-rule="evenodd" clip-rule="evenodd" d="M0 257.248H56.2389L62.4071 298.973H6.16814L0 257.248Z" fill="white" stroke="#372898" stroke-width="0.725664" stroke-linecap="round"/>
<path fill-rule="evenodd" clip-rule="evenodd" d="M5.44263 293.531H61.6816L62.4072 298.973H6.16829L5.44263 293.531Z" fill="white" stroke="#372898" stroke-width="0.725664" stroke-linecap="round"/>
<path fill-rule="evenodd" clip-rule="evenodd" d="M378.072 112.115L329.814 146.765L311.31 112.115L290.266 120.46L312.987 172.986C316.249 180.527 325.006 183.996 332.546 180.734C333.975 180.116 335.298 179.278 336.466 178.25C363.844 154.165 379.285 140.526 382.788 137.332" fill="white"/>
<path d="M378.072 112.115L329.814 146.765L311.31 112.115L290.266 120.46L312.987 172.986C316.249 180.527 325.006 183.996 332.546 180.734C333.975 180.116 335.298 179.278 336.466 178.25C363.844 154.165 379.285 140.526 382.788 137.332" stroke="#372898" stroke-width="0.725664" stroke-linecap="round" stroke-linejoin="round"/>
<path fill-rule="evenodd" clip-rule="evenodd" d="M29.5709 279.743C31.2742 279.743 32.655 278.363 32.655 276.659C32.655 274.956 31.2742 273.575 29.5709 273.575C27.8676 273.575 26.4868 274.956 26.4868 276.659C26.4868 278.363 27.8676 279.743 29.5709 279.743Z" fill="white" stroke="#372898" stroke-width="0.725664" stroke-linecap="round"/>
<path fill-rule="evenodd" clip-rule="evenodd" d="M29.571 278.292C30.4727 278.292 31.2037 277.561 31.2037 276.659C31.2037 275.758 30.4727 275.027 29.571 275.027C28.6692 275.027 27.9382 275.758 27.9382 276.659C27.9382 277.561 28.6692 278.292 29.571 278.292Z" fill="white" stroke="#372898" stroke-width="0.725664" stroke-linecap="round"/>
<rect x="206.089" y="188.31" width="54.7876" height="54.7876" rx="23.9469" fill="white" stroke="#372898" stroke-width="0.725664" stroke-linecap="round"/>
<path fill-rule="evenodd" clip-rule="evenodd" d="M206.089 215.885C206.089 215.885 224.126 226.407 233.482 226.407C242.839 226.407 260.876 215.885 260.876 215.885" fill="white"/>
<path d="M206.089 215.885C206.089 215.885 224.126 226.407 233.482 226.407C242.839 226.407 260.876 215.885 260.876 215.885" stroke="#372898" stroke-width="0.725664" stroke-linecap="round"/>
<path fill-rule="evenodd" clip-rule="evenodd" d="M260.876 215.522C260.876 215.522 242.839 205 233.483 205C224.126 205 206.089 215.522 206.089 215.522" fill="white"/>
<path d="M260.876 215.522C260.876 215.522 242.839 205 233.483 205C224.126 205 206.089 215.522 206.089 215.522" stroke="#372898" stroke-width="0.725664" stroke-linecap="round"/>
<path fill-rule="evenodd" clip-rule="evenodd" d="M233.482 220.602C236.188 220.602 238.381 218.409 238.381 215.704C238.381 212.998 236.188 210.805 233.482 210.805C230.777 210.805 228.584 212.998 228.584 215.704C228.584 218.409 230.777 220.602 233.482 220.602Z" fill="#372898"/>
<path fill-rule="evenodd" clip-rule="evenodd" d="M233.482 226.77V230.761V226.77Z" fill="white"/>
<path d="M233.482 226.77V230.761" stroke="#372898" stroke-width="0.725664" stroke-linecap="round"/>
<path fill-rule="evenodd" clip-rule="evenodd" d="M241.776 224.956L243.331 228.733L241.776 224.956Z" fill="white"/>
<path d="M241.776 224.956L243.331 228.733" stroke="#372898" stroke-width="0.725664" stroke-linecap="round"/>
<path fill-rule="evenodd" clip-rule="evenodd" d="M225.189 224.956L223.634 228.733L225.189 224.956Z" fill="white"/>
<path d="M225.189 224.956L223.634 228.733" stroke="#372898" stroke-width="0.725664" stroke-linecap="round"/>
<path fill-rule="evenodd" clip-rule="evenodd" d="M233.482 204.637V200.646V204.637Z" fill="white"/>
<path d="M233.482 204.637V200.646" stroke="#372898" stroke-width="0.725664" stroke-linecap="round"/>
<path fill-rule="evenodd" clip-rule="evenodd" d="M225.189 206.451L223.634 202.674L225.189 206.451Z" fill="white"/>
<path d="M225.189 206.451L223.634 202.674" stroke="#372898" stroke-width="0.725664" stroke-linecap="round"/>
<path fill-rule="evenodd" clip-rule="evenodd" d="M241.776 206.451L243.331 202.674L241.776 206.451Z" fill="white"/>
<path d="M241.776 206.451L243.331 202.674" stroke="#372898" stroke-width="0.725664" stroke-linecap="round"/>
<path fill-rule="evenodd" clip-rule="evenodd" d="M212.795 63.6074C220.502 63.6074 226.749 57.4094 226.749 49.7639C226.749 42.1183 220.502 35.9203 212.795 35.9203C205.088 35.9203 198.841 42.1183 198.841 49.7639C198.841 57.4094 205.088 63.6074 212.795 63.6074Z" fill="#CAD9FF"/>
<path fill-rule="evenodd" clip-rule="evenodd" d="M216.409 46.0224C216.409 47.98 214.788 49.5669 212.788 49.5669C210.787 49.5669 209.166 47.98 209.166 46.0224C209.166 44.0647 210.787 42.4778 212.788 42.4778C214.788 42.4778 216.409 44.0647 216.409 46.0224ZM206.223 57.7638C206.223 54.2156 209.162 51.3392 212.787 51.3392C216.413 51.3392 219.352 54.2156 219.352 57.7638H206.223Z" fill="white"/>
<g clip-path="url(#clip1)">
<g clip-path="url(#clip2)">
<path fill-rule="evenodd" clip-rule="evenodd" d="M198.106 103.111C198.106 100.294 200.39 98.0103 203.207 98.0103H222.383C225.2 98.0103 227.484 100.294 227.484 103.111C227.484 105.927 225.2 108.211 222.383 108.211H203.207C200.39 108.211 198.106 105.927 198.106 103.111ZM241.822 103.111C241.822 100.295 244.105 98.0111 246.922 98.0111H266.099C268.916 98.0111 271.199 100.295 271.199 103.111C271.199 105.928 268.916 108.212 266.099 108.212H246.922C244.105 108.212 241.822 105.928 241.822 103.111ZM290.948 98.0111C288.131 98.0111 285.848 100.295 285.848 103.111C285.848 105.928 288.131 108.212 290.948 108.212H310.125C312.941 108.212 315.225 105.928 315.225 103.111C315.225 100.295 312.941 98.0111 310.125 98.0111H290.948Z" fill="#5554C3"/>
</g>
</g>
<path fill-rule="evenodd" clip-rule="evenodd" d="M256.666 63.6074C264.355 63.6074 270.589 57.4094 270.589 49.7639C270.589 42.1183 264.355 35.9203 256.666 35.9203C248.976 35.9203 242.742 42.1183 242.742 49.7639C242.742 57.4094 248.976 63.6074 256.666 63.6074Z" fill="#CAD9FF"/>
<path fill-rule="evenodd" clip-rule="evenodd" d="M260.272 46.0224C260.272 47.98 258.654 49.5669 256.658 49.5669C254.662 49.5669 253.044 47.98 253.044 46.0224C253.044 44.0647 254.662 42.4778 256.658 42.4778C258.654 42.4778 260.272 44.0647 260.272 46.0224ZM250.108 57.7638C250.108 54.2156 253.041 51.3392 256.658 51.3392C260.276 51.3392 263.208 54.2156 263.208 57.7638H250.108Z" fill="white"/>
<path fill-rule="evenodd" clip-rule="evenodd" d="M300.568 63.6074C308.258 63.6074 314.492 57.4094 314.492 49.7639C314.492 42.1183 308.258 35.9203 300.568 35.9203C292.879 35.9203 286.645 42.1183 286.645 49.7639C286.645 57.4094 292.879 63.6074 300.568 63.6074Z" fill="#CAD9FF"/>
<path fill-rule="evenodd" clip-rule="evenodd" d="M304.175 46.0224C304.175 47.98 302.557 49.5669 300.561 49.5669C298.565 49.5669 296.947 47.98 296.947 46.0224C296.947 44.0647 298.565 42.4778 300.561 42.4778C302.557 42.4778 304.175 44.0647 304.175 46.0224ZM294.011 57.7638C294.011 54.2156 296.943 51.3392 300.561 51.3392C304.179 51.3392 307.111 54.2156 307.111 57.7638H294.011Z" fill="white"/>
<path fill-rule="evenodd" clip-rule="evenodd" d="M198.106 72.385H227.496H198.106Z" fill="white"/>
<path d="M198.106 72.385H227.496" stroke="#372898" stroke-width="0.725664" stroke-linecap="round"/>
<path fill-rule="evenodd" clip-rule="evenodd" d="M242.009 72.385H271.398H242.009Z" fill="white"/>
<path d="M242.009 72.385H271.398" stroke="#372898" stroke-width="0.725664" stroke-linecap="round"/>
<path fill-rule="evenodd" clip-rule="evenodd" d="M202.471 82H223.504H202.471Z" fill="white"/>
<path d="M202.471 82H223.504" stroke="#372898" stroke-width="0.725664" stroke-linecap="round"/>
<path fill-rule="evenodd" clip-rule="evenodd" d="M242.009 82H271.398H242.009Z" fill="white"/>
<path d="M242.009 82H271.398" stroke="#372898" stroke-width="0.725664" stroke-linecap="round"/>
<path fill-rule="evenodd" clip-rule="evenodd" d="M290.276 72.385H311.31H290.276Z" fill="white"/>
<path d="M290.276 72.385H311.31" stroke="#372898" stroke-width="0.725664" stroke-linecap="round"/>
<path fill-rule="evenodd" clip-rule="evenodd" d="M282.328 94.56L274.362 90.1753C273.394 89.6422 272.176 90.0047 271.657 90.9807C271.191 91.8582 271.446 92.9456 272.255 93.5235L279.666 98.8209L276.38 103.033C274.622 105.286 275.475 108.593 278.104 109.715L294.835 116.858L297.341 117.739L307.5 113.385L302.148 107.162C302.101 107.108 302.046 107.061 301.986 107.023L282.328 94.56Z" fill="white" stroke="#372898" stroke-width="0.725664" stroke-linecap="round"/>
<path fill-rule="evenodd" clip-rule="evenodd" d="M504.119 190.235L492.712 213.281C491.926 214.869 491.266 216.516 490.738 218.208L475.854 265.956L478.773 302.545L482.192 435.166C482.192 435.166 500.638 443.027 504.155 442.836C507.672 442.645 495.991 435.217 495.991 435.217L504.155 302.602L505.293 236.018L533.907 302.602L546.869 430.889C546.869 430.889 564.213 443.102 568.013 442.836C571.814 442.571 560.212 434.854 560.212 434.854L557.589 303.155C557.524 299.905 556.934 296.687 555.84 293.625L516.586 183.726L504.119 190.235Z" fill="white" stroke="#372898" stroke-width="0.725664" stroke-linecap="round"/>
<path fill-rule="evenodd" clip-rule="evenodd" d="M285.912 82H315.301H285.912Z" fill="white"/>
<path d="M285.912 82H315.301" stroke="#372898" stroke-width="0.725664" stroke-linecap="round"/>
<path fill-rule="evenodd" clip-rule="evenodd" d="M233.482 299.336V243.097V299.336Z" fill="white"/>
<path d="M233.482 299.336V243.097" stroke="#372898" stroke-width="0.725664" stroke-linecap="round"/>
<path fill-rule="evenodd" clip-rule="evenodd" d="M497.655 108.43C497.655 108.43 502.59 109.491 504.998 109.617C505.965 109.668 507.416 109.407 508.806 109.077C511.133 108.525 512.497 106.192 512.071 103.838C511.639 101.456 509.503 99.7655 507.085 99.893L495.813 100.487C493.16 100.627 490.834 102.303 489.861 104.775L488.221 108.944C486.69 112.835 488.393 117.249 492.139 119.105C494.044 120.049 496.312 118.836 496.584 116.727L497.655 108.43Z" fill="#372898"/>
<path fill-rule="evenodd" clip-rule="evenodd" d="M499.345 151.119C502.495 145.62 510.129 144.876 514.281 149.663L531.912 169.987L513.563 129.473L512.734 128.858C510.991 127.568 509.586 125.875 508.64 123.923L504.866 116.136L502.426 116.746C501.257 116.945 500.844 115.326 501.968 114.948C506.928 113.281 511.858 111.69 512.495 111.731C516.225 111.973 522.097 125.943 522.097 125.943L549.052 175.826C553.194 183.491 544.295 191.577 537.06 186.723L502.203 163.334C498.192 160.643 496.945 155.31 499.345 151.119Z" fill="white" stroke="#372898" stroke-width="0.725664" stroke-linecap="round"/>
<path fill-rule="evenodd" clip-rule="evenodd" d="M494.697 129.902H476.774L485.288 181.779L484.805 182.894L477.762 194.659L474.411 204.596C473.146 208.347 472.504 212.281 472.509 216.24L472.589 272.85L502.48 273.46L552.23 259.969L525.803 203.239L524.797 199.231L525.744 199.203L523.257 193.098L520.988 184.059L519.485 183.838L518.28 180.88L520.798 141.874C521.216 135.388 516.066 129.897 509.566 129.902L509.327 129.902H494.697Z" fill="#5554C3"/>
<mask id="mask2" mask-type="alpha" maskUnits="userSpaceOnUse" x="472" y="129" width="81" height="145">
<path fill-rule="evenodd" clip-rule="evenodd" d="M494.697 129.902H476.774L485.288 181.779L484.805 182.894L477.762 194.659L474.411 204.596C473.146 208.347 472.504 212.281 472.509 216.24L472.589 272.85L502.48 273.46L552.23 259.969L525.803 203.239L524.797 199.231L525.744 199.203L523.257 193.098L520.988 184.059L519.485 183.838L518.28 180.88L520.798 141.874C521.216 135.388 516.066 129.897 509.566 129.902L509.327 129.902H494.697Z" fill="white"/>
</mask>
<g mask="url(#mask2)">
<path fill-rule="evenodd" clip-rule="evenodd" d="M483.111 150.575L491.456 180.872L482.204 189.58L476.761 188.31L478.938 158.739L483.111 150.575Z" fill="#372898"/>
<path fill-rule="evenodd" clip-rule="evenodd" d="M463.881 221.146L475.491 201.735L504.337 273.575L472.407 282.283L463.881 221.146Z" fill="#372898"/>
</g>
<path fill-rule="evenodd" clip-rule="evenodd" d="M516.502 444.886C518.85 445.677 519.896 448.41 518.678 450.567L493.773 450.642C493.001 450.644 492.26 450.338 491.713 449.793L485.43 443.519L486.333 450.567H478.575L479.703 432.673C479.774 431.558 480.699 430.689 481.816 430.689C481.816 430.689 494.039 437.737 500.608 440.628C507.177 443.519 503.861 440.628 503.861 440.628L516.502 444.886Z" fill="#372898"/>
<path fill-rule="evenodd" clip-rule="evenodd" d="M516.034 110.267C516.199 109.251 515.486 108.302 514.465 108.176L509.586 107.577C508.627 107.46 507.743 108.115 507.578 109.068L505.045 123.678C504.876 124.657 505.524 125.589 506.5 125.772L511.49 126.703C512.491 126.89 513.45 126.216 513.613 125.21L516.034 110.267Z" fill="white" stroke="#372898" stroke-width="0.725664" stroke-linecap="round"/>
<path fill-rule="evenodd" clip-rule="evenodd" d="M580.361 444.886C582.708 445.677 583.755 448.41 582.536 450.567L557.631 450.642C556.859 450.644 556.118 450.338 555.572 449.793L549.288 443.519L550.192 450.567H542.434L543.562 432.673C543.632 431.558 544.557 430.689 545.674 430.689C545.674 430.689 557.898 437.737 564.467 440.628C571.036 443.519 567.719 440.628 567.719 440.628L580.361 444.886Z" fill="#372898"/>
<path fill-rule="evenodd" clip-rule="evenodd" d="M513.799 151.326L497.08 204.282L530.279 202.452L546.062 150.583L513.799 151.326Z" fill="#CAD9FF"/>
<path fill-rule="evenodd" clip-rule="evenodd" d="M476.029 130.355C479.383 130.08 482.53 132.005 483.812 135.116L484.347 136.414C485.13 138.313 485.286 140.414 484.794 142.409L473.36 188.694L517.535 189.584L518.692 189.082C520.679 188.22 522.845 187.851 525.005 188.008L534.26 188.677L534.987 186.137C535.421 184.968 537.113 185.443 536.866 186.666C535.776 192.053 534.632 197.374 534.26 197.931C532.078 201.198 516.263 199.202 516.263 199.202L465.3 203.169C458.316 203.713 452.891 197.192 454.695 190.423L469.188 136.071C470.03 132.911 472.77 130.622 476.029 130.355Z" fill="white" stroke="#372898" stroke-width="0.725664" stroke-linecap="round"/>
<path fill-rule="evenodd" clip-rule="evenodd" d="M505.428 121.148L504.327 129.856L505.047 129.947L506.148 121.239L505.428 121.148ZM492.34 129.99L495.255 118.38L494.551 118.203L491.705 129.539L487.102 129.531L486.179 129.529L486.854 130.159L494.837 137.597L494.941 137.695H495.084H511.956H512.817L512.215 137.078L505.087 129.772L506.146 123.422L505.43 123.303L504.341 129.834L504.311 130.016L504.439 130.147L511.095 136.969H495.227L488.025 130.258L491.988 130.265L492.271 130.265L492.34 129.99Z" fill="white"/>
<path d="M504.327 129.856L504.282 130.216C504.186 130.204 504.1 130.155 504.041 130.079C503.982 130.003 503.955 129.906 503.967 129.811L504.327 129.856ZM505.428 121.148L505.068 121.103C505.08 121.007 505.129 120.921 505.205 120.862C505.281 120.803 505.378 120.776 505.473 120.788L505.428 121.148ZM505.047 129.947L505.407 129.993C505.382 130.192 505.201 130.332 505.002 130.307L505.047 129.947ZM506.148 121.239L506.193 120.879C506.289 120.891 506.375 120.941 506.434 121.017C506.493 121.093 506.52 121.189 506.508 121.285L506.148 121.239ZM495.255 118.38L495.343 118.028C495.436 118.051 495.516 118.111 495.566 118.193C495.615 118.276 495.63 118.375 495.606 118.468L495.255 118.38ZM492.34 129.99L491.988 129.902V129.902L492.34 129.99ZM494.551 118.203L494.199 118.115C494.248 117.92 494.445 117.802 494.639 117.851L494.551 118.203ZM491.705 129.539L492.057 129.627C492.017 129.788 491.871 129.902 491.705 129.901L491.705 129.539ZM487.102 129.531L487.103 129.168L487.102 129.531ZM486.179 129.529L485.931 129.795C485.822 129.693 485.786 129.535 485.841 129.396C485.896 129.257 486.03 129.166 486.179 129.167L486.179 129.529ZM486.854 130.159L487.102 129.894V129.894L486.854 130.159ZM494.837 137.597L494.589 137.863L494.837 137.597ZM494.941 137.695V138.058C494.849 138.058 494.761 138.023 494.694 137.96L494.941 137.695ZM512.817 137.695L513.076 137.441C513.178 137.546 513.208 137.701 513.151 137.836C513.094 137.97 512.963 138.058 512.817 138.058V137.695ZM512.215 137.078L511.956 137.332H511.956L512.215 137.078ZM505.087 129.772L504.828 130.025C504.747 129.943 504.71 129.826 504.729 129.712L505.087 129.772ZM506.146 123.422L506.205 123.065C506.403 123.098 506.536 123.284 506.503 123.482L506.146 123.422ZM505.43 123.303L505.072 123.244C505.088 123.149 505.141 123.064 505.219 123.008C505.297 122.952 505.394 122.929 505.489 122.945L505.43 123.303ZM504.341 129.834L504.699 129.894V129.894L504.341 129.834ZM504.311 130.016L504.051 130.269C503.971 130.186 503.934 130.07 503.953 129.956L504.311 130.016ZM504.439 130.147L504.699 129.894L504.699 129.894L504.439 130.147ZM511.095 136.969L511.355 136.716C511.456 136.82 511.486 136.975 511.429 137.11C511.373 137.244 511.241 137.332 511.095 137.332V136.969ZM495.227 136.969V137.332C495.135 137.332 495.047 137.297 494.98 137.234L495.227 136.969ZM488.025 130.258L487.778 130.524C487.669 130.422 487.633 130.264 487.688 130.125C487.742 129.986 487.876 129.895 488.026 129.895L488.025 130.258ZM491.988 130.265L491.988 129.902H491.988L491.988 130.265ZM492.271 130.265L492.623 130.353C492.582 130.515 492.437 130.628 492.27 130.628L492.271 130.265ZM503.967 129.811L505.068 121.103L505.788 121.194L504.687 129.902L503.967 129.811ZM505.002 130.307L504.282 130.216L504.373 129.496L505.093 129.587L505.002 130.307ZM506.508 121.285L505.407 129.993L504.687 129.902L505.788 121.194L506.508 121.285ZM505.473 120.788L506.193 120.879L506.102 121.599L505.382 121.508L505.473 120.788ZM495.606 118.468L492.692 130.079L491.988 129.902L494.903 118.291L495.606 118.468ZM494.639 117.851L495.343 118.028L495.166 118.731L494.462 118.555L494.639 117.851ZM491.353 129.45L494.199 118.115L494.903 118.291L492.057 129.627L491.353 129.45ZM487.103 129.168L491.706 129.176L491.705 129.901L487.102 129.894L487.103 129.168ZM486.179 129.167L487.103 129.168L487.102 129.894L486.178 129.892L486.179 129.167ZM486.607 130.425L485.931 129.795L486.426 129.264L487.102 129.894L486.607 130.425ZM494.589 137.863L486.607 130.425L487.102 129.894L495.084 137.332L494.589 137.863ZM494.694 137.96L494.589 137.863L495.084 137.332L495.189 137.429L494.694 137.96ZM495.084 138.058H494.941V137.332H495.084V138.058ZM511.956 138.058H495.084V137.332H511.956V138.058ZM512.817 138.058H511.956V137.332H512.817V138.058ZM512.475 136.825L513.076 137.441L512.557 137.948L511.956 137.332L512.475 136.825ZM505.347 129.519L512.475 136.825L511.956 137.332L504.828 130.025L505.347 129.519ZM506.503 123.482L505.445 129.832L504.729 129.712L505.788 123.363L506.503 123.482ZM505.489 122.945L506.205 123.065L506.086 123.78L505.37 123.661L505.489 122.945ZM503.983 129.774L505.072 123.244L505.788 123.363L504.699 129.894L503.983 129.774ZM503.953 129.956L503.983 129.774L504.699 129.894L504.669 130.075L503.953 129.956ZM504.18 130.401L504.051 130.269L504.571 129.762L504.699 129.894L504.18 130.401ZM510.835 137.222L504.18 130.401L504.699 129.894L511.355 136.716L510.835 137.222ZM495.227 136.606H511.095V137.332H495.227V136.606ZM488.272 129.993L495.474 136.704L494.98 137.234L487.778 130.524L488.272 129.993ZM491.987 130.628L488.024 130.621L488.026 129.895L491.988 129.902L491.987 130.628ZM492.27 130.628L491.987 130.628L491.988 129.902L492.272 129.902L492.27 130.628ZM492.692 130.079L492.623 130.353L491.919 130.177L491.988 129.902L492.692 130.079Z" fill="#372898"/>
<path fill-rule="evenodd" clip-rule="evenodd" d="M504.689 129.902L497.08 120.468L505.788 121.557L504.689 129.902Z" fill="#372898"/>
<path fill-rule="evenodd" clip-rule="evenodd" d="M493.559 118.237C495.545 121.148 498.893 123.089 502.721 123.156C508.942 123.265 510.75 119.472 510.857 113.339C510.964 107.206 509.28 103.544 503.085 102.286C497.485 101.15 492.752 104.876 491.816 110.133C490.241 110.676 489.104 112.215 489.072 114.027C489.032 116.314 490.769 118.23 492.99 118.269C493.183 118.272 493.373 118.261 493.559 118.237ZM493.123 117.543C493.083 117.544 493.043 117.544 493.002 117.543C491.216 117.512 489.764 115.96 489.798 114.04C489.822 112.662 490.602 111.501 491.701 110.966C491.673 111.258 491.655 111.555 491.65 111.854C491.614 113.922 492.154 115.868 493.123 117.543Z" fill="white"/>
<path d="M493.559 118.237L493.512 117.877L493.733 117.848L493.859 118.032L493.559 118.237ZM503.085 102.286L503.157 101.931L503.085 102.286ZM491.816 110.133L492.173 110.197L492.136 110.407L491.934 110.476L491.816 110.133ZM493.123 117.543L493.437 117.361L493.745 117.893L493.131 117.906L493.123 117.543ZM491.701 110.966L491.543 110.64L492.126 110.356L492.063 111.002L491.701 110.966ZM502.714 123.519C498.766 123.45 495.309 121.447 493.26 118.441L493.859 118.032C495.78 120.85 499.021 122.728 502.727 122.793L502.714 123.519ZM511.22 113.345C511.166 116.43 510.686 119.007 509.375 120.802C508.042 122.626 505.905 123.574 502.714 123.519L502.727 122.793C505.758 122.846 507.635 121.953 508.789 120.374C509.963 118.767 510.441 116.381 510.495 113.332L511.22 113.345ZM503.157 101.931C506.318 102.572 508.389 103.842 509.64 105.788C510.88 107.718 511.274 110.255 511.22 113.345L510.495 113.332C510.548 110.289 510.153 107.929 509.029 106.18C507.916 104.448 506.047 103.258 503.013 102.642L503.157 101.931ZM491.459 110.069C492.427 104.631 497.338 100.75 503.157 101.931L503.013 102.642C497.631 101.55 493.077 105.12 492.173 110.197L491.459 110.069ZM491.934 110.476C490.508 110.968 489.464 112.37 489.435 114.033L488.709 114.021C488.743 112.061 489.974 110.384 491.698 109.79L491.934 110.476ZM489.435 114.033C489.398 116.138 490.993 117.871 492.996 117.906L492.983 118.631C490.546 118.589 488.666 116.491 488.709 114.021L489.435 114.033ZM492.996 117.906C493.171 117.909 493.344 117.899 493.512 117.877L493.606 118.596C493.403 118.623 493.195 118.635 492.983 118.631L492.996 117.906ZM493.131 117.906C493.086 117.907 493.041 117.907 492.996 117.906L493.009 117.18C493.044 117.181 493.08 117.181 493.115 117.18L493.131 117.906ZM492.996 117.906C490.993 117.871 489.398 116.138 489.435 114.033L490.16 114.046C490.13 115.782 491.438 117.153 493.009 117.18L492.996 117.906ZM489.435 114.033C489.461 112.521 490.32 111.235 491.543 110.64L491.86 111.292C490.885 111.767 490.182 112.804 490.16 114.046L489.435 114.033ZM491.287 111.848C491.293 111.539 491.311 111.233 491.34 110.931L492.063 111.002C492.035 111.284 492.018 111.571 492.013 111.861L491.287 111.848ZM492.809 117.725C491.807 115.994 491.25 113.984 491.287 111.848L492.013 111.861C491.978 113.86 492.5 115.741 493.437 117.361L492.809 117.725Z" fill="#372898"/>
<path fill-rule="evenodd" clip-rule="evenodd" d="M498.191 109.213L510.156 107.863C510.156 107.863 509.264 106.063 508.928 105.483C508.377 104.534 507.655 104.192 507.041 103.902C506.736 103.758 506.458 103.627 506.242 103.44C504.252 101.725 502.114 101.95 501.004 102.078C498.276 102.394 496.447 103.269 496.447 103.269C496.447 103.269 494.485 104.253 493.732 105.387C492.979 106.521 491.824 109.102 491.824 109.102L491.794 110.889C491.794 110.889 492.526 110.685 492.871 110.646C493.215 110.606 493.778 110.662 493.778 110.662C493.778 110.662 493.814 110.673 493.873 110.694C494.866 110.843 495.717 111.415 496.242 112.218L498.191 109.213Z" fill="#372898"/>
<path fill-rule="evenodd" clip-rule="evenodd" d="M532.56 150.878C532.349 150.912 532.132 150.93 531.912 150.93C531.754 150.93 531.599 150.921 531.447 150.903L513.77 151.309L514.123 150.074C514.561 148.547 515.94 147.482 517.528 147.446L527.929 147.207C527.923 147.121 527.92 147.034 527.92 146.947C527.92 144.747 529.707 142.964 531.912 142.964C534.116 142.964 535.903 144.747 535.903 146.947C535.903 146.973 535.903 146.998 535.902 147.024L543.197 146.857C545.159 146.811 546.602 148.681 546.062 150.568L532.56 150.878Z" fill="#372898"/>
<path fill-rule="evenodd" clip-rule="evenodd" d="M62.4072 26.1239C62.4072 25.7231 62.7321 25.3983 63.1329 25.3983H116.469C116.87 25.3983 117.195 25.7231 117.195 26.1239V79.4602C117.195 79.861 116.87 80.1859 116.469 80.1859H63.1329C62.7321 80.1859 62.4072 79.861 62.4072 79.4602V26.1239Z" fill="#CAD9FF"/>
</g>
<defs>
<clipPath id="clip0">
<rect width="584.885" height="451" fill="white"/>
</clipPath>
<clipPath id="clip1">
<rect width="117.195" height="10.5221" fill="white" transform="translate(198.106 97.8448)"/>
</clipPath>
<clipPath id="clip2">
<rect width="117.195" height="10.5221" fill="white" transform="translate(198.106 97.8448)"/>
</clipPath>
</defs>
</svg>
