<svg width="53" height="53" viewBox="0 0 53 53" fill="none" xmlns="http://www.w3.org/2000/svg">
<rect width="53" height="53" rx="26.5" fill="#F4F4F4"/>
<path fill-rule="evenodd" clip-rule="evenodd" d="M36.7466 35.0441C36.7466 33.6535 34.6497 32.8809 33.5902 32.4615C32.95 32.1967 32.2878 31.9318 31.6477 31.6448C30.7869 31.2475 29.9039 30.784 29.2638 30.0556C29.0431 29.7907 28.9106 29.6141 28.9106 29.2609C28.9106 28.7532 29.0431 28.2456 29.1535 27.7599C29.33 27.0095 29.7053 26.3914 30.0143 25.6851C30.3675 24.8021 30.4999 23.8751 30.6765 22.9701C30.7427 22.5727 30.8531 22.1975 30.8531 21.8002C30.8531 19.0631 29.4183 16.6571 26.4384 16.6571C23.4586 16.6571 22.0238 19.0631 22.0238 21.8002C22.0238 22.1975 22.1563 22.5727 22.2225 22.9701C22.4211 23.8751 22.5315 24.8021 22.9067 25.6851C23.2158 26.3914 23.6131 27.0095 23.7676 27.7599C23.9 28.2456 24.0104 28.7532 24.0104 29.2609C24.0104 29.6141 23.878 29.7907 23.6572 30.0556C23.0171 30.784 22.1342 31.2475 21.2733 31.6448C20.6332 31.9539 19.971 32.1967 19.3309 32.4615C18.2714 32.903 16.1523 33.6535 16.1523 35.0441V37.2514H36.7466V35.9712V35.0441Z" fill="#C2C2C2" stroke="#C2C2C2" stroke-width="2.16782"/>
</svg>
