<svg width="22" height="22" viewBox="0 0 22 22" fill="none" xmlns="http://www.w3.org/2000/svg">
<path d="M15.102 3.05953C15.3324 2.82919 15.6058 2.64648 15.9068 2.52182C16.2077 2.39717 16.5303 2.33301 16.856 2.33301C17.1817 2.33301 17.5043 2.39717 17.8052 2.52182C18.1062 2.64648 18.3796 2.82919 18.61 3.05953C18.8403 3.28986 19.023 3.56331 19.1477 3.86425C19.2723 4.1652 19.3365 4.48775 19.3365 4.81349C19.3365 5.13924 19.2723 5.46179 19.1477 5.76273C19.023 6.06368 18.8403 6.33713 18.61 6.56746L6.77068 18.4067L1.94727 19.7222L3.26274 14.8988L15.102 3.05953Z" stroke="black" stroke-width="1.75397" stroke-linecap="round" stroke-linejoin="round"/>
</svg>
