<svg width="40" height="40" viewBox="0 0 40 40" fill="none" xmlns="http://www.w3.org/2000/svg">
<circle cx="20" cy="20" r="20" fill="#C4C4C4"/>
<path fill-rule="evenodd" clip-rule="evenodd" d="M31.1999 27.1563C31.1999 25.6168 28.8784 24.7615 27.7054 24.2972C26.9967 24.0039 26.2636 23.7107 25.5549 23.393C24.6018 22.9531 23.6243 22.4399 22.9157 21.6335C22.6713 21.3402 22.5247 21.1447 22.5247 20.7537C22.5247 20.1917 22.6713 19.6296 22.7935 19.092C22.989 18.2611 23.4044 17.5769 23.7465 16.7949C24.1375 15.8174 24.2841 14.791 24.4796 13.7891C24.553 13.3492 24.6751 12.9338 24.6751 12.4939C24.6751 9.46371 23.0867 6.80005 19.7877 6.80005C16.4886 6.80005 14.9002 9.46371 14.9002 12.4939C14.9002 12.9338 15.0468 13.3492 15.1202 13.7891C15.3401 14.791 15.4623 15.8174 15.8777 16.7949C16.2198 17.5769 16.6597 18.2611 16.8308 19.092C16.9774 19.6296 17.0996 20.1917 17.0996 20.7537C17.0996 21.1447 16.953 21.3402 16.7086 21.6335C15.9999 22.4399 15.0224 22.9531 14.0694 23.393C13.3607 23.7351 12.6276 24.0039 11.9189 24.2972C10.7459 24.7859 8.3999 25.6168 8.3999 27.1563V29.6H31.1999V28.1827V27.1563Z" fill="#5C5C5C" stroke="#515356" stroke-width="2.4"/>
</svg>
