<svg width="17" height="16" viewBox="0 0 17 16" fill="none" xmlns="http://www.w3.org/2000/svg">
<path d="M14.8434 3.07357C14.4768 2.70688 14.0417 2.416 13.5627 2.21754C13.0837 2.01908 12.5704 1.91693 12.0519 1.91693C11.5335 1.91693 11.0201 2.01908 10.5411 2.21754C10.0621 2.416 9.62698 2.70688 9.26046 3.07357L8.49981 3.83422L7.73916 3.07357C6.99882 2.33323 5.9947 1.91731 4.94771 1.91731C3.90071 1.91731 2.89659 2.33323 2.15626 3.07357C1.41592 3.81391 1 4.81802 1 5.86502C1 6.91202 1.41592 7.91613 2.15626 8.65647L2.91691 9.41712L8.49981 15L14.0827 9.41712L14.8434 8.65647C15.21 8.28995 15.5009 7.85478 15.6994 7.37582C15.8979 6.89685 16 6.38348 16 5.86502C16 5.34657 15.8979 4.83319 15.6994 4.35423C15.5009 3.87526 15.21 3.44009 14.8434 3.07357V3.07357Z" stroke="#8DC73F" stroke-width="2" stroke-linecap="round" stroke-linejoin="round"/>
</svg>
