<svg width="18" height="16" viewBox="0 0 18 16" fill="none" xmlns="http://www.w3.org/2000/svg">
<path d="M15.6654 2.2377C15.2732 1.84531 14.8075 1.53404 14.2949 1.32168C13.7824 1.10931 13.2331 1 12.6783 1C12.1235 1 11.5741 1.10931 11.0616 1.32168C10.5491 1.53404 10.0834 1.84531 9.69119 2.2377L8.87723 3.05166L8.06327 2.2377C7.27104 1.44548 6.19656 1.00041 5.07618 1.00041C3.95581 1.00041 2.88132 1.44548 2.0891 2.2377C1.29687 3.02993 0.851807 4.10441 0.851807 5.22479C0.851807 6.34516 1.29687 7.41965 2.0891 8.21187L2.90306 9.02583L8.87723 15L14.8514 9.02583L15.6654 8.21187C16.0577 7.81967 16.369 7.354 16.5814 6.84146C16.7938 6.32893 16.9031 5.77958 16.9031 5.22479C16.9031 4.67 16.7938 4.12064 16.5814 3.60811C16.369 3.09558 16.0577 2.6299 15.6654 2.2377V2.2377Z" stroke="black" stroke-linecap="round" stroke-linejoin="round"/>
</svg>
