<svg width="18" height="23" viewBox="0 0 18 23" fill="none" xmlns="http://www.w3.org/2000/svg">
<path d="M16.1245 19.806C16.2774 19.9558 16.2774 20.1984 16.1245 20.3481C15.9717 20.4978 15.724 20.4978 15.5712 20.3481L14.414 19.2146H10.0435C9.82736 19.2146 9.65216 19.0429 9.65216 18.8312C9.65216 18.6196 9.82736 18.4479 10.0435 18.4479H14.5761C14.6799 18.4479 14.7794 18.4883 14.8528 18.5602L16.1245 19.806ZM9.73369 14.2312C9.73369 14.0196 9.55849 13.8479 9.34239 13.8479H8.02174C7.80564 13.8479 7.63043 14.0196 7.63043 14.2312C7.63043 14.4429 7.80564 14.6146 8.02174 14.6146H9.34239C9.55849 14.6146 9.73369 14.4429 9.73369 14.2312ZM16.4348 5.4625H7.1413C6.27823 5.4625 5.57609 6.15034 5.57609 6.99583V13.0812C5.57609 13.2929 5.75129 13.4646 5.96739 13.4646C6.18349 13.4646 6.3587 13.2929 6.3587 13.0812V6.99583C6.3587 6.57311 6.70979 6.22917 7.1413 6.22917H9.63587V8.55068C9.63587 9.18476 10.1625 9.70068 10.8098 9.70068H12.8152C13.4625 9.70068 13.9891 9.18476 13.9891 8.55068V7.33125C13.9891 7.11955 13.8139 6.94792 13.5978 6.94792C13.3817 6.94792 13.2065 7.11955 13.2065 7.33125V8.55068C13.2065 8.76204 13.031 8.93401 12.8152 8.93401H10.8098C10.594 8.93401 10.4185 8.76204 10.4185 8.55068V6.22917H16.4348C16.8663 6.22917 17.2174 6.57311 17.2174 6.99583V16.1C17.2174 16.5227 16.8663 16.8667 16.4348 16.8667H9.78261C9.56651 16.8667 9.3913 17.0383 9.3913 17.25C9.3913 17.4617 9.56651 17.6333 9.78261 17.6333H16.4348C17.2979 17.6333 18 16.9455 18 16.1V6.99583C18 6.15034 17.2979 5.4625 16.4348 5.4625ZM8.51087 18.8312C8.51087 21.1299 6.60189 23 4.25543 23C1.90898 23 0 21.1299 0 18.8312C0 16.6619 1.70041 14.8745 3.86413 14.6803V3.45C3.86413 1.97038 2.63534 0.766667 1.125 0.766667C0.908902 0.766667 0.733696 0.595029 0.733696 0.383333C0.733696 0.171638 0.908902 0 1.125 0C3.0669 0 4.64674 1.54766 4.64674 3.45V14.6803C6.81046 14.8745 8.51087 16.6619 8.51087 18.8312ZM7.72826 18.8312C7.72826 16.9554 6.17033 15.4292 4.25543 15.4292C2.34054 15.4292 0.782609 16.9554 0.782609 18.8312C0.782609 20.7071 2.34054 22.2333 4.25543 22.2333C6.17033 22.2333 7.72826 20.7071 7.72826 18.8312ZM4.25543 16.6271C3.0148 16.6271 2.00543 17.6159 2.00543 18.8312C2.00543 20.0466 3.0148 21.0354 4.25543 21.0354C4.47153 21.0354 4.64674 20.8638 4.64674 20.6521C4.64674 20.4404 4.47153 20.2687 4.25543 20.2687C3.44631 20.2687 2.78804 19.6239 2.78804 18.8312C2.78804 18.0386 3.44631 17.3937 4.25543 17.3937C5.06455 17.3937 5.72283 18.0386 5.72283 18.8312C5.72283 19.0429 5.89803 19.2146 6.11413 19.2146C6.33023 19.2146 6.50543 19.0429 6.50543 18.8312C6.50543 17.6159 5.49606 16.6271 4.25543 16.6271Z" fill="black"/>
</svg>
