<svg width="18" height="18" viewBox="0 0 18 18" fill="none" xmlns="http://www.w3.org/2000/svg">
<g clip-path="url(#clip0)">
<path d="M17.5001 12.69V14.94C17.5009 15.1489 17.4581 15.3556 17.3745 15.547C17.2908 15.7384 17.168 15.9102 17.0141 16.0514C16.8602 16.1926 16.6785 16.3001 16.4806 16.367C16.2828 16.434 16.0731 16.4588 15.8651 16.44C13.5572 16.1892 11.3403 15.4006 9.39257 14.1375C7.58044 12.986 6.04407 11.4496 4.89257 9.63751C3.62506 7.68092 2.83625 5.45326 2.59007 3.13501C2.57133 2.92761 2.59598 2.71858 2.66245 2.52123C2.72892 2.32388 2.83575 2.14253 2.97615 1.98873C3.11654 1.83493 3.28743 1.71204 3.47792 1.6279C3.6684 1.54376 3.87433 1.50021 4.08257 1.50001H6.33257C6.69655 1.49643 7.04942 1.62532 7.32539 1.86266C7.60137 2.1 7.78163 2.4296 7.83257 2.79001C7.92754 3.51006 8.10366 4.21706 8.35757 4.89751C8.45848 5.16595 8.48032 5.4577 8.4205 5.73817C8.36069 6.01865 8.22172 6.27609 8.02007 6.48001L7.06757 7.43251C8.13524 9.31017 9.68991 10.8648 11.5676 11.9325L12.5201 10.98C12.724 10.7784 12.9814 10.6394 13.2619 10.5796C13.5424 10.5198 13.8341 10.5416 14.1026 10.6425C14.783 10.8964 15.49 11.0725 16.2101 11.1675C16.5744 11.2189 16.9071 11.4024 17.145 11.6831C17.3828 11.9638 17.5092 12.3222 17.5001 12.69Z" stroke="#D0D0D0" stroke-width="2" stroke-linecap="round" stroke-linejoin="round"/>
</g>
<defs>
<clipPath id="clip0">
<rect width="18" height="18" fill="white"/>
</clipPath>
</defs>
</svg>
