<svg width="16" height="16" viewBox="0 0 16 16" fill="none" xmlns="http://www.w3.org/2000/svg">
<path fill-rule="evenodd" clip-rule="evenodd" d="M10.7591 6.4621C10.7591 8.8321 8.8315 10.7597 6.4615 10.7597C4.0915 10.7597 2.1481 8.8321 2.1481 6.4621C2.1481 4.0763 4.0757 2.1487 6.4615 2.1487C8.8315 2.1487 10.7591 4.0921 10.7591 6.4621ZM11.7868 10.112C12.5294 9.0534 12.9244 7.7578 12.9244 6.4622C12.9244 2.8914 10.033 0 6.4622 0C2.8914 0 0 2.8914 0 6.4622C0 10.033 2.8914 12.9244 6.4622 12.9244C7.7578 12.9244 9.0534 12.5136 10.1278 11.7868L14.141 15.8L15.8 14.141L11.7868 10.112Z" fill="#A8A8A8"/>
</svg>
