<svg width="23" height="24" viewBox="0 0 23 24" fill="none" xmlns="http://www.w3.org/2000/svg">
<path fill-rule="evenodd" clip-rule="evenodd" d="M15.727 10.1252C15.727 13.5452 12.9454 16.3268 9.52543 16.3268C6.10543 16.3268 3.30103 13.5452 3.30103 10.1252C3.30103 6.68239 6.08263 3.90079 9.52543 3.90079C12.9454 3.90079 15.727 6.70519 15.727 10.1252ZM17.209 15.3921C18.2806 13.8645 18.8506 11.9949 18.8506 10.1253C18.8506 4.97251 14.6782 0.80011 9.52539 0.80011C4.37259 0.80011 0.200195 4.97251 0.200195 10.1253C0.200195 15.2781 4.37259 19.4505 9.52539 19.4505C11.395 19.4505 13.2646 18.8577 14.815 17.8089L20.6062 23.6001L23.0002 21.2061L17.209 15.3921Z" fill="white"/>
</svg>
