<svg width="20" height="23" viewBox="0 0 20 23" fill="none" xmlns="http://www.w3.org/2000/svg">
<path d="M16.0347 7.84136C17.6741 7.84136 19.003 6.51241 19.003 4.87306C19.003 3.23371 17.6741 1.90475 16.0347 1.90475C14.3954 1.90475 13.0664 3.23371 13.0664 4.87306C13.0664 6.51241 14.3954 7.84136 16.0347 7.84136Z" stroke="black" stroke-width="1.97887" stroke-linecap="round" stroke-linejoin="round"/>
<path d="M4.15971 14.7674C5.79906 14.7674 7.12801 13.4384 7.12801 11.7991C7.12801 10.1597 5.79906 8.83078 4.15971 8.83078C2.52036 8.83078 1.19141 10.1597 1.19141 11.7991C1.19141 13.4384 2.52036 14.7674 4.15971 14.7674Z" stroke="black" stroke-width="1.97887" stroke-linecap="round" stroke-linejoin="round"/>
<path d="M16.0347 21.6934C17.6741 21.6934 19.003 20.3645 19.003 18.7251C19.003 17.0858 17.6741 15.7568 16.0347 15.7568C14.3954 15.7568 13.0664 17.0858 13.0664 18.7251C13.0664 20.3645 14.3954 21.6934 16.0347 21.6934Z" stroke="black" stroke-width="1.97887" stroke-linecap="round" stroke-linejoin="round"/>
<path d="M6.72461 13.2932L13.4824 17.2311" stroke="black" stroke-width="1.97887" stroke-linecap="round" stroke-linejoin="round"/>
<path d="M13.4726 6.36719L6.72461 10.3051" stroke="black" stroke-width="1.97887" stroke-linecap="round" stroke-linejoin="round"/>
</svg>
