<svg width="19" height="19" viewBox="0 0 19 19" fill="none" xmlns="http://www.w3.org/2000/svg">
<g clip-path="url(#clip0)">
<path d="M18.0472 10.7276V17.4156C18.0472 18.2885 17.3371 18.9986 16.4642 18.9986H2.53412C1.66127 18.9986 0.951152 18.2885 0.951152 17.4156V10.7276C0.951152 10.5528 1.09291 10.411 1.26775 10.411C1.44258 10.411 1.58434 10.5528 1.58434 10.7276V17.4156C1.58434 17.9394 2.01039 18.3654 2.53412 18.3654H5.97707V13.0229C5.97707 12.1501 6.68719 11.4399 7.56004 11.4399H11.4383C12.3112 11.4399 13.0213 12.1501 13.0213 13.0229V17.099C13.0213 17.2739 12.8795 17.4156 12.7047 17.4156C12.5298 17.4156 12.3881 17.2739 12.3881 17.099V13.0229C12.3881 12.4992 11.962 12.0731 11.4383 12.0731H7.56004C7.03635 12.0731 6.61026 12.4992 6.61026 13.0229V18.3654H9.18258V13.3791C9.18258 13.2042 9.32434 13.0625 9.49917 13.0625C9.67401 13.0625 9.81577 13.2042 9.81577 13.3791V18.3654H16.4642C16.9879 18.3654 17.414 17.9394 17.414 17.4156V10.7276C17.414 10.5528 17.5558 10.411 17.7306 10.411C17.9054 10.411 18.0472 10.5527 18.0472 10.7276ZM2.05923 5.06849C2.05923 5.24333 2.20098 5.38508 2.37582 5.38508C19.6012 5.38508 18.7471 5.41587 18.873 5.31935C18.9388 5.26873 18.9818 5.19572 18.9936 5.1123C19.0112 4.98506 19.1248 5.29794 16.913 0.193699C16.8628 0.0779046 16.7487 0.00299072 16.6225 0.00299072H2.37578C2.24962 0.00299072 2.13545 0.0779442 2.08531 0.193699L0.0274508 4.9426C-0.00891786 5.02658 0.00133186 4.89329 0.00133186 7.03263C0.00362716 8.47254 1.1753 9.64401 2.61323 9.64401C3.60175 9.64401 4.46443 9.09037 4.90786 8.27649C5.89824 10.0965 8.50693 10.0985 9.49914 8.27772C10.4905 10.0971 13.0981 10.0975 14.0897 8.27772C14.5329 9.09089 15.3956 9.64401 16.385 9.64401C17.8253 9.64401 18.9969 8.47234 18.9969 7.03212C18.9969 6.85728 18.8552 6.71553 18.6803 6.71553C18.5055 6.71553 18.3638 6.85728 18.3638 7.03212C18.3638 8.12318 17.4761 9.01083 16.385 9.01083C15.294 9.01083 14.4063 8.12318 14.4063 7.03212C14.4063 6.85728 14.2646 6.71553 14.0897 6.71553C13.9149 6.71553 13.7731 6.85728 13.7731 7.03212C13.7731 8.12318 12.8855 9.01083 11.7944 9.01083C10.7034 9.01083 9.81573 8.12318 9.81573 7.03212C9.81573 6.85728 9.67397 6.71553 9.49914 6.71553C9.3243 6.71553 9.18254 6.85728 9.18254 7.03212C9.18254 8.12318 8.29489 9.01083 7.20383 9.01083C6.13703 9.01083 5.22512 8.15349 5.22512 7.01629C5.22512 6.84145 5.08337 6.6997 4.90853 6.6997C4.73369 6.6997 4.59194 6.84145 4.59194 7.01629C4.59194 8.14388 3.68573 9.01083 2.61323 9.01083C1.52391 9.01083 0.63622 8.12294 0.634519 7.03212V5.1341L2.58367 0.636178H16.4147L18.1981 4.75189H2.37582C2.20094 4.75189 2.05923 4.89361 2.05923 5.06849Z" fill="black"/>
</g>
<defs>
<clipPath id="clip0">
<rect width="19" height="19" fill="white"/>
</clipPath>
</defs>
</svg>
