<svg width="12" height="12" viewBox="0 0 12 12" fill="none" xmlns="http://www.w3.org/2000/svg">
<path fill-rule="evenodd" clip-rule="evenodd" d="M0.329102 11.8754H2.42834V4.94795H0.329102V11.8754ZM11.8747 5.52496C11.8747 4.88994 11.4023 4.37038 10.8251 4.37038H7.51351L8.01208 1.73216L8.02782 1.54743C8.02782 1.31074 7.9386 1.09137 7.7969 0.9355L7.24061 0.329346L3.78736 4.13369C3.59318 4.34151 3.47772 4.63016 3.47772 4.94767V10.7206C3.47772 11.3556 3.95005 11.8751 4.52734 11.8751H9.25062C9.68622 11.8751 10.0588 11.5865 10.2163 11.1709L11.8012 7.10096C11.8484 6.96818 11.8747 6.82963 11.8747 6.67954V5.57691L11.8694 5.57114L11.8747 5.52496Z" fill="#9B9B9B"/>
</svg>
