<svg width="12" height="12" viewBox="0 0 12 12" fill="none" xmlns="http://www.w3.org/2000/svg">
<path fill-rule="evenodd" clip-rule="evenodd" d="M0.329102 0.296936H2.42834V7.22442H0.329102V0.296936ZM11.8747 6.64741C11.8747 7.28243 11.4023 7.80199 10.8251 7.80199H7.51351L8.01208 10.4402L8.02782 10.6249C8.02782 10.8616 7.9386 11.081 7.7969 11.2369L7.24061 11.843L3.78736 8.03868C3.59318 7.83085 3.47772 7.54221 3.47772 7.2247V1.4518C3.47772 0.816777 3.95005 0.297216 4.52734 0.297216H9.25062C9.68622 0.297216 10.0588 0.585861 10.2163 1.00151L11.8012 5.07141C11.8484 5.20418 11.8747 5.34273 11.8747 5.49283V6.59545L11.8694 6.60122L11.8747 6.64741Z" fill="#9B9B9B"/>
</svg>
